<mxfile host="app.diagrams.net" agent="Mozilla/5.0 (Macintosh; Intel Mac OS X 10.15; rv:128.0) Gecko/20100101 Firefox/128.0" version="27.1.0">
  <diagram name="Strona-1" id="Z7PVqbiiyRx0oEHHE3G9">
    <mxGraphModel dx="976" dy="750" grid="1" gridSize="10" guides="1" tooltips="1" connect="1" arrows="1" fold="1" page="1" pageScale="1" pageWidth="827" pageHeight="1169" math="0" shadow="0">
      <root>
        <mxCell id="0" />
        <mxCell id="1" parent="0" />
        <mxCell id="8zcdvciyAg1Ix1c_pIfZ-29" value="" style="rounded=0;whiteSpace=wrap;html=1;" vertex="1" parent="1">
          <mxGeometry x="180" y="390" width="620" height="250" as="geometry" />
        </mxCell>
        <mxCell id="8zcdvciyAg1Ix1c_pIfZ-17" value="" style="rounded=0;whiteSpace=wrap;html=1;" vertex="1" parent="1">
          <mxGeometry x="500" y="80" width="310" height="170" as="geometry" />
        </mxCell>
        <mxCell id="8zcdvciyAg1Ix1c_pIfZ-16" value="" style="rounded=0;whiteSpace=wrap;html=1;" vertex="1" parent="1">
          <mxGeometry x="190" y="80" width="270" height="250" as="geometry" />
        </mxCell>
        <mxCell id="8zcdvciyAg1Ix1c_pIfZ-3" style="edgeStyle=orthogonalEdgeStyle;rounded=0;orthogonalLoop=1;jettySize=auto;html=1;" edge="1" parent="1" source="8zcdvciyAg1Ix1c_pIfZ-1" target="8zcdvciyAg1Ix1c_pIfZ-2">
          <mxGeometry relative="1" as="geometry" />
        </mxCell>
        <mxCell id="8zcdvciyAg1Ix1c_pIfZ-1" value="internet" style="ellipse;shape=cloud;whiteSpace=wrap;html=1;" vertex="1" parent="1">
          <mxGeometry y="120" width="90" height="60" as="geometry" />
        </mxCell>
        <mxCell id="8zcdvciyAg1Ix1c_pIfZ-5" style="edgeStyle=orthogonalEdgeStyle;rounded=0;orthogonalLoop=1;jettySize=auto;html=1;entryX=0;entryY=0.5;entryDx=0;entryDy=0;" edge="1" parent="1" source="8zcdvciyAg1Ix1c_pIfZ-2" target="8zcdvciyAg1Ix1c_pIfZ-4">
          <mxGeometry relative="1" as="geometry" />
        </mxCell>
        <mxCell id="8zcdvciyAg1Ix1c_pIfZ-2" value="" style="sketch=0;pointerEvents=1;shadow=0;dashed=0;html=1;strokeColor=none;fillColor=#005F4B;labelPosition=center;verticalLabelPosition=bottom;verticalAlign=top;align=center;outlineConnect=0;shape=mxgraph.veeam2.dns;" vertex="1" parent="1">
          <mxGeometry x="130" y="130" width="40" height="40" as="geometry" />
        </mxCell>
        <mxCell id="8zcdvciyAg1Ix1c_pIfZ-7" style="edgeStyle=orthogonalEdgeStyle;rounded=0;orthogonalLoop=1;jettySize=auto;html=1;" edge="1" parent="1" source="8zcdvciyAg1Ix1c_pIfZ-4" target="8zcdvciyAg1Ix1c_pIfZ-6">
          <mxGeometry relative="1" as="geometry" />
        </mxCell>
        <mxCell id="8zcdvciyAg1Ix1c_pIfZ-4" value="LoadBalancer" style="shape=image;verticalLabelPosition=bottom;verticalAlign=top;imageAspect=0;aspect=fixed;image=data:image/svg+xml,PHN2ZyB4bWxuczpkYz0iaHR0cDovL3B1cmwub3JnL2RjL2VsZW1lbnRzLzEuMS8iIHhtbG5zOmNjPSJodHRwOi8vY3JlYXRpdmVjb21tb25zLm9yZy9ucyMiIHhtbG5zOnJkZj0iaHR0cDovL3d3dy53My5vcmcvMTk5OS8wMi8yMi1yZGYtc3ludGF4LW5zIyIgeG1sbnM6c3ZnPSJodHRwOi8vd3d3LnczLm9yZy8yMDAwL3N2ZyIgeG1sbnM9Imh0dHA6Ly93d3cudzMub3JnLzIwMDAvc3ZnIiB4bWxuczpzb2RpcG9kaT0iaHR0cDovL3NvZGlwb2RpLnNvdXJjZWZvcmdlLm5ldC9EVEQvc29kaXBvZGktMC5kdGQiIHhtbG5zOmlua3NjYXBlPSJodHRwOi8vd3d3Lmlua3NjYXBlLm9yZy9uYW1lc3BhY2VzL2lua3NjYXBlIiB3aWR0aD0iMTguMDM1MzM0bW0iIGhlaWdodD0iMTcuNTAwMzc4bW0iIHZpZXdCb3g9IjAgMCAxOC4wMzUzMzQgMTcuNTAwMzc4IiB2ZXJzaW9uPSIxLjEiIGlkPSJzdmcxMzgyNiIgaW5rc2NhcGU6dmVyc2lvbj0iMC45MSByMTM3MjUiIHNvZGlwb2RpOmRvY25hbWU9InN2Yy5zdmciPiYjeGE7ICA8ZGVmcyBpZD0iZGVmczEzODIwIi8+JiN4YTsgIDxzb2RpcG9kaTpuYW1lZHZpZXcgaWQ9ImJhc2UiIHBhZ2Vjb2xvcj0iI2ZmZmZmZiIgYm9yZGVyY29sb3I9IiM2NjY2NjYiIGJvcmRlcm9wYWNpdHk9IjEuMCIgaW5rc2NhcGU6cGFnZW9wYWNpdHk9IjAuMCIgaW5rc2NhcGU6cGFnZXNoYWRvdz0iMiIgaW5rc2NhcGU6em9vbT0iOCIgaW5rc2NhcGU6Y3g9IjE2Ljg0NzQ5NiIgaW5rc2NhcGU6Y3k9IjI4Ljc1MjIzOSIgaW5rc2NhcGU6ZG9jdW1lbnQtdW5pdHM9Im1tIiBpbmtzY2FwZTpjdXJyZW50LWxheWVyPSJsYXllcjEiIHNob3dncmlkPSJmYWxzZSIgaW5rc2NhcGU6d2luZG93LXdpZHRoPSIxNDQwIiBpbmtzY2FwZTp3aW5kb3ctaGVpZ2h0PSI3NzUiIGlua3NjYXBlOndpbmRvdy14PSIwIiBpbmtzY2FwZTp3aW5kb3cteT0iMSIgaW5rc2NhcGU6d2luZG93LW1heGltaXplZD0iMSIgZml0LW1hcmdpbi10b3A9IjAiIGZpdC1tYXJnaW4tbGVmdD0iMCIgZml0LW1hcmdpbi1yaWdodD0iMCIgZml0LW1hcmdpbi1ib3R0b209IjAiLz4mI3hhOyAgJiN4YTsgIDxnIGlua3NjYXBlOmxhYmVsPSJDYWxxdWUgMSIgaW5rc2NhcGU6Z3JvdXBtb2RlPSJsYXllciIgaWQ9ImxheWVyMSIgdHJhbnNmb3JtPSJ0cmFuc2xhdGUoLTAuOTkyNjI2MzgsLTEuMTc0MTgxKSI+JiN4YTsgICAgPGcgaWQ9Imc3MCIgdHJhbnNmb3JtPSJtYXRyaXgoMS4wMTQ4ODg3LDAsMCwxLjAxNDg4ODcsMTYuOTAyMTQ2LC0yLjY5ODcyNikiPiYjeGE7ICAgICAgPHBhdGggaW5rc2NhcGU6ZXhwb3J0LXlkcGk9IjI1MC41NSIgaW5rc2NhcGU6ZXhwb3J0LXhkcGk9IjI1MC41NSIgaW5rc2NhcGU6ZXhwb3J0LWZpbGVuYW1lPSJuZXcucG5nIiBpbmtzY2FwZTpjb25uZWN0b3ItY3VydmF0dXJlPSIwIiBpZD0icGF0aDMwNTUiIGQ9Im0gLTYuODQ5MjAxNSw0LjI3MjQ2NjggYSAxLjExOTEyNTUsMS4xMDk5NjcxIDAgMCAwIC0wLjQyODg4MTgsMC4xMDg1MzAzIGwgLTUuODUyNDAzNywyLjc5NjMzOTQgYSAxLjExOTEyNTUsMS4xMDk5NjcxIDAgMCAwIC0wLjYwNTUyNCwwLjc1Mjk3NTkgbCAtMS40NDM4MjgsNi4yODEyODQ2IGEgMS4xMTkxMjU1LDEuMTA5OTY3MSAwIDAgMCAwLjE1MTk0MywwLjg1MTAyOCAxLjExOTEyNTUsMS4xMDk5NjcxIDAgMCAwIDAuMDYzNjIsMC4wODgzMiBsIDQuMDUwOCw1LjAzNjU1NSBhIDEuMTE5MTI1NSwxLjEwOTk2NzEgMCAwIDAgMC44NzQ5NzksMC40MTc2NTQgbCA2LjQ5NjEwMTEsLTAuMDAxNSBhIDEuMTE5MTI1NSwxLjEwOTk2NzEgMCAwIDAgMC44NzQ5Nzg4LC0wLjQxNjkwNiBMIDEuMzgxODg3MiwxNS4xNDk0NTMgQSAxLjExOTEyNTUsMS4xMDk5NjcxIDAgMCAwIDEuNTk4MTk4NiwxNC4yMTAxMDQgTCAwLjE1MjEyNjU3LDcuOTI4ODE1NCBBIDEuMTE5MTI1NSwxLjEwOTk2NzEgMCAwIDAgLTAuNDUzMzk3OTQsNy4xNzU4Mzk2IEwgLTYuMzA2NTQ5Niw0LjM4MDk5NzEgQSAxLjExOTEyNTUsMS4xMDk5NjcxIDAgMCAwIC02Ljg0OTIwMTUsNC4yNzI0NjY4IFoiIHN0eWxlPSJmaWxsOiMzMjZjZTU7ZmlsbC1vcGFjaXR5OjE7c3Ryb2tlOm5vbmU7c3Ryb2tlLXdpZHRoOjA7c3Ryb2tlLW1pdGVybGltaXQ6NDtzdHJva2UtZGFzaGFycmF5Om5vbmU7c3Ryb2tlLW9wYWNpdHk6MSIvPiYjeGE7ICAgICAgPHBhdGggaWQ9InBhdGgzMDU0LTItOSIgZD0iTSAtNi44NTIzNDM1LDMuODE3NjM3MiBBIDEuMTgxNDMwNCwxLjE3MTc2MiAwIDAgMCAtNy4zMDQ0Mjg0LDMuOTMyOTA0IGwgLTYuMTc4NzQyNiwyLjk1MTI3NTggYSAxLjE4MTQzMDQsMS4xNzE3NjIgMCAwIDAgLTAuNjM5MjA2LDAuNzk0ODkxIGwgLTEuNTIzOTE1LDYuNjMwODI4MiBhIDEuMTgxNDMwNCwxLjE3MTc2MiAwIDAgMCAwLjE2MDE3NSwwLjg5ODkzIDEuMTgxNDMwNCwxLjE3MTc2MiAwIDAgMCAwLjA2NzM2LDAuMDkyODEgbCA0LjI3NjA5NCw1LjMxNzIzNiBhIDEuMTgxNDMwNCwxLjE3MTc2MiAwIDAgMCAwLjkyMzYzLDAuNDQwODU4IGwgNi44NTc2MTg4LC0wLjAwMTUgYSAxLjE4MTQzMDQsMS4xNzE3NjIgMCAwIDAgMC45MjM2MzA4LC0wLjQ0MDExIGwgNC4yNzQ1OTY2LC01LjMxNzk4NSBhIDEuMTgxNDMwNCwxLjE3MTc2MiAwIDAgMCAwLjIyODI4OCwtMC45OTA5OTMgTCAwLjUzODk0NDM5LDcuNjc3NTczOCBBIDEuMTgxNDMwNCwxLjE3MTc2MiAwIDAgMCAtMC4xMDAyNjEwMSw2Ljg4MzQzMTMgTCAtNi4yNzkwMDM3LDMuOTMyMTU1NSBBIDEuMTgxNDMwNCwxLjE3MTc2MiAwIDAgMCAtNi44NTIzNDM1LDMuODE3NjM3MiBaIG0gMC4wMDI5OSwwLjQ1NTA3ODkgYSAxLjExOTEyNTUsMS4xMDk5NjcxIDAgMCAxIDAuNTQyNjUxNywwLjEwODUzMDMgbCA1Ljg1MzE1MTY5LDIuNzk0ODQyNSBBIDEuMTE5MTI1NSwxLjEwOTk2NzEgMCAwIDEgMC4xNTE5NzgxMSw3LjkyOTA2NDggTCAxLjU5ODA1MSwxNC4yMTAzNSBhIDEuMTE5MTI1NSwxLjEwOTk2NzEgMCAwIDEgLTAuMjE2MzEyMywwLjkzOTM0OCBsIC00LjA0OTMwMzIsNS4wMzczMDQgYSAxLjExOTEyNTUsMS4xMDk5NjcxIDAgMCAxIC0wLjg3NDk3ODksMC40MTY5MDYgbCAtNi40OTYxMDA2LDAuMDAxNSBhIDEuMTE5MTI1NSwxLjEwOTk2NzEgMCAwIDEgLTAuODc0OTc5LC0wLjQxNzY1MiBsIC00LjA1MDgsLTUuMDM2NTU0IGEgMS4xMTkxMjU1LDEuMTA5OTY3MSAwIDAgMSAtMC4wNjM2MiwtMC4wODgzMiAxLjExOTEyNTUsMS4xMDk5NjcxIDAgMCAxIC0wLjE1MTk0MiwtMC44NTEwMjggbCAxLjQ0MzgyNywtNi4yODEyODUzIGEgMS4xMTkxMjU1LDEuMTA5OTY3MSAwIDAgMSAwLjYwNTUyNCwtMC43NTI5NzU4IGwgNS44NTI0MDM2LC0yLjc5NjMzOTUgYSAxLjExOTEyNTUsMS4xMDk5NjcxIDAgMCAxIDAuNDI4ODgxOSwtMC4xMDg1MzAzIHoiIHN0eWxlPSJjb2xvcjojMDAwMDAwO2ZvbnQtc3R5bGU6bm9ybWFsO2ZvbnQtdmFyaWFudDpub3JtYWw7Zm9udC13ZWlnaHQ6bm9ybWFsO2ZvbnQtc3RyZXRjaDpub3JtYWw7Zm9udC1zaXplOm1lZGl1bTtsaW5lLWhlaWdodDpub3JtYWw7Zm9udC1mYW1pbHk6U2FuczstaW5rc2NhcGUtZm9udC1zcGVjaWZpY2F0aW9uOlNhbnM7dGV4dC1pbmRlbnQ6MDt0ZXh0LWFsaWduOnN0YXJ0O3RleHQtZGVjb3JhdGlvbjpub25lO3RleHQtZGVjb3JhdGlvbi1saW5lOm5vbmU7bGV0dGVyLXNwYWNpbmc6bm9ybWFsO3dvcmQtc3BhY2luZzpub3JtYWw7dGV4dC10cmFuc2Zvcm06bm9uZTt3cml0aW5nLW1vZGU6bHItdGI7ZGlyZWN0aW9uOmx0cjtiYXNlbGluZS1zaGlmdDpiYXNlbGluZTt0ZXh0LWFuY2hvcjpzdGFydDtkaXNwbGF5OmlubGluZTtvdmVyZmxvdzp2aXNpYmxlO3Zpc2liaWxpdHk6dmlzaWJsZTtmaWxsOiNmZmZmZmY7ZmlsbC1vcGFjaXR5OjE7ZmlsbC1ydWxlOm5vbnplcm87c3Ryb2tlOm5vbmU7c3Ryb2tlLXdpZHRoOjA7c3Ryb2tlLW1pdGVybGltaXQ6NDtzdHJva2UtZGFzaGFycmF5Om5vbmU7bWFya2VyOm5vbmU7ZW5hYmxlLWJhY2tncm91bmQ6YWNjdW11bGF0ZSIgaW5rc2NhcGU6Y29ubmVjdG9yLWN1cnZhdHVyZT0iMCIvPiYjeGE7ICAgIDwvZz4mI3hhOyAgICA8dGV4dCBpZD0idGV4dDIwNjYiIHk9IjE2LjgxMTc3NSIgeD0iOS45Nzk5NzY3IiBzdHlsZT0iZm9udC1zdHlsZTpub3JtYWw7Zm9udC13ZWlnaHQ6bm9ybWFsO2ZvbnQtc2l6ZToxMC41ODMzMzMwMnB4O2xpbmUtaGVpZ2h0OjYuNjE0NTgzNDlweDtmb250LWZhbWlseTpTYW5zO2xldHRlci1zcGFjaW5nOjBweDt3b3JkLXNwYWNpbmc6MHB4O2ZpbGw6I2ZmZmZmZjtmaWxsLW9wYWNpdHk6MTtzdHJva2U6bm9uZTtzdHJva2Utd2lkdGg6MC4yNjQ1ODMzMnB4O3N0cm9rZS1saW5lY2FwOmJ1dHQ7c3Ryb2tlLWxpbmVqb2luOm1pdGVyO3N0cm9rZS1vcGFjaXR5OjEiIHhtbDpzcGFjZT0icHJlc2VydmUiPjx0c3BhbiBzdHlsZT0iZm9udC1zdHlsZTpub3JtYWw7Zm9udC12YXJpYW50Om5vcm1hbDtmb250LXdlaWdodDpub3JtYWw7Zm9udC1zdHJldGNoOm5vcm1hbDtmb250LXNpemU6Mi44MjIyMjIyM3B4O2ZvbnQtZmFtaWx5OkFyaWFsOy1pbmtzY2FwZS1mb250LXNwZWNpZmljYXRpb246J0FyaWFsLCBOb3JtYWwnO3RleHQtYWxpZ246Y2VudGVyO3dyaXRpbmctbW9kZTpsci10Yjt0ZXh0LWFuY2hvcjptaWRkbGU7ZmlsbDojZmZmZmZmO2ZpbGwtb3BhY2l0eToxO3N0cm9rZS13aWR0aDowLjI2NDU4MzMycHgiIHk9IjE2LjgxMTc3NSIgeD0iOS45Nzk5NzY3IiBpZD0idHNwYW4yMDY0IiBzb2RpcG9kaTpyb2xlPSJsaW5lIj5zdmM8L3RzcGFuPjwvdGV4dD4mI3hhOyAgICA8ZyBpZD0iZzMzNDUiIHRyYW5zZm9ybT0idHJhbnNsYXRlKDAuMDkyMzg4MDEsMCkiPiYjeGE7ICAgICAgPHBhdGggc3R5bGU9ImZpbGw6I2ZmZmZmZjtmaWxsLXJ1bGU6ZXZlbm9kZDtzdHJva2U6bm9uZTtzdHJva2Utd2lkdGg6MC4yNjQ1ODMzMjtzdHJva2UtbGluZWNhcDpzcXVhcmU7c3Ryb2tlLW1pdGVybGltaXQ6MTAiIGlua3NjYXBlOmNvbm5lY3Rvci1jdXJ2YXR1cmU9IjAiIGQ9Im0gNC40OTQ5ODk2LDExLjI2MDgyNiAyLjkwODMzMTEsMCAwLDIuMDQxNjY3IC0yLjkwODMzMTEsMCB6IiBpZD0icGF0aDk2NCIvPiYjeGE7ICAgICAgPHBhdGggc3R5bGU9ImZpbGw6I2ZmZmZmZjtmaWxsLXJ1bGU6ZXZlbm9kZDtzdHJva2U6bm9uZTtzdHJva2Utd2lkdGg6MC4yNjQ1ODMzMjtzdHJva2UtbGluZWNhcDpzcXVhcmU7c3Ryb2tlLW1pdGVybGltaXQ6MTAiIGlua3NjYXBlOmNvbm5lY3Rvci1jdXJ2YXR1cmU9IjAiIGQ9Im0gOC40NjM3NDA3LDExLjI2MDgyNiAyLjkwODMzMDMsMCAwLDIuMDQxNjY3IC0yLjkwODMzMDMsMCB6IiBpZD0icGF0aDk2NiIvPiYjeGE7ICAgICAgPHBhdGggc3R5bGU9ImZpbGw6I2ZmZmZmZjtmaWxsLXJ1bGU6ZXZlbm9kZDtzdHJva2U6bm9uZTtzdHJva2Utd2lkdGg6MC4yNjQ1ODMzMjtzdHJva2UtbGluZWNhcDpzcXVhcmU7c3Ryb2tlLW1pdGVybGltaXQ6MTAiIGlua3NjYXBlOmNvbm5lY3Rvci1jdXJ2YXR1cmU9IjAiIGQ9Im0gMTIuNDMyNDkxLDExLjI2MDgyNiAyLjkwODMzLDAgMCwyLjA0MTY2NyAtMi45MDgzMywwIHoiIGlkPSJwYXRoOTY4Ii8+JiN4YTsgICAgICA8cGF0aCBzdHlsZT0iZmlsbDojZmZmZmZmO2ZpbGwtcnVsZTpldmVub2RkO3N0cm9rZTpub25lO3N0cm9rZS13aWR0aDowLjI2NDU4MzMyO3N0cm9rZS1saW5lY2FwOnNxdWFyZTtzdHJva2UtbWl0ZXJsaW1pdDoxMCIgaW5rc2NhcGU6Y29ubmVjdG9yLWN1cnZhdHVyZT0iMCIgZD0ibSA3LjYxMzc0MDcsNS4yMDgyOTIxIDQuNjA4MzMwMywwIDAsMi4wNDE2NjcgLTQuNjA4MzMwMywwIHoiIGlkPSJwYXRoOTcwIi8+JiN4YTsgICAgICA8cGF0aCBzdHlsZT0iZmlsbDpub25lO2ZpbGwtcnVsZTpldmVub2RkO3N0cm9rZTojZmZmZmZmO3N0cm9rZS13aWR0aDowLjUyOTE2NjY0O3N0cm9rZS1saW5lY2FwOmJ1dHQ7c3Ryb2tlLWxpbmVqb2luOnJvdW5kO3N0cm9rZS1taXRlcmxpbWl0OjEwO3N0cm9rZS1vcGFjaXR5OjEiIGlua3NjYXBlOmNvbm5lY3Rvci1jdXJ2YXR1cmU9IjAiIGQ9Im0gOS45MTc5MDA1LDcuMjQ5OTYwMSAwLDIuMDA1NDQ5IC0zLjk2NjY3MSwwIDAsMi4wMDI4ODU5IiBpZD0icGF0aDk3OCIvPiYjeGE7ICAgICAgPHBhdGggc3R5bGU9ImZpbGw6bm9uZTtmaWxsLXJ1bGU6ZXZlbm9kZDtzdHJva2U6I2ZmZmZmZjtzdHJva2Utd2lkdGg6MC41Mjg5OTk5ODtzdHJva2UtbGluZWNhcDpidXR0O3N0cm9rZS1saW5lam9pbjpyb3VuZDtzdHJva2UtbWl0ZXJsaW1pdDoxMDtzdHJva2UtZGFzaGFycmF5Om5vbmU7c3Ryb2tlLW9wYWNpdHk6MSIgaW5rc2NhcGU6Y29ubmVjdG9yLWN1cnZhdHVyZT0iMCIgZD0ibSA5LjkxNzkwMDUsNy4yNDk5NjAxIDAsMi4wMDU0NDkgMy45NjY2NzA1LDAgMCwyLjAwMjg4NTkiIGlkPSJwYXRoOTg2Ii8+JiN4YTsgICAgICA8cGF0aCBzdHlsZT0iZmlsbDpub25lO2ZpbGwtcnVsZTpldmVub2RkO3N0cm9rZTojZmZmZmZmO3N0cm9rZS13aWR0aDowLjUyOTE2NjY0O3N0cm9rZS1saW5lY2FwOmJ1dHQ7c3Ryb2tlLWxpbmVqb2luOnJvdW5kO3N0cm9rZS1taXRlcmxpbWl0OjEwO3N0cm9rZS1vcGFjaXR5OjEiIGlua3NjYXBlOmNvbm5lY3Rvci1jdXJ2YXR1cmU9IjAiIGQ9Im0gOS45MDk1NTM4LDcuMjUxMjI1MSAwLDIuMDA1NDQ5IDAuMDE2NywwIDAsMi4wMDI4ODU5IiBpZD0icGF0aDk4MiIvPiYjeGE7ICAgIDwvZz4mI3hhOyAgPC9nPiYjeGE7PC9zdmc+;" vertex="1" parent="1">
          <mxGeometry x="220" y="126" width="48" height="48" as="geometry" />
        </mxCell>
        <mxCell id="8zcdvciyAg1Ix1c_pIfZ-12" style="edgeStyle=orthogonalEdgeStyle;rounded=0;orthogonalLoop=1;jettySize=auto;html=1;entryX=0;entryY=0.5;entryDx=0;entryDy=0;" edge="1" parent="1" source="8zcdvciyAg1Ix1c_pIfZ-6" target="8zcdvciyAg1Ix1c_pIfZ-11">
          <mxGeometry relative="1" as="geometry" />
        </mxCell>
        <mxCell id="8zcdvciyAg1Ix1c_pIfZ-44" style="edgeStyle=orthogonalEdgeStyle;rounded=0;orthogonalLoop=1;jettySize=auto;html=1;entryX=1;entryY=0.5;entryDx=0;entryDy=0;" edge="1" parent="1" source="8zcdvciyAg1Ix1c_pIfZ-6" target="8zcdvciyAg1Ix1c_pIfZ-28">
          <mxGeometry relative="1" as="geometry" />
        </mxCell>
        <mxCell id="8zcdvciyAg1Ix1c_pIfZ-6" value="gateway API&#xa;controller" style="shape=image;verticalLabelPosition=bottom;verticalAlign=top;imageAspect=0;aspect=fixed;image=data:image/svg+xml,PHN2ZyB4bWxuczpkYz0iaHR0cDovL3B1cmwub3JnL2RjL2VsZW1lbnRzLzEuMS8iIHhtbG5zOmNjPSJodHRwOi8vY3JlYXRpdmVjb21tb25zLm9yZy9ucyMiIHhtbG5zOnJkZj0iaHR0cDovL3d3dy53My5vcmcvMTk5OS8wMi8yMi1yZGYtc3ludGF4LW5zIyIgeG1sbnM6c3ZnPSJodHRwOi8vd3d3LnczLm9yZy8yMDAwL3N2ZyIgeG1sbnM9Imh0dHA6Ly93d3cudzMub3JnLzIwMDAvc3ZnIiB4bWxuczpzb2RpcG9kaT0iaHR0cDovL3NvZGlwb2RpLnNvdXJjZWZvcmdlLm5ldC9EVEQvc29kaXBvZGktMC5kdGQiIHhtbG5zOmlua3NjYXBlPSJodHRwOi8vd3d3Lmlua3NjYXBlLm9yZy9uYW1lc3BhY2VzL2lua3NjYXBlIiB3aWR0aD0iMTguMDM1MzM0bW0iIGhlaWdodD0iMTcuNTAwMzc4bW0iIHZpZXdCb3g9IjAgMCAxOC4wMzUzMzQgMTcuNTAwMzc4IiB2ZXJzaW9uPSIxLjEiIGlkPSJzdmcxMzgyNiIgaW5rc2NhcGU6dmVyc2lvbj0iMC45MSByMTM3MjUiIHNvZGlwb2RpOmRvY25hbWU9ImRlcGxveS5zdmciPiYjeGE7ICA8ZGVmcyBpZD0iZGVmczEzODIwIi8+JiN4YTsgIDxzb2RpcG9kaTpuYW1lZHZpZXcgaWQ9ImJhc2UiIHBhZ2Vjb2xvcj0iI2ZmZmZmZiIgYm9yZGVyY29sb3I9IiM2NjY2NjYiIGJvcmRlcm9wYWNpdHk9IjEuMCIgaW5rc2NhcGU6cGFnZW9wYWNpdHk9IjAuMCIgaW5rc2NhcGU6cGFnZXNoYWRvdz0iMiIgaW5rc2NhcGU6em9vbT0iOCIgaW5rc2NhcGU6Y3g9IjYuODQ3NDk2IiBpbmtzY2FwZTpjeT0iMzMuNzUyMjM5IiBpbmtzY2FwZTpkb2N1bWVudC11bml0cz0ibW0iIGlua3NjYXBlOmN1cnJlbnQtbGF5ZXI9ImxheWVyMSIgc2hvd2dyaWQ9ImZhbHNlIiBpbmtzY2FwZTp3aW5kb3ctd2lkdGg9IjE0NDAiIGlua3NjYXBlOndpbmRvdy1oZWlnaHQ9Ijc3NSIgaW5rc2NhcGU6d2luZG93LXg9IjAiIGlua3NjYXBlOndpbmRvdy15PSIxIiBpbmtzY2FwZTp3aW5kb3ctbWF4aW1pemVkPSIxIiBmaXQtbWFyZ2luLXRvcD0iMCIgZml0LW1hcmdpbi1sZWZ0PSIwIiBmaXQtbWFyZ2luLXJpZ2h0PSIwIiBmaXQtbWFyZ2luLWJvdHRvbT0iMCIvPiYjeGE7ICAmI3hhOyAgPGcgaW5rc2NhcGU6bGFiZWw9IkNhbHF1ZSAxIiBpbmtzY2FwZTpncm91cG1vZGU9ImxheWVyIiBpZD0ibGF5ZXIxIiB0cmFuc2Zvcm09InRyYW5zbGF0ZSgtMC45OTI2MjYzOCwtMS4xNzQxODEpIj4mI3hhOyAgICA8ZyBpZD0iZzcwIiB0cmFuc2Zvcm09Im1hdHJpeCgxLjAxNDg4ODcsMCwwLDEuMDE0ODg4NywxNi45MDIxNDYsLTIuNjk4NzI2KSI+JiN4YTsgICAgICA8cGF0aCBpbmtzY2FwZTpleHBvcnQteWRwaT0iMjUwLjU1IiBpbmtzY2FwZTpleHBvcnQteGRwaT0iMjUwLjU1IiBpbmtzY2FwZTpleHBvcnQtZmlsZW5hbWU9Im5ldy5wbmciIGlua3NjYXBlOmNvbm5lY3Rvci1jdXJ2YXR1cmU9IjAiIGlkPSJwYXRoMzA1NSIgZD0ibSAtNi44NDkyMDE1LDQuMjcyNDY2OCBhIDEuMTE5MTI1NSwxLjEwOTk2NzEgMCAwIDAgLTAuNDI4ODgxOCwwLjEwODUzMDMgbCAtNS44NTI0MDM3LDIuNzk2MzM5NCBhIDEuMTE5MTI1NSwxLjEwOTk2NzEgMCAwIDAgLTAuNjA1NTI0LDAuNzUyOTc1OSBsIC0xLjQ0MzgyOCw2LjI4MTI4NDYgYSAxLjExOTEyNTUsMS4xMDk5NjcxIDAgMCAwIDAuMTUxOTQzLDAuODUxMDI4IDEuMTE5MTI1NSwxLjEwOTk2NzEgMCAwIDAgMC4wNjM2MiwwLjA4ODMyIGwgNC4wNTA4LDUuMDM2NTU1IGEgMS4xMTkxMjU1LDEuMTA5OTY3MSAwIDAgMCAwLjg3NDk3OSwwLjQxNzY1NCBsIDYuNDk2MTAxMSwtMC4wMDE1IGEgMS4xMTkxMjU1LDEuMTA5OTY3MSAwIDAgMCAwLjg3NDk3ODgsLTAuNDE2OTA2IEwgMS4zODE4ODcyLDE1LjE0OTQ1MyBBIDEuMTE5MTI1NSwxLjEwOTk2NzEgMCAwIDAgMS41OTgxOTg2LDE0LjIxMDEwNCBMIDAuMTUyMTI2NTcsNy45Mjg4MTU0IEEgMS4xMTkxMjU1LDEuMTA5OTY3MSAwIDAgMCAtMC40NTMzOTc5NCw3LjE3NTgzOTYgTCAtNi4zMDY1NDk2LDQuMzgwOTk3MSBBIDEuMTE5MTI1NSwxLjEwOTk2NzEgMCAwIDAgLTYuODQ5MjAxNSw0LjI3MjQ2NjggWiIgc3R5bGU9ImZpbGw6IzMyNmNlNTtmaWxsLW9wYWNpdHk6MTtzdHJva2U6bm9uZTtzdHJva2Utd2lkdGg6MDtzdHJva2UtbWl0ZXJsaW1pdDo0O3N0cm9rZS1kYXNoYXJyYXk6bm9uZTtzdHJva2Utb3BhY2l0eToxIi8+JiN4YTsgICAgICA8cGF0aCBpZD0icGF0aDMwNTQtMi05IiBkPSJNIC02Ljg1MjM0MzUsMy44MTc2MzcyIEEgMS4xODE0MzA0LDEuMTcxNzYyIDAgMCAwIC03LjMwNDQyODQsMy45MzI5MDQgbCAtNi4xNzg3NDI2LDIuOTUxMjc1OCBhIDEuMTgxNDMwNCwxLjE3MTc2MiAwIDAgMCAtMC42MzkyMDYsMC43OTQ4OTEgbCAtMS41MjM5MTUsNi42MzA4MjgyIGEgMS4xODE0MzA0LDEuMTcxNzYyIDAgMCAwIDAuMTYwMTc1LDAuODk4OTMgMS4xODE0MzA0LDEuMTcxNzYyIDAgMCAwIDAuMDY3MzYsMC4wOTI4MSBsIDQuMjc2MDk0LDUuMzE3MjM2IGEgMS4xODE0MzA0LDEuMTcxNzYyIDAgMCAwIDAuOTIzNjMsMC40NDA4NTggbCA2Ljg1NzYxODgsLTAuMDAxNSBhIDEuMTgxNDMwNCwxLjE3MTc2MiAwIDAgMCAwLjkyMzYzMDgsLTAuNDQwMTEgbCA0LjI3NDU5NjYsLTUuMzE3OTg1IGEgMS4xODE0MzA0LDEuMTcxNzYyIDAgMCAwIDAuMjI4Mjg4LC0wLjk5MDk5MyBMIDAuNTM4OTQ0MzksNy42Nzc1NzM4IEEgMS4xODE0MzA0LDEuMTcxNzYyIDAgMCAwIC0wLjEwMDI2MTAxLDYuODgzNDMxMyBMIC02LjI3OTAwMzcsMy45MzIxNTU1IEEgMS4xODE0MzA0LDEuMTcxNzYyIDAgMCAwIC02Ljg1MjM0MzUsMy44MTc2MzcyIFogbSAwLjAwMjk5LDAuNDU1MDc4OSBhIDEuMTE5MTI1NSwxLjEwOTk2NzEgMCAwIDEgMC41NDI2NTE3LDAuMTA4NTMwMyBsIDUuODUzMTUxNjksMi43OTQ4NDI1IEEgMS4xMTkxMjU1LDEuMTA5OTY3MSAwIDAgMSAwLjE1MTk3ODExLDcuOTI5MDY0OCBMIDEuNTk4MDUxLDE0LjIxMDM1IGEgMS4xMTkxMjU1LDEuMTA5OTY3MSAwIDAgMSAtMC4yMTYzMTIzLDAuOTM5MzQ4IGwgLTQuMDQ5MzAzMiw1LjAzNzMwNCBhIDEuMTE5MTI1NSwxLjEwOTk2NzEgMCAwIDEgLTAuODc0OTc4OSwwLjQxNjkwNiBsIC02LjQ5NjEwMDYsMC4wMDE1IGEgMS4xMTkxMjU1LDEuMTA5OTY3MSAwIDAgMSAtMC44NzQ5NzksLTAuNDE3NjUyIGwgLTQuMDUwOCwtNS4wMzY1NTQgYSAxLjExOTEyNTUsMS4xMDk5NjcxIDAgMCAxIC0wLjA2MzYyLC0wLjA4ODMyIDEuMTE5MTI1NSwxLjEwOTk2NzEgMCAwIDEgLTAuMTUxOTQyLC0wLjg1MTAyOCBsIDEuNDQzODI3LC02LjI4MTI4NTMgYSAxLjExOTEyNTUsMS4xMDk5NjcxIDAgMCAxIDAuNjA1NTI0LC0wLjc1Mjk3NTggbCA1Ljg1MjQwMzYsLTIuNzk2MzM5NSBhIDEuMTE5MTI1NSwxLjEwOTk2NzEgMCAwIDEgMC40Mjg4ODE5LC0wLjEwODUzMDMgeiIgc3R5bGU9ImNvbG9yOiMwMDAwMDA7Zm9udC1zdHlsZTpub3JtYWw7Zm9udC12YXJpYW50Om5vcm1hbDtmb250LXdlaWdodDpub3JtYWw7Zm9udC1zdHJldGNoOm5vcm1hbDtmb250LXNpemU6bWVkaXVtO2xpbmUtaGVpZ2h0Om5vcm1hbDtmb250LWZhbWlseTpTYW5zOy1pbmtzY2FwZS1mb250LXNwZWNpZmljYXRpb246U2Fuczt0ZXh0LWluZGVudDowO3RleHQtYWxpZ246c3RhcnQ7dGV4dC1kZWNvcmF0aW9uOm5vbmU7dGV4dC1kZWNvcmF0aW9uLWxpbmU6bm9uZTtsZXR0ZXItc3BhY2luZzpub3JtYWw7d29yZC1zcGFjaW5nOm5vcm1hbDt0ZXh0LXRyYW5zZm9ybTpub25lO3dyaXRpbmctbW9kZTpsci10YjtkaXJlY3Rpb246bHRyO2Jhc2VsaW5lLXNoaWZ0OmJhc2VsaW5lO3RleHQtYW5jaG9yOnN0YXJ0O2Rpc3BsYXk6aW5saW5lO292ZXJmbG93OnZpc2libGU7dmlzaWJpbGl0eTp2aXNpYmxlO2ZpbGw6I2ZmZmZmZjtmaWxsLW9wYWNpdHk6MTtmaWxsLXJ1bGU6bm9uemVybztzdHJva2U6bm9uZTtzdHJva2Utd2lkdGg6MDtzdHJva2UtbWl0ZXJsaW1pdDo0O3N0cm9rZS1kYXNoYXJyYXk6bm9uZTttYXJrZXI6bm9uZTtlbmFibGUtYmFja2dyb3VuZDphY2N1bXVsYXRlIiBpbmtzY2FwZTpjb25uZWN0b3ItY3VydmF0dXJlPSIwIi8+JiN4YTsgICAgPC9nPiYjeGE7ICAgIDx0ZXh0IGlkPSJ0ZXh0MjA2NiIgeT0iMTYuODExNzc1IiB4PSI5Ljk3NDQ2NDQiIHN0eWxlPSJmb250LXN0eWxlOm5vcm1hbDtmb250LXdlaWdodDpub3JtYWw7Zm9udC1zaXplOjEwLjU4MzMzMzAycHg7bGluZS1oZWlnaHQ6Ni42MTQ1ODM0OXB4O2ZvbnQtZmFtaWx5OlNhbnM7bGV0dGVyLXNwYWNpbmc6MHB4O3dvcmQtc3BhY2luZzowcHg7ZmlsbDojZmZmZmZmO2ZpbGwtb3BhY2l0eToxO3N0cm9rZTpub25lO3N0cm9rZS13aWR0aDowLjI2NDU4MzMycHg7c3Ryb2tlLWxpbmVjYXA6YnV0dDtzdHJva2UtbGluZWpvaW46bWl0ZXI7c3Ryb2tlLW9wYWNpdHk6MSIgeG1sOnNwYWNlPSJwcmVzZXJ2ZSI+PHRzcGFuIHN0eWxlPSJmb250LXN0eWxlOm5vcm1hbDtmb250LXZhcmlhbnQ6bm9ybWFsO2ZvbnQtd2VpZ2h0Om5vcm1hbDtmb250LXN0cmV0Y2g6bm9ybWFsO2ZvbnQtc2l6ZToyLjgyMjIyMjIzcHg7Zm9udC1mYW1pbHk6QXJpYWw7LWlua3NjYXBlLWZvbnQtc3BlY2lmaWNhdGlvbjonQXJpYWwsIE5vcm1hbCc7dGV4dC1hbGlnbjpjZW50ZXI7d3JpdGluZy1tb2RlOmxyLXRiO3RleHQtYW5jaG9yOm1pZGRsZTtmaWxsOiNmZmZmZmY7ZmlsbC1vcGFjaXR5OjE7c3Ryb2tlLXdpZHRoOjAuMjY0NTgzMzJweCIgeT0iMTYuODExNzc1IiB4PSI5Ljk3NDQ2NDQiIGlkPSJ0c3BhbjIwNjQiIHNvZGlwb2RpOnJvbGU9ImxpbmUiPmRlcGxveTwvdHNwYW4+PC90ZXh0PiYjeGE7ICAgIDxnIGlkPSJnMzM0MCIgdHJhbnNmb3JtPSJ0cmFuc2xhdGUoLTAuNjUzODU1NDYsMCkiPiYjeGE7ICAgICAgPHBhdGggc3R5bGU9ImZpbGw6I2ZmZmZmZjtmaWxsLXJ1bGU6ZXZlbm9kZDtzdHJva2U6bm9uZTtzdHJva2Utd2lkdGg6MC4yNjQ1ODMzMjtzdHJva2UtbGluZWNhcDpzcXVhcmU7c3Ryb2tlLW1pdGVybGltaXQ6MTAiIGlua3NjYXBlOmNvbm5lY3Rvci1jdXJ2YXR1cmU9IjAiIGQ9Im0gMTAuMjI1MDYyLDEzLjczMTYzMiAwLDAgQyA3Ljc4MjQyMTgsMTMuODQ3MTc3IDUuNzA1MDExNiwxMS45NjgzODYgNS41NzUzNDE3LDkuNTI2NDYzNCA1LjQ0NTY1MTYsNy4wODQ1NDA1IDcuMzEyNDAxOCw0Ljk5NjI5MDUgOS43NTM1MzE4LDQuODUyNDc5NSBjIDIuNDQxMTIwMiwtMC4xNDM4MTEgNC41NDAxNDEyLDEuNzEwODEgNC42OTgwODEyLDQuMTUxMDY4MiBsIC0xLjc1NzA4MSwwLjExMzcyMDggYyAtMC4wOTU0LC0xLjQ3MzgxOCAtMS4zNjMxMSwtMi41OTM5MzUgLTIuODM3NDYwMiwtMi41MDcwOCAtMS40NzQzNCwwLjA4Njg2IC0yLjYwMTc4LDEuMzQ4MDc2MSAtMi41MjM0NiwyLjgyMjg5OTEgMC4wNzgzLDEuNDc0ODIyNCAxLjMzMywyLjYwOTUzODQgMi44MDgyNTAyLDIuNTM5NzUzNCB6IiBpZD0icGF0aDEyMjIiLz4mI3hhOyAgICAgIDxwYXRoIHN0eWxlPSJmaWxsOiNmZmZmZmY7ZmlsbC1ydWxlOmV2ZW5vZGQ7c3Ryb2tlOm5vbmU7c3Ryb2tlLXdpZHRoOjAuMjY0NTgzMzI7c3Ryb2tlLWxpbmVjYXA6c3F1YXJlO3N0cm9rZS1taXRlcmxpbWl0OjEwIiBpbmtzY2FwZTpjb25uZWN0b3ItY3VydmF0dXJlPSIwIiBkPSJtIDExLjEzNTU3NCw5LjAwODgwMTUgMS4zOTc0NSwzLjQyMDUwODUgMy4yMjYzLC0zLjQyMDUwODUgeiIgaWQ9InBhdGgxMjI0Ii8+JiN4YTsgICAgPC9nPiYjeGE7ICA8L2c+JiN4YTs8L3N2Zz4=;" vertex="1" parent="1">
          <mxGeometry x="310" y="126" width="48" height="48" as="geometry" />
        </mxCell>
        <mxCell id="8zcdvciyAg1Ix1c_pIfZ-10" style="edgeStyle=orthogonalEdgeStyle;rounded=0;orthogonalLoop=1;jettySize=auto;html=1;entryX=0;entryY=0.5;entryDx=0;entryDy=0;" edge="1" parent="1" source="8zcdvciyAg1Ix1c_pIfZ-8" target="8zcdvciyAg1Ix1c_pIfZ-9">
          <mxGeometry relative="1" as="geometry" />
        </mxCell>
        <mxCell id="8zcdvciyAg1Ix1c_pIfZ-8" value="ingress svc" style="shape=image;verticalLabelPosition=bottom;verticalAlign=top;imageAspect=0;aspect=fixed;image=data:image/svg+xml,PHN2ZyB4bWxuczpkYz0iaHR0cDovL3B1cmwub3JnL2RjL2VsZW1lbnRzLzEuMS8iIHhtbG5zOmNjPSJodHRwOi8vY3JlYXRpdmVjb21tb25zLm9yZy9ucyMiIHhtbG5zOnJkZj0iaHR0cDovL3d3dy53My5vcmcvMTk5OS8wMi8yMi1yZGYtc3ludGF4LW5zIyIgeG1sbnM6c3ZnPSJodHRwOi8vd3d3LnczLm9yZy8yMDAwL3N2ZyIgeG1sbnM9Imh0dHA6Ly93d3cudzMub3JnLzIwMDAvc3ZnIiB4bWxuczpzb2RpcG9kaT0iaHR0cDovL3NvZGlwb2RpLnNvdXJjZWZvcmdlLm5ldC9EVEQvc29kaXBvZGktMC5kdGQiIHhtbG5zOmlua3NjYXBlPSJodHRwOi8vd3d3Lmlua3NjYXBlLm9yZy9uYW1lc3BhY2VzL2lua3NjYXBlIiB3aWR0aD0iMTguMDM1MzM0bW0iIGhlaWdodD0iMTcuNTAwMzc4bW0iIHZpZXdCb3g9IjAgMCAxOC4wMzUzMzQgMTcuNTAwMzc4IiB2ZXJzaW9uPSIxLjEiIGlkPSJzdmcxMzgyNiIgaW5rc2NhcGU6dmVyc2lvbj0iMC45MSByMTM3MjUiIHNvZGlwb2RpOmRvY25hbWU9InN2Yy5zdmciPiYjeGE7ICA8ZGVmcyBpZD0iZGVmczEzODIwIi8+JiN4YTsgIDxzb2RpcG9kaTpuYW1lZHZpZXcgaWQ9ImJhc2UiIHBhZ2Vjb2xvcj0iI2ZmZmZmZiIgYm9yZGVyY29sb3I9IiM2NjY2NjYiIGJvcmRlcm9wYWNpdHk9IjEuMCIgaW5rc2NhcGU6cGFnZW9wYWNpdHk9IjAuMCIgaW5rc2NhcGU6cGFnZXNoYWRvdz0iMiIgaW5rc2NhcGU6em9vbT0iOCIgaW5rc2NhcGU6Y3g9IjE2Ljg0NzQ5NiIgaW5rc2NhcGU6Y3k9IjI4Ljc1MjIzOSIgaW5rc2NhcGU6ZG9jdW1lbnQtdW5pdHM9Im1tIiBpbmtzY2FwZTpjdXJyZW50LWxheWVyPSJsYXllcjEiIHNob3dncmlkPSJmYWxzZSIgaW5rc2NhcGU6d2luZG93LXdpZHRoPSIxNDQwIiBpbmtzY2FwZTp3aW5kb3ctaGVpZ2h0PSI3NzUiIGlua3NjYXBlOndpbmRvdy14PSIwIiBpbmtzY2FwZTp3aW5kb3cteT0iMSIgaW5rc2NhcGU6d2luZG93LW1heGltaXplZD0iMSIgZml0LW1hcmdpbi10b3A9IjAiIGZpdC1tYXJnaW4tbGVmdD0iMCIgZml0LW1hcmdpbi1yaWdodD0iMCIgZml0LW1hcmdpbi1ib3R0b209IjAiLz4mI3hhOyAgJiN4YTsgIDxnIGlua3NjYXBlOmxhYmVsPSJDYWxxdWUgMSIgaW5rc2NhcGU6Z3JvdXBtb2RlPSJsYXllciIgaWQ9ImxheWVyMSIgdHJhbnNmb3JtPSJ0cmFuc2xhdGUoLTAuOTkyNjI2MzgsLTEuMTc0MTgxKSI+JiN4YTsgICAgPGcgaWQ9Imc3MCIgdHJhbnNmb3JtPSJtYXRyaXgoMS4wMTQ4ODg3LDAsMCwxLjAxNDg4ODcsMTYuOTAyMTQ2LC0yLjY5ODcyNikiPiYjeGE7ICAgICAgPHBhdGggaW5rc2NhcGU6ZXhwb3J0LXlkcGk9IjI1MC41NSIgaW5rc2NhcGU6ZXhwb3J0LXhkcGk9IjI1MC41NSIgaW5rc2NhcGU6ZXhwb3J0LWZpbGVuYW1lPSJuZXcucG5nIiBpbmtzY2FwZTpjb25uZWN0b3ItY3VydmF0dXJlPSIwIiBpZD0icGF0aDMwNTUiIGQ9Im0gLTYuODQ5MjAxNSw0LjI3MjQ2NjggYSAxLjExOTEyNTUsMS4xMDk5NjcxIDAgMCAwIC0wLjQyODg4MTgsMC4xMDg1MzAzIGwgLTUuODUyNDAzNywyLjc5NjMzOTQgYSAxLjExOTEyNTUsMS4xMDk5NjcxIDAgMCAwIC0wLjYwNTUyNCwwLjc1Mjk3NTkgbCAtMS40NDM4MjgsNi4yODEyODQ2IGEgMS4xMTkxMjU1LDEuMTA5OTY3MSAwIDAgMCAwLjE1MTk0MywwLjg1MTAyOCAxLjExOTEyNTUsMS4xMDk5NjcxIDAgMCAwIDAuMDYzNjIsMC4wODgzMiBsIDQuMDUwOCw1LjAzNjU1NSBhIDEuMTE5MTI1NSwxLjEwOTk2NzEgMCAwIDAgMC44NzQ5NzksMC40MTc2NTQgbCA2LjQ5NjEwMTEsLTAuMDAxNSBhIDEuMTE5MTI1NSwxLjEwOTk2NzEgMCAwIDAgMC44NzQ5Nzg4LC0wLjQxNjkwNiBMIDEuMzgxODg3MiwxNS4xNDk0NTMgQSAxLjExOTEyNTUsMS4xMDk5NjcxIDAgMCAwIDEuNTk4MTk4NiwxNC4yMTAxMDQgTCAwLjE1MjEyNjU3LDcuOTI4ODE1NCBBIDEuMTE5MTI1NSwxLjEwOTk2NzEgMCAwIDAgLTAuNDUzMzk3OTQsNy4xNzU4Mzk2IEwgLTYuMzA2NTQ5Niw0LjM4MDk5NzEgQSAxLjExOTEyNTUsMS4xMDk5NjcxIDAgMCAwIC02Ljg0OTIwMTUsNC4yNzI0NjY4IFoiIHN0eWxlPSJmaWxsOiMzMjZjZTU7ZmlsbC1vcGFjaXR5OjE7c3Ryb2tlOm5vbmU7c3Ryb2tlLXdpZHRoOjA7c3Ryb2tlLW1pdGVybGltaXQ6NDtzdHJva2UtZGFzaGFycmF5Om5vbmU7c3Ryb2tlLW9wYWNpdHk6MSIvPiYjeGE7ICAgICAgPHBhdGggaWQ9InBhdGgzMDU0LTItOSIgZD0iTSAtNi44NTIzNDM1LDMuODE3NjM3MiBBIDEuMTgxNDMwNCwxLjE3MTc2MiAwIDAgMCAtNy4zMDQ0Mjg0LDMuOTMyOTA0IGwgLTYuMTc4NzQyNiwyLjk1MTI3NTggYSAxLjE4MTQzMDQsMS4xNzE3NjIgMCAwIDAgLTAuNjM5MjA2LDAuNzk0ODkxIGwgLTEuNTIzOTE1LDYuNjMwODI4MiBhIDEuMTgxNDMwNCwxLjE3MTc2MiAwIDAgMCAwLjE2MDE3NSwwLjg5ODkzIDEuMTgxNDMwNCwxLjE3MTc2MiAwIDAgMCAwLjA2NzM2LDAuMDkyODEgbCA0LjI3NjA5NCw1LjMxNzIzNiBhIDEuMTgxNDMwNCwxLjE3MTc2MiAwIDAgMCAwLjkyMzYzLDAuNDQwODU4IGwgNi44NTc2MTg4LC0wLjAwMTUgYSAxLjE4MTQzMDQsMS4xNzE3NjIgMCAwIDAgMC45MjM2MzA4LC0wLjQ0MDExIGwgNC4yNzQ1OTY2LC01LjMxNzk4NSBhIDEuMTgxNDMwNCwxLjE3MTc2MiAwIDAgMCAwLjIyODI4OCwtMC45OTA5OTMgTCAwLjUzODk0NDM5LDcuNjc3NTczOCBBIDEuMTgxNDMwNCwxLjE3MTc2MiAwIDAgMCAtMC4xMDAyNjEwMSw2Ljg4MzQzMTMgTCAtNi4yNzkwMDM3LDMuOTMyMTU1NSBBIDEuMTgxNDMwNCwxLjE3MTc2MiAwIDAgMCAtNi44NTIzNDM1LDMuODE3NjM3MiBaIG0gMC4wMDI5OSwwLjQ1NTA3ODkgYSAxLjExOTEyNTUsMS4xMDk5NjcxIDAgMCAxIDAuNTQyNjUxNywwLjEwODUzMDMgbCA1Ljg1MzE1MTY5LDIuNzk0ODQyNSBBIDEuMTE5MTI1NSwxLjEwOTk2NzEgMCAwIDEgMC4xNTE5NzgxMSw3LjkyOTA2NDggTCAxLjU5ODA1MSwxNC4yMTAzNSBhIDEuMTE5MTI1NSwxLjEwOTk2NzEgMCAwIDEgLTAuMjE2MzEyMywwLjkzOTM0OCBsIC00LjA0OTMwMzIsNS4wMzczMDQgYSAxLjExOTEyNTUsMS4xMDk5NjcxIDAgMCAxIC0wLjg3NDk3ODksMC40MTY5MDYgbCAtNi40OTYxMDA2LDAuMDAxNSBhIDEuMTE5MTI1NSwxLjEwOTk2NzEgMCAwIDEgLTAuODc0OTc5LC0wLjQxNzY1MiBsIC00LjA1MDgsLTUuMDM2NTU0IGEgMS4xMTkxMjU1LDEuMTA5OTY3MSAwIDAgMSAtMC4wNjM2MiwtMC4wODgzMiAxLjExOTEyNTUsMS4xMDk5NjcxIDAgMCAxIC0wLjE1MTk0MiwtMC44NTEwMjggbCAxLjQ0MzgyNywtNi4yODEyODUzIGEgMS4xMTkxMjU1LDEuMTA5OTY3MSAwIDAgMSAwLjYwNTUyNCwtMC43NTI5NzU4IGwgNS44NTI0MDM2LC0yLjc5NjMzOTUgYSAxLjExOTEyNTUsMS4xMDk5NjcxIDAgMCAxIDAuNDI4ODgxOSwtMC4xMDg1MzAzIHoiIHN0eWxlPSJjb2xvcjojMDAwMDAwO2ZvbnQtc3R5bGU6bm9ybWFsO2ZvbnQtdmFyaWFudDpub3JtYWw7Zm9udC13ZWlnaHQ6bm9ybWFsO2ZvbnQtc3RyZXRjaDpub3JtYWw7Zm9udC1zaXplOm1lZGl1bTtsaW5lLWhlaWdodDpub3JtYWw7Zm9udC1mYW1pbHk6U2FuczstaW5rc2NhcGUtZm9udC1zcGVjaWZpY2F0aW9uOlNhbnM7dGV4dC1pbmRlbnQ6MDt0ZXh0LWFsaWduOnN0YXJ0O3RleHQtZGVjb3JhdGlvbjpub25lO3RleHQtZGVjb3JhdGlvbi1saW5lOm5vbmU7bGV0dGVyLXNwYWNpbmc6bm9ybWFsO3dvcmQtc3BhY2luZzpub3JtYWw7dGV4dC10cmFuc2Zvcm06bm9uZTt3cml0aW5nLW1vZGU6bHItdGI7ZGlyZWN0aW9uOmx0cjtiYXNlbGluZS1zaGlmdDpiYXNlbGluZTt0ZXh0LWFuY2hvcjpzdGFydDtkaXNwbGF5OmlubGluZTtvdmVyZmxvdzp2aXNpYmxlO3Zpc2liaWxpdHk6dmlzaWJsZTtmaWxsOiNmZmZmZmY7ZmlsbC1vcGFjaXR5OjE7ZmlsbC1ydWxlOm5vbnplcm87c3Ryb2tlOm5vbmU7c3Ryb2tlLXdpZHRoOjA7c3Ryb2tlLW1pdGVybGltaXQ6NDtzdHJva2UtZGFzaGFycmF5Om5vbmU7bWFya2VyOm5vbmU7ZW5hYmxlLWJhY2tncm91bmQ6YWNjdW11bGF0ZSIgaW5rc2NhcGU6Y29ubmVjdG9yLWN1cnZhdHVyZT0iMCIvPiYjeGE7ICAgIDwvZz4mI3hhOyAgICA8dGV4dCBpZD0idGV4dDIwNjYiIHk9IjE2LjgxMTc3NSIgeD0iOS45Nzk5NzY3IiBzdHlsZT0iZm9udC1zdHlsZTpub3JtYWw7Zm9udC13ZWlnaHQ6bm9ybWFsO2ZvbnQtc2l6ZToxMC41ODMzMzMwMnB4O2xpbmUtaGVpZ2h0OjYuNjE0NTgzNDlweDtmb250LWZhbWlseTpTYW5zO2xldHRlci1zcGFjaW5nOjBweDt3b3JkLXNwYWNpbmc6MHB4O2ZpbGw6I2ZmZmZmZjtmaWxsLW9wYWNpdHk6MTtzdHJva2U6bm9uZTtzdHJva2Utd2lkdGg6MC4yNjQ1ODMzMnB4O3N0cm9rZS1saW5lY2FwOmJ1dHQ7c3Ryb2tlLWxpbmVqb2luOm1pdGVyO3N0cm9rZS1vcGFjaXR5OjEiIHhtbDpzcGFjZT0icHJlc2VydmUiPjx0c3BhbiBzdHlsZT0iZm9udC1zdHlsZTpub3JtYWw7Zm9udC12YXJpYW50Om5vcm1hbDtmb250LXdlaWdodDpub3JtYWw7Zm9udC1zdHJldGNoOm5vcm1hbDtmb250LXNpemU6Mi44MjIyMjIyM3B4O2ZvbnQtZmFtaWx5OkFyaWFsOy1pbmtzY2FwZS1mb250LXNwZWNpZmljYXRpb246J0FyaWFsLCBOb3JtYWwnO3RleHQtYWxpZ246Y2VudGVyO3dyaXRpbmctbW9kZTpsci10Yjt0ZXh0LWFuY2hvcjptaWRkbGU7ZmlsbDojZmZmZmZmO2ZpbGwtb3BhY2l0eToxO3N0cm9rZS13aWR0aDowLjI2NDU4MzMycHgiIHk9IjE2LjgxMTc3NSIgeD0iOS45Nzk5NzY3IiBpZD0idHNwYW4yMDY0IiBzb2RpcG9kaTpyb2xlPSJsaW5lIj5zdmM8L3RzcGFuPjwvdGV4dD4mI3hhOyAgICA8ZyBpZD0iZzMzNDUiIHRyYW5zZm9ybT0idHJhbnNsYXRlKDAuMDkyMzg4MDEsMCkiPiYjeGE7ICAgICAgPHBhdGggc3R5bGU9ImZpbGw6I2ZmZmZmZjtmaWxsLXJ1bGU6ZXZlbm9kZDtzdHJva2U6bm9uZTtzdHJva2Utd2lkdGg6MC4yNjQ1ODMzMjtzdHJva2UtbGluZWNhcDpzcXVhcmU7c3Ryb2tlLW1pdGVybGltaXQ6MTAiIGlua3NjYXBlOmNvbm5lY3Rvci1jdXJ2YXR1cmU9IjAiIGQ9Im0gNC40OTQ5ODk2LDExLjI2MDgyNiAyLjkwODMzMTEsMCAwLDIuMDQxNjY3IC0yLjkwODMzMTEsMCB6IiBpZD0icGF0aDk2NCIvPiYjeGE7ICAgICAgPHBhdGggc3R5bGU9ImZpbGw6I2ZmZmZmZjtmaWxsLXJ1bGU6ZXZlbm9kZDtzdHJva2U6bm9uZTtzdHJva2Utd2lkdGg6MC4yNjQ1ODMzMjtzdHJva2UtbGluZWNhcDpzcXVhcmU7c3Ryb2tlLW1pdGVybGltaXQ6MTAiIGlua3NjYXBlOmNvbm5lY3Rvci1jdXJ2YXR1cmU9IjAiIGQ9Im0gOC40NjM3NDA3LDExLjI2MDgyNiAyLjkwODMzMDMsMCAwLDIuMDQxNjY3IC0yLjkwODMzMDMsMCB6IiBpZD0icGF0aDk2NiIvPiYjeGE7ICAgICAgPHBhdGggc3R5bGU9ImZpbGw6I2ZmZmZmZjtmaWxsLXJ1bGU6ZXZlbm9kZDtzdHJva2U6bm9uZTtzdHJva2Utd2lkdGg6MC4yNjQ1ODMzMjtzdHJva2UtbGluZWNhcDpzcXVhcmU7c3Ryb2tlLW1pdGVybGltaXQ6MTAiIGlua3NjYXBlOmNvbm5lY3Rvci1jdXJ2YXR1cmU9IjAiIGQ9Im0gMTIuNDMyNDkxLDExLjI2MDgyNiAyLjkwODMzLDAgMCwyLjA0MTY2NyAtMi45MDgzMywwIHoiIGlkPSJwYXRoOTY4Ii8+JiN4YTsgICAgICA8cGF0aCBzdHlsZT0iZmlsbDojZmZmZmZmO2ZpbGwtcnVsZTpldmVub2RkO3N0cm9rZTpub25lO3N0cm9rZS13aWR0aDowLjI2NDU4MzMyO3N0cm9rZS1saW5lY2FwOnNxdWFyZTtzdHJva2UtbWl0ZXJsaW1pdDoxMCIgaW5rc2NhcGU6Y29ubmVjdG9yLWN1cnZhdHVyZT0iMCIgZD0ibSA3LjYxMzc0MDcsNS4yMDgyOTIxIDQuNjA4MzMwMywwIDAsMi4wNDE2NjcgLTQuNjA4MzMwMywwIHoiIGlkPSJwYXRoOTcwIi8+JiN4YTsgICAgICA8cGF0aCBzdHlsZT0iZmlsbDpub25lO2ZpbGwtcnVsZTpldmVub2RkO3N0cm9rZTojZmZmZmZmO3N0cm9rZS13aWR0aDowLjUyOTE2NjY0O3N0cm9rZS1saW5lY2FwOmJ1dHQ7c3Ryb2tlLWxpbmVqb2luOnJvdW5kO3N0cm9rZS1taXRlcmxpbWl0OjEwO3N0cm9rZS1vcGFjaXR5OjEiIGlua3NjYXBlOmNvbm5lY3Rvci1jdXJ2YXR1cmU9IjAiIGQ9Im0gOS45MTc5MDA1LDcuMjQ5OTYwMSAwLDIuMDA1NDQ5IC0zLjk2NjY3MSwwIDAsMi4wMDI4ODU5IiBpZD0icGF0aDk3OCIvPiYjeGE7ICAgICAgPHBhdGggc3R5bGU9ImZpbGw6bm9uZTtmaWxsLXJ1bGU6ZXZlbm9kZDtzdHJva2U6I2ZmZmZmZjtzdHJva2Utd2lkdGg6MC41Mjg5OTk5ODtzdHJva2UtbGluZWNhcDpidXR0O3N0cm9rZS1saW5lam9pbjpyb3VuZDtzdHJva2UtbWl0ZXJsaW1pdDoxMDtzdHJva2UtZGFzaGFycmF5Om5vbmU7c3Ryb2tlLW9wYWNpdHk6MSIgaW5rc2NhcGU6Y29ubmVjdG9yLWN1cnZhdHVyZT0iMCIgZD0ibSA5LjkxNzkwMDUsNy4yNDk5NjAxIDAsMi4wMDU0NDkgMy45NjY2NzA1LDAgMCwyLjAwMjg4NTkiIGlkPSJwYXRoOTg2Ii8+JiN4YTsgICAgICA8cGF0aCBzdHlsZT0iZmlsbDpub25lO2ZpbGwtcnVsZTpldmVub2RkO3N0cm9rZTojZmZmZmZmO3N0cm9rZS13aWR0aDowLjUyOTE2NjY0O3N0cm9rZS1saW5lY2FwOmJ1dHQ7c3Ryb2tlLWxpbmVqb2luOnJvdW5kO3N0cm9rZS1taXRlcmxpbWl0OjEwO3N0cm9rZS1vcGFjaXR5OjEiIGlua3NjYXBlOmNvbm5lY3Rvci1jdXJ2YXR1cmU9IjAiIGQ9Im0gOS45MDk1NTM4LDcuMjUxMjI1MSAwLDIuMDA1NDQ5IDAuMDE2NywwIDAsMi4wMDI4ODU5IiBpZD0icGF0aDk4MiIvPiYjeGE7ICAgIDwvZz4mI3hhOyAgPC9nPiYjeGE7PC9zdmc+;" vertex="1" parent="1">
          <mxGeometry x="600" y="126" width="48" height="48" as="geometry" />
        </mxCell>
        <mxCell id="8zcdvciyAg1Ix1c_pIfZ-43" style="edgeStyle=orthogonalEdgeStyle;rounded=0;orthogonalLoop=1;jettySize=auto;html=1;entryX=1;entryY=0.5;entryDx=0;entryDy=0;exitX=0.5;exitY=1;exitDx=0;exitDy=0;" edge="1" parent="1" source="8zcdvciyAg1Ix1c_pIfZ-9" target="8zcdvciyAg1Ix1c_pIfZ-37">
          <mxGeometry relative="1" as="geometry" />
        </mxCell>
        <mxCell id="8zcdvciyAg1Ix1c_pIfZ-9" value="ingress&#xa;controller" style="shape=image;verticalLabelPosition=bottom;verticalAlign=top;imageAspect=0;aspect=fixed;image=data:image/svg+xml,PHN2ZyB4bWxuczpkYz0iaHR0cDovL3B1cmwub3JnL2RjL2VsZW1lbnRzLzEuMS8iIHhtbG5zOmNjPSJodHRwOi8vY3JlYXRpdmVjb21tb25zLm9yZy9ucyMiIHhtbG5zOnJkZj0iaHR0cDovL3d3dy53My5vcmcvMTk5OS8wMi8yMi1yZGYtc3ludGF4LW5zIyIgeG1sbnM6c3ZnPSJodHRwOi8vd3d3LnczLm9yZy8yMDAwL3N2ZyIgeG1sbnM9Imh0dHA6Ly93d3cudzMub3JnLzIwMDAvc3ZnIiB4bWxuczpzb2RpcG9kaT0iaHR0cDovL3NvZGlwb2RpLnNvdXJjZWZvcmdlLm5ldC9EVEQvc29kaXBvZGktMC5kdGQiIHhtbG5zOmlua3NjYXBlPSJodHRwOi8vd3d3Lmlua3NjYXBlLm9yZy9uYW1lc3BhY2VzL2lua3NjYXBlIiB3aWR0aD0iMTguMDM1MzM0bW0iIGhlaWdodD0iMTcuNTAwMzc4bW0iIHZpZXdCb3g9IjAgMCAxOC4wMzUzMzQgMTcuNTAwMzc4IiB2ZXJzaW9uPSIxLjEiIGlkPSJzdmcxMzgyNiIgaW5rc2NhcGU6dmVyc2lvbj0iMC45MSByMTM3MjUiIHNvZGlwb2RpOmRvY25hbWU9ImRlcGxveS5zdmciPiYjeGE7ICA8ZGVmcyBpZD0iZGVmczEzODIwIi8+JiN4YTsgIDxzb2RpcG9kaTpuYW1lZHZpZXcgaWQ9ImJhc2UiIHBhZ2Vjb2xvcj0iI2ZmZmZmZiIgYm9yZGVyY29sb3I9IiM2NjY2NjYiIGJvcmRlcm9wYWNpdHk9IjEuMCIgaW5rc2NhcGU6cGFnZW9wYWNpdHk9IjAuMCIgaW5rc2NhcGU6cGFnZXNoYWRvdz0iMiIgaW5rc2NhcGU6em9vbT0iOCIgaW5rc2NhcGU6Y3g9IjYuODQ3NDk2IiBpbmtzY2FwZTpjeT0iMzMuNzUyMjM5IiBpbmtzY2FwZTpkb2N1bWVudC11bml0cz0ibW0iIGlua3NjYXBlOmN1cnJlbnQtbGF5ZXI9ImxheWVyMSIgc2hvd2dyaWQ9ImZhbHNlIiBpbmtzY2FwZTp3aW5kb3ctd2lkdGg9IjE0NDAiIGlua3NjYXBlOndpbmRvdy1oZWlnaHQ9Ijc3NSIgaW5rc2NhcGU6d2luZG93LXg9IjAiIGlua3NjYXBlOndpbmRvdy15PSIxIiBpbmtzY2FwZTp3aW5kb3ctbWF4aW1pemVkPSIxIiBmaXQtbWFyZ2luLXRvcD0iMCIgZml0LW1hcmdpbi1sZWZ0PSIwIiBmaXQtbWFyZ2luLXJpZ2h0PSIwIiBmaXQtbWFyZ2luLWJvdHRvbT0iMCIvPiYjeGE7ICAmI3hhOyAgPGcgaW5rc2NhcGU6bGFiZWw9IkNhbHF1ZSAxIiBpbmtzY2FwZTpncm91cG1vZGU9ImxheWVyIiBpZD0ibGF5ZXIxIiB0cmFuc2Zvcm09InRyYW5zbGF0ZSgtMC45OTI2MjYzOCwtMS4xNzQxODEpIj4mI3hhOyAgICA8ZyBpZD0iZzcwIiB0cmFuc2Zvcm09Im1hdHJpeCgxLjAxNDg4ODcsMCwwLDEuMDE0ODg4NywxNi45MDIxNDYsLTIuNjk4NzI2KSI+JiN4YTsgICAgICA8cGF0aCBpbmtzY2FwZTpleHBvcnQteWRwaT0iMjUwLjU1IiBpbmtzY2FwZTpleHBvcnQteGRwaT0iMjUwLjU1IiBpbmtzY2FwZTpleHBvcnQtZmlsZW5hbWU9Im5ldy5wbmciIGlua3NjYXBlOmNvbm5lY3Rvci1jdXJ2YXR1cmU9IjAiIGlkPSJwYXRoMzA1NSIgZD0ibSAtNi44NDkyMDE1LDQuMjcyNDY2OCBhIDEuMTE5MTI1NSwxLjEwOTk2NzEgMCAwIDAgLTAuNDI4ODgxOCwwLjEwODUzMDMgbCAtNS44NTI0MDM3LDIuNzk2MzM5NCBhIDEuMTE5MTI1NSwxLjEwOTk2NzEgMCAwIDAgLTAuNjA1NTI0LDAuNzUyOTc1OSBsIC0xLjQ0MzgyOCw2LjI4MTI4NDYgYSAxLjExOTEyNTUsMS4xMDk5NjcxIDAgMCAwIDAuMTUxOTQzLDAuODUxMDI4IDEuMTE5MTI1NSwxLjEwOTk2NzEgMCAwIDAgMC4wNjM2MiwwLjA4ODMyIGwgNC4wNTA4LDUuMDM2NTU1IGEgMS4xMTkxMjU1LDEuMTA5OTY3MSAwIDAgMCAwLjg3NDk3OSwwLjQxNzY1NCBsIDYuNDk2MTAxMSwtMC4wMDE1IGEgMS4xMTkxMjU1LDEuMTA5OTY3MSAwIDAgMCAwLjg3NDk3ODgsLTAuNDE2OTA2IEwgMS4zODE4ODcyLDE1LjE0OTQ1MyBBIDEuMTE5MTI1NSwxLjEwOTk2NzEgMCAwIDAgMS41OTgxOTg2LDE0LjIxMDEwNCBMIDAuMTUyMTI2NTcsNy45Mjg4MTU0IEEgMS4xMTkxMjU1LDEuMTA5OTY3MSAwIDAgMCAtMC40NTMzOTc5NCw3LjE3NTgzOTYgTCAtNi4zMDY1NDk2LDQuMzgwOTk3MSBBIDEuMTE5MTI1NSwxLjEwOTk2NzEgMCAwIDAgLTYuODQ5MjAxNSw0LjI3MjQ2NjggWiIgc3R5bGU9ImZpbGw6IzMyNmNlNTtmaWxsLW9wYWNpdHk6MTtzdHJva2U6bm9uZTtzdHJva2Utd2lkdGg6MDtzdHJva2UtbWl0ZXJsaW1pdDo0O3N0cm9rZS1kYXNoYXJyYXk6bm9uZTtzdHJva2Utb3BhY2l0eToxIi8+JiN4YTsgICAgICA8cGF0aCBpZD0icGF0aDMwNTQtMi05IiBkPSJNIC02Ljg1MjM0MzUsMy44MTc2MzcyIEEgMS4xODE0MzA0LDEuMTcxNzYyIDAgMCAwIC03LjMwNDQyODQsMy45MzI5MDQgbCAtNi4xNzg3NDI2LDIuOTUxMjc1OCBhIDEuMTgxNDMwNCwxLjE3MTc2MiAwIDAgMCAtMC42MzkyMDYsMC43OTQ4OTEgbCAtMS41MjM5MTUsNi42MzA4MjgyIGEgMS4xODE0MzA0LDEuMTcxNzYyIDAgMCAwIDAuMTYwMTc1LDAuODk4OTMgMS4xODE0MzA0LDEuMTcxNzYyIDAgMCAwIDAuMDY3MzYsMC4wOTI4MSBsIDQuMjc2MDk0LDUuMzE3MjM2IGEgMS4xODE0MzA0LDEuMTcxNzYyIDAgMCAwIDAuOTIzNjMsMC40NDA4NTggbCA2Ljg1NzYxODgsLTAuMDAxNSBhIDEuMTgxNDMwNCwxLjE3MTc2MiAwIDAgMCAwLjkyMzYzMDgsLTAuNDQwMTEgbCA0LjI3NDU5NjYsLTUuMzE3OTg1IGEgMS4xODE0MzA0LDEuMTcxNzYyIDAgMCAwIDAuMjI4Mjg4LC0wLjk5MDk5MyBMIDAuNTM4OTQ0MzksNy42Nzc1NzM4IEEgMS4xODE0MzA0LDEuMTcxNzYyIDAgMCAwIC0wLjEwMDI2MTAxLDYuODgzNDMxMyBMIC02LjI3OTAwMzcsMy45MzIxNTU1IEEgMS4xODE0MzA0LDEuMTcxNzYyIDAgMCAwIC02Ljg1MjM0MzUsMy44MTc2MzcyIFogbSAwLjAwMjk5LDAuNDU1MDc4OSBhIDEuMTE5MTI1NSwxLjEwOTk2NzEgMCAwIDEgMC41NDI2NTE3LDAuMTA4NTMwMyBsIDUuODUzMTUxNjksMi43OTQ4NDI1IEEgMS4xMTkxMjU1LDEuMTA5OTY3MSAwIDAgMSAwLjE1MTk3ODExLDcuOTI5MDY0OCBMIDEuNTk4MDUxLDE0LjIxMDM1IGEgMS4xMTkxMjU1LDEuMTA5OTY3MSAwIDAgMSAtMC4yMTYzMTIzLDAuOTM5MzQ4IGwgLTQuMDQ5MzAzMiw1LjAzNzMwNCBhIDEuMTE5MTI1NSwxLjEwOTk2NzEgMCAwIDEgLTAuODc0OTc4OSwwLjQxNjkwNiBsIC02LjQ5NjEwMDYsMC4wMDE1IGEgMS4xMTkxMjU1LDEuMTA5OTY3MSAwIDAgMSAtMC44NzQ5NzksLTAuNDE3NjUyIGwgLTQuMDUwOCwtNS4wMzY1NTQgYSAxLjExOTEyNTUsMS4xMDk5NjcxIDAgMCAxIC0wLjA2MzYyLC0wLjA4ODMyIDEuMTE5MTI1NSwxLjEwOTk2NzEgMCAwIDEgLTAuMTUxOTQyLC0wLjg1MTAyOCBsIDEuNDQzODI3LC02LjI4MTI4NTMgYSAxLjExOTEyNTUsMS4xMDk5NjcxIDAgMCAxIDAuNjA1NTI0LC0wLjc1Mjk3NTggbCA1Ljg1MjQwMzYsLTIuNzk2MzM5NSBhIDEuMTE5MTI1NSwxLjEwOTk2NzEgMCAwIDEgMC40Mjg4ODE5LC0wLjEwODUzMDMgeiIgc3R5bGU9ImNvbG9yOiMwMDAwMDA7Zm9udC1zdHlsZTpub3JtYWw7Zm9udC12YXJpYW50Om5vcm1hbDtmb250LXdlaWdodDpub3JtYWw7Zm9udC1zdHJldGNoOm5vcm1hbDtmb250LXNpemU6bWVkaXVtO2xpbmUtaGVpZ2h0Om5vcm1hbDtmb250LWZhbWlseTpTYW5zOy1pbmtzY2FwZS1mb250LXNwZWNpZmljYXRpb246U2Fuczt0ZXh0LWluZGVudDowO3RleHQtYWxpZ246c3RhcnQ7dGV4dC1kZWNvcmF0aW9uOm5vbmU7dGV4dC1kZWNvcmF0aW9uLWxpbmU6bm9uZTtsZXR0ZXItc3BhY2luZzpub3JtYWw7d29yZC1zcGFjaW5nOm5vcm1hbDt0ZXh0LXRyYW5zZm9ybTpub25lO3dyaXRpbmctbW9kZTpsci10YjtkaXJlY3Rpb246bHRyO2Jhc2VsaW5lLXNoaWZ0OmJhc2VsaW5lO3RleHQtYW5jaG9yOnN0YXJ0O2Rpc3BsYXk6aW5saW5lO292ZXJmbG93OnZpc2libGU7dmlzaWJpbGl0eTp2aXNpYmxlO2ZpbGw6I2ZmZmZmZjtmaWxsLW9wYWNpdHk6MTtmaWxsLXJ1bGU6bm9uemVybztzdHJva2U6bm9uZTtzdHJva2Utd2lkdGg6MDtzdHJva2UtbWl0ZXJsaW1pdDo0O3N0cm9rZS1kYXNoYXJyYXk6bm9uZTttYXJrZXI6bm9uZTtlbmFibGUtYmFja2dyb3VuZDphY2N1bXVsYXRlIiBpbmtzY2FwZTpjb25uZWN0b3ItY3VydmF0dXJlPSIwIi8+JiN4YTsgICAgPC9nPiYjeGE7ICAgIDx0ZXh0IGlkPSJ0ZXh0MjA2NiIgeT0iMTYuODExNzc1IiB4PSI5Ljk3NDQ2NDQiIHN0eWxlPSJmb250LXN0eWxlOm5vcm1hbDtmb250LXdlaWdodDpub3JtYWw7Zm9udC1zaXplOjEwLjU4MzMzMzAycHg7bGluZS1oZWlnaHQ6Ni42MTQ1ODM0OXB4O2ZvbnQtZmFtaWx5OlNhbnM7bGV0dGVyLXNwYWNpbmc6MHB4O3dvcmQtc3BhY2luZzowcHg7ZmlsbDojZmZmZmZmO2ZpbGwtb3BhY2l0eToxO3N0cm9rZTpub25lO3N0cm9rZS13aWR0aDowLjI2NDU4MzMycHg7c3Ryb2tlLWxpbmVjYXA6YnV0dDtzdHJva2UtbGluZWpvaW46bWl0ZXI7c3Ryb2tlLW9wYWNpdHk6MSIgeG1sOnNwYWNlPSJwcmVzZXJ2ZSI+PHRzcGFuIHN0eWxlPSJmb250LXN0eWxlOm5vcm1hbDtmb250LXZhcmlhbnQ6bm9ybWFsO2ZvbnQtd2VpZ2h0Om5vcm1hbDtmb250LXN0cmV0Y2g6bm9ybWFsO2ZvbnQtc2l6ZToyLjgyMjIyMjIzcHg7Zm9udC1mYW1pbHk6QXJpYWw7LWlua3NjYXBlLWZvbnQtc3BlY2lmaWNhdGlvbjonQXJpYWwsIE5vcm1hbCc7dGV4dC1hbGlnbjpjZW50ZXI7d3JpdGluZy1tb2RlOmxyLXRiO3RleHQtYW5jaG9yOm1pZGRsZTtmaWxsOiNmZmZmZmY7ZmlsbC1vcGFjaXR5OjE7c3Ryb2tlLXdpZHRoOjAuMjY0NTgzMzJweCIgeT0iMTYuODExNzc1IiB4PSI5Ljk3NDQ2NDQiIGlkPSJ0c3BhbjIwNjQiIHNvZGlwb2RpOnJvbGU9ImxpbmUiPmRlcGxveTwvdHNwYW4+PC90ZXh0PiYjeGE7ICAgIDxnIGlkPSJnMzM0MCIgdHJhbnNmb3JtPSJ0cmFuc2xhdGUoLTAuNjUzODU1NDYsMCkiPiYjeGE7ICAgICAgPHBhdGggc3R5bGU9ImZpbGw6I2ZmZmZmZjtmaWxsLXJ1bGU6ZXZlbm9kZDtzdHJva2U6bm9uZTtzdHJva2Utd2lkdGg6MC4yNjQ1ODMzMjtzdHJva2UtbGluZWNhcDpzcXVhcmU7c3Ryb2tlLW1pdGVybGltaXQ6MTAiIGlua3NjYXBlOmNvbm5lY3Rvci1jdXJ2YXR1cmU9IjAiIGQ9Im0gMTAuMjI1MDYyLDEzLjczMTYzMiAwLDAgQyA3Ljc4MjQyMTgsMTMuODQ3MTc3IDUuNzA1MDExNiwxMS45NjgzODYgNS41NzUzNDE3LDkuNTI2NDYzNCA1LjQ0NTY1MTYsNy4wODQ1NDA1IDcuMzEyNDAxOCw0Ljk5NjI5MDUgOS43NTM1MzE4LDQuODUyNDc5NSBjIDIuNDQxMTIwMiwtMC4xNDM4MTEgNC41NDAxNDEyLDEuNzEwODEgNC42OTgwODEyLDQuMTUxMDY4MiBsIC0xLjc1NzA4MSwwLjExMzcyMDggYyAtMC4wOTU0LC0xLjQ3MzgxOCAtMS4zNjMxMSwtMi41OTM5MzUgLTIuODM3NDYwMiwtMi41MDcwOCAtMS40NzQzNCwwLjA4Njg2IC0yLjYwMTc4LDEuMzQ4MDc2MSAtMi41MjM0NiwyLjgyMjg5OTEgMC4wNzgzLDEuNDc0ODIyNCAxLjMzMywyLjYwOTUzODQgMi44MDgyNTAyLDIuNTM5NzUzNCB6IiBpZD0icGF0aDEyMjIiLz4mI3hhOyAgICAgIDxwYXRoIHN0eWxlPSJmaWxsOiNmZmZmZmY7ZmlsbC1ydWxlOmV2ZW5vZGQ7c3Ryb2tlOm5vbmU7c3Ryb2tlLXdpZHRoOjAuMjY0NTgzMzI7c3Ryb2tlLWxpbmVjYXA6c3F1YXJlO3N0cm9rZS1taXRlcmxpbWl0OjEwIiBpbmtzY2FwZTpjb25uZWN0b3ItY3VydmF0dXJlPSIwIiBkPSJtIDExLjEzNTU3NCw5LjAwODgwMTUgMS4zOTc0NSwzLjQyMDUwODUgMy4yMjYzLC0zLjQyMDUwODUgeiIgaWQ9InBhdGgxMjI0Ii8+JiN4YTsgICAgPC9nPiYjeGE7ICA8L2c+JiN4YTs8L3N2Zz4=;" vertex="1" parent="1">
          <mxGeometry x="700" y="126" width="48" height="48" as="geometry" />
        </mxCell>
        <mxCell id="8zcdvciyAg1Ix1c_pIfZ-13" style="edgeStyle=orthogonalEdgeStyle;rounded=0;orthogonalLoop=1;jettySize=auto;html=1;entryX=0;entryY=0.5;entryDx=0;entryDy=0;" edge="1" parent="1" source="8zcdvciyAg1Ix1c_pIfZ-11" target="8zcdvciyAg1Ix1c_pIfZ-8">
          <mxGeometry relative="1" as="geometry" />
        </mxCell>
        <mxCell id="8zcdvciyAg1Ix1c_pIfZ-26" style="edgeStyle=orthogonalEdgeStyle;rounded=0;orthogonalLoop=1;jettySize=auto;html=1;entryX=1;entryY=0.5;entryDx=0;entryDy=0;curved=1;dashed=1;exitX=0.5;exitY=1;exitDx=0;exitDy=0;" edge="1" parent="1" source="8zcdvciyAg1Ix1c_pIfZ-11" target="8zcdvciyAg1Ix1c_pIfZ-22">
          <mxGeometry relative="1" as="geometry" />
        </mxCell>
        <mxCell id="8zcdvciyAg1Ix1c_pIfZ-27" value="references" style="edgeLabel;html=1;align=center;verticalAlign=middle;resizable=0;points=[];" vertex="1" connectable="0" parent="8zcdvciyAg1Ix1c_pIfZ-26">
          <mxGeometry x="0.5612" y="1" relative="1" as="geometry">
            <mxPoint x="82" y="-25" as="offset" />
          </mxGeometry>
        </mxCell>
        <mxCell id="8zcdvciyAg1Ix1c_pIfZ-11" value="default &#xa;HTTPRoute" style="shape=image;verticalLabelPosition=bottom;verticalAlign=top;imageAspect=0;aspect=fixed;image=data:image/svg+xml,PHN2ZyB4bWxuczpkYz0iaHR0cDovL3B1cmwub3JnL2RjL2VsZW1lbnRzLzEuMS8iIHhtbG5zOmNjPSJodHRwOi8vY3JlYXRpdmVjb21tb25zLm9yZy9ucyMiIHhtbG5zOnJkZj0iaHR0cDovL3d3dy53My5vcmcvMTk5OS8wMi8yMi1yZGYtc3ludGF4LW5zIyIgeG1sbnM6c3ZnPSJodHRwOi8vd3d3LnczLm9yZy8yMDAwL3N2ZyIgeG1sbnM9Imh0dHA6Ly93d3cudzMub3JnLzIwMDAvc3ZnIiB4bWxuczpzb2RpcG9kaT0iaHR0cDovL3NvZGlwb2RpLnNvdXJjZWZvcmdlLm5ldC9EVEQvc29kaXBvZGktMC5kdGQiIHhtbG5zOmlua3NjYXBlPSJodHRwOi8vd3d3Lmlua3NjYXBlLm9yZy9uYW1lc3BhY2VzL2lua3NjYXBlIiB3aWR0aD0iMTguMDM1MzM0bW0iIGhlaWdodD0iMTcuNTAwMzc4bW0iIHZpZXdCb3g9IjAgMCAxOC4wMzUzMzQgMTcuNTAwMzc4IiB2ZXJzaW9uPSIxLjEiIGlkPSJzdmcxMzgyNiIgaW5rc2NhcGU6dmVyc2lvbj0iMC45MSByMTM3MjUiIHNvZGlwb2RpOmRvY25hbWU9ImNyZC5zdmciPiYjeGE7ICA8ZGVmcyBpZD0iZGVmczEzODIwIi8+JiN4YTsgIDxzb2RpcG9kaTpuYW1lZHZpZXcgaWQ9ImJhc2UiIHBhZ2Vjb2xvcj0iI2ZmZmZmZiIgYm9yZGVyY29sb3I9IiM2NjY2NjYiIGJvcmRlcm9wYWNpdHk9IjEuMCIgaW5rc2NhcGU6cGFnZW9wYWNpdHk9IjAuMCIgaW5rc2NhcGU6cGFnZXNoYWRvdz0iMiIgaW5rc2NhcGU6em9vbT0iOCIgaW5rc2NhcGU6Y3g9Ii0yLjA5MDAwNCIgaW5rc2NhcGU6Y3k9IjMzLjc1MjIzOSIgaW5rc2NhcGU6ZG9jdW1lbnQtdW5pdHM9Im1tIiBpbmtzY2FwZTpjdXJyZW50LWxheWVyPSJsYXllcjEiIHNob3dncmlkPSJmYWxzZSIgaW5rc2NhcGU6d2luZG93LXdpZHRoPSIxNDQwIiBpbmtzY2FwZTp3aW5kb3ctaGVpZ2h0PSI3NzUiIGlua3NjYXBlOndpbmRvdy14PSIwIiBpbmtzY2FwZTp3aW5kb3cteT0iMSIgaW5rc2NhcGU6d2luZG93LW1heGltaXplZD0iMSIgZml0LW1hcmdpbi10b3A9IjAiIGZpdC1tYXJnaW4tbGVmdD0iMCIgZml0LW1hcmdpbi1yaWdodD0iMCIgZml0LW1hcmdpbi1ib3R0b209IjAiLz4mI3hhOyAgJiN4YTsgIDxnIGlua3NjYXBlOmxhYmVsPSJDYWxxdWUgMSIgaW5rc2NhcGU6Z3JvdXBtb2RlPSJsYXllciIgaWQ9ImxheWVyMSIgdHJhbnNmb3JtPSJ0cmFuc2xhdGUoLTAuOTkyNjI2MzgsLTEuMTc0MTgxKSI+JiN4YTsgICAgPGcgaWQ9Imc3MCIgdHJhbnNmb3JtPSJtYXRyaXgoMS4wMTQ4ODg3LDAsMCwxLjAxNDg4ODcsMTYuOTAyMTQ2LC0yLjY5ODcyNikiPiYjeGE7ICAgICAgPHBhdGggaW5rc2NhcGU6ZXhwb3J0LXlkcGk9IjI1MC41NSIgaW5rc2NhcGU6ZXhwb3J0LXhkcGk9IjI1MC41NSIgaW5rc2NhcGU6ZXhwb3J0LWZpbGVuYW1lPSJuZXcucG5nIiBpbmtzY2FwZTpjb25uZWN0b3ItY3VydmF0dXJlPSIwIiBpZD0icGF0aDMwNTUiIGQ9Im0gLTYuODQ5MjAxNSw0LjI3MjQ2NjggYSAxLjExOTEyNTUsMS4xMDk5NjcxIDAgMCAwIC0wLjQyODg4MTgsMC4xMDg1MzAzIGwgLTUuODUyNDAzNywyLjc5NjMzOTQgYSAxLjExOTEyNTUsMS4xMDk5NjcxIDAgMCAwIC0wLjYwNTUyNCwwLjc1Mjk3NTkgbCAtMS40NDM4MjgsNi4yODEyODQ2IGEgMS4xMTkxMjU1LDEuMTA5OTY3MSAwIDAgMCAwLjE1MTk0MywwLjg1MTAyOCAxLjExOTEyNTUsMS4xMDk5NjcxIDAgMCAwIDAuMDYzNjIsMC4wODgzMiBsIDQuMDUwOCw1LjAzNjU1NSBhIDEuMTE5MTI1NSwxLjEwOTk2NzEgMCAwIDAgMC44NzQ5NzksMC40MTc2NTQgbCA2LjQ5NjEwMTEsLTAuMDAxNSBhIDEuMTE5MTI1NSwxLjEwOTk2NzEgMCAwIDAgMC44NzQ5Nzg4LC0wLjQxNjkwNiBMIDEuMzgxODg3MiwxNS4xNDk0NTMgQSAxLjExOTEyNTUsMS4xMDk5NjcxIDAgMCAwIDEuNTk4MTk4NiwxNC4yMTAxMDQgTCAwLjE1MjEyNjU3LDcuOTI4ODE1NCBBIDEuMTE5MTI1NSwxLjEwOTk2NzEgMCAwIDAgLTAuNDUzMzk3OTQsNy4xNzU4Mzk2IEwgLTYuMzA2NTQ5Niw0LjM4MDk5NzEgQSAxLjExOTEyNTUsMS4xMDk5NjcxIDAgMCAwIC02Ljg0OTIwMTUsNC4yNzI0NjY4IFoiIHN0eWxlPSJmaWxsOiMzMjZjZTU7ZmlsbC1vcGFjaXR5OjE7c3Ryb2tlOm5vbmU7c3Ryb2tlLXdpZHRoOjA7c3Ryb2tlLW1pdGVybGltaXQ6NDtzdHJva2UtZGFzaGFycmF5Om5vbmU7c3Ryb2tlLW9wYWNpdHk6MSIvPiYjeGE7ICAgICAgPHBhdGggaWQ9InBhdGgzMDU0LTItOSIgZD0iTSAtNi44NTIzNDM1LDMuODE3NjM3MiBBIDEuMTgxNDMwNCwxLjE3MTc2MiAwIDAgMCAtNy4zMDQ0Mjg0LDMuOTMyOTA0IGwgLTYuMTc4NzQyNiwyLjk1MTI3NTggYSAxLjE4MTQzMDQsMS4xNzE3NjIgMCAwIDAgLTAuNjM5MjA2LDAuNzk0ODkxIGwgLTEuNTIzOTE1LDYuNjMwODI4MiBhIDEuMTgxNDMwNCwxLjE3MTc2MiAwIDAgMCAwLjE2MDE3NSwwLjg5ODkzIDEuMTgxNDMwNCwxLjE3MTc2MiAwIDAgMCAwLjA2NzM2LDAuMDkyODEgbCA0LjI3NjA5NCw1LjMxNzIzNiBhIDEuMTgxNDMwNCwxLjE3MTc2MiAwIDAgMCAwLjkyMzYzLDAuNDQwODU4IGwgNi44NTc2MTg4LC0wLjAwMTUgYSAxLjE4MTQzMDQsMS4xNzE3NjIgMCAwIDAgMC45MjM2MzA4LC0wLjQ0MDExIGwgNC4yNzQ1OTY2LC01LjMxNzk4NSBhIDEuMTgxNDMwNCwxLjE3MTc2MiAwIDAgMCAwLjIyODI4OCwtMC45OTA5OTMgTCAwLjUzODk0NDM5LDcuNjc3NTczOCBBIDEuMTgxNDMwNCwxLjE3MTc2MiAwIDAgMCAtMC4xMDAyNjEwMSw2Ljg4MzQzMTMgTCAtNi4yNzkwMDM3LDMuOTMyMTU1NSBBIDEuMTgxNDMwNCwxLjE3MTc2MiAwIDAgMCAtNi44NTIzNDM1LDMuODE3NjM3MiBaIG0gMC4wMDI5OSwwLjQ1NTA3ODkgYSAxLjExOTEyNTUsMS4xMDk5NjcxIDAgMCAxIDAuNTQyNjUxNywwLjEwODUzMDMgbCA1Ljg1MzE1MTY5LDIuNzk0ODQyNSBBIDEuMTE5MTI1NSwxLjEwOTk2NzEgMCAwIDEgMC4xNTE5NzgxMSw3LjkyOTA2NDggTCAxLjU5ODA1MSwxNC4yMTAzNSBhIDEuMTE5MTI1NSwxLjEwOTk2NzEgMCAwIDEgLTAuMjE2MzEyMywwLjkzOTM0OCBsIC00LjA0OTMwMzIsNS4wMzczMDQgYSAxLjExOTEyNTUsMS4xMDk5NjcxIDAgMCAxIC0wLjg3NDk3ODksMC40MTY5MDYgbCAtNi40OTYxMDA2LDAuMDAxNSBhIDEuMTE5MTI1NSwxLjEwOTk2NzEgMCAwIDEgLTAuODc0OTc5LC0wLjQxNzY1MiBsIC00LjA1MDgsLTUuMDM2NTU0IGEgMS4xMTkxMjU1LDEuMTA5OTY3MSAwIDAgMSAtMC4wNjM2MiwtMC4wODgzMiAxLjExOTEyNTUsMS4xMDk5NjcxIDAgMCAxIC0wLjE1MTk0MiwtMC44NTEwMjggbCAxLjQ0MzgyNywtNi4yODEyODUzIGEgMS4xMTkxMjU1LDEuMTA5OTY3MSAwIDAgMSAwLjYwNTUyNCwtMC43NTI5NzU4IGwgNS44NTI0MDM2LC0yLjc5NjMzOTUgYSAxLjExOTEyNTUsMS4xMDk5NjcxIDAgMCAxIDAuNDI4ODgxOSwtMC4xMDg1MzAzIHoiIHN0eWxlPSJjb2xvcjojMDAwMDAwO2ZvbnQtc3R5bGU6bm9ybWFsO2ZvbnQtdmFyaWFudDpub3JtYWw7Zm9udC13ZWlnaHQ6bm9ybWFsO2ZvbnQtc3RyZXRjaDpub3JtYWw7Zm9udC1zaXplOm1lZGl1bTtsaW5lLWhlaWdodDpub3JtYWw7Zm9udC1mYW1pbHk6U2FuczstaW5rc2NhcGUtZm9udC1zcGVjaWZpY2F0aW9uOlNhbnM7dGV4dC1pbmRlbnQ6MDt0ZXh0LWFsaWduOnN0YXJ0O3RleHQtZGVjb3JhdGlvbjpub25lO3RleHQtZGVjb3JhdGlvbi1saW5lOm5vbmU7bGV0dGVyLXNwYWNpbmc6bm9ybWFsO3dvcmQtc3BhY2luZzpub3JtYWw7dGV4dC10cmFuc2Zvcm06bm9uZTt3cml0aW5nLW1vZGU6bHItdGI7ZGlyZWN0aW9uOmx0cjtiYXNlbGluZS1zaGlmdDpiYXNlbGluZTt0ZXh0LWFuY2hvcjpzdGFydDtkaXNwbGF5OmlubGluZTtvdmVyZmxvdzp2aXNpYmxlO3Zpc2liaWxpdHk6dmlzaWJsZTtmaWxsOiNmZmZmZmY7ZmlsbC1vcGFjaXR5OjE7ZmlsbC1ydWxlOm5vbnplcm87c3Ryb2tlOm5vbmU7c3Ryb2tlLXdpZHRoOjA7c3Ryb2tlLW1pdGVybGltaXQ6NDtzdHJva2UtZGFzaGFycmF5Om5vbmU7bWFya2VyOm5vbmU7ZW5hYmxlLWJhY2tncm91bmQ6YWNjdW11bGF0ZSIgaW5rc2NhcGU6Y29ubmVjdG9yLWN1cnZhdHVyZT0iMCIvPiYjeGE7ICAgIDwvZz4mI3hhOyAgICA8dGV4dCBpZD0idGV4dDIwNjYiIHk9IjE2LjgxMTc3NSIgeD0iMTAuMDU1MDc5IiBzdHlsZT0iZm9udC1zdHlsZTpub3JtYWw7Zm9udC13ZWlnaHQ6bm9ybWFsO2ZvbnQtc2l6ZToxMC41ODMzMzMwMnB4O2xpbmUtaGVpZ2h0OjYuNjE0NTgzNDlweDtmb250LWZhbWlseTpTYW5zO2xldHRlci1zcGFjaW5nOjBweDt3b3JkLXNwYWNpbmc6MHB4O2ZpbGw6I2ZmZmZmZjtmaWxsLW9wYWNpdHk6MTtzdHJva2U6bm9uZTtzdHJva2Utd2lkdGg6MC4yNjQ1ODMzMnB4O3N0cm9rZS1saW5lY2FwOmJ1dHQ7c3Ryb2tlLWxpbmVqb2luOm1pdGVyO3N0cm9rZS1vcGFjaXR5OjEiIHhtbDpzcGFjZT0icHJlc2VydmUiPjx0c3BhbiBzdHlsZT0iZm9udC1zdHlsZTpub3JtYWw7Zm9udC12YXJpYW50Om5vcm1hbDtmb250LXdlaWdodDpub3JtYWw7Zm9udC1zdHJldGNoOm5vcm1hbDtmb250LXNpemU6Mi44MjIyMjIyM3B4O2ZvbnQtZmFtaWx5OkFyaWFsOy1pbmtzY2FwZS1mb250LXNwZWNpZmljYXRpb246J0FyaWFsLCBOb3JtYWwnO3RleHQtYWxpZ246Y2VudGVyO3dyaXRpbmctbW9kZTpsci10Yjt0ZXh0LWFuY2hvcjptaWRkbGU7ZmlsbDojZmZmZmZmO2ZpbGwtb3BhY2l0eToxO3N0cm9rZS13aWR0aDowLjI2NDU4MzMycHgiIHk9IjE2LjgxMTc3NSIgeD0iMTAuMDU1MDc5IiBpZD0idHNwYW4yMDY0IiBzb2RpcG9kaTpyb2xlPSJsaW5lIj5jcmQ8L3RzcGFuPjwvdGV4dD4mI3hhOyAgICA8cGF0aCBzdHlsZT0iZmlsbDojZmZmZmZmO2ZpbGwtb3BhY2l0eToxO3N0cm9rZS13aWR0aDowLjQ2MTg1MzY4IiBpbmtzY2FwZTpjb25uZWN0b3ItY3VydmF0dXJlPSIwIiBkPSJtIDE0LjI2OTU2Niw4Ljc3NzUyMTkgLTAuNjkyNzgxLDAgMCwtMS44NDc0MTYgYyAwLC0wLjUwODAzODMgLTAuNDE1NjY4LC0wLjkyMzcwNjMgLTAuOTIzNzA2LC0wLjkyMzcwNjMgbCAtMS44NDc0MTYsMCAwLC0wLjY5Mjc4IGMgMCwtMC42MzczNTkgLTAuNTE3Mjc1LC0xLjE1NDYzNiAtMS4xNTQ2MzM0LC0xLjE1NDYzNiAtMC42MzczNTc4LDAgLTEuMTU0NjMzOCwwLjUxNzI3NyAtMS4xNTQ2MzM4LDEuMTU0NjM2IGwgMCwwLjY5Mjc4IC0xLjg0NzQxNiwwIGMgLTAuNTA4MDM4LDAgLTAuOTE5MDg5LDAuNDE1NjY4IC0wLjkxOTA4OSwwLjkyMzcwNjMgbCAwLDEuNzU1MDQ1IDAuNjg4MTY0LDAgYyAwLjY4ODE2MSwwIDEuMjQ3MDA1LDAuNTU4ODQzIDEuMjQ3MDA1LDEuMjQ3MDA1IDAsMC42ODgxNjIxIC0wLjU1ODg0NCwxLjI0NzAwNTEgLTEuMjQ3MDA1LDEuMjQ3MDA1MSBsIC0wLjY5Mjc4MSwwIDAsMS43NTUwNDUgYyAwLDAuNTA4MDM4IDAuNDE1NjY4LDAuOTIzNzA2IDAuOTIzNzA2LDAuOTIzNzA2IGwgMS43NTUwNDUsMCAwLC0wLjY5Mjc4MSBjIDAsLTAuNjg4MTYxIDAuNTU4ODQzLC0xLjI0NzAwNSAxLjI0NzAwNDgsLTEuMjQ3MDA1IDAuNjg4MTYyNCwwIDEuMjQ3MDA0NCwwLjU1ODg0NCAxLjI0NzAwNDQsMS4yNDcwMDUgbCAwLDAuNjkyNzgxIDEuNzU1MDQ1LDAgYyAwLjUwODAzOCwwIDAuOTIzNzA2LC0wLjQxNTY2OCAwLjkyMzcwNiwtMC45MjM3MDYgbCAwLC0xLjg0NzQxNiAwLjY5Mjc4MSwwIGMgMC42MzczNTgsMCAxLjE1NDYzNSwtMC41MTcyNzYgMS4xNTQ2MzUsLTEuMTU0NjM0MSAwLC0wLjYzNzM1OCAtMC41MTcyNzcsLTEuMTU0NjM0IC0xLjE1NDYzNSwtMS4xNTQ2MzQgeiIgaWQ9InBhdGg3NDE1Ii8+JiN4YTsgIDwvZz4mI3hhOzwvc3ZnPg==;" vertex="1" parent="1">
          <mxGeometry x="520" y="126" width="48" height="48" as="geometry" />
        </mxCell>
        <mxCell id="8zcdvciyAg1Ix1c_pIfZ-18" value="envoy-gateway-system" style="shape=image;verticalLabelPosition=bottom;verticalAlign=top;imageAspect=0;aspect=fixed;image=data:image/svg+xml,PHN2ZyB4bWxuczpkYz0iaHR0cDovL3B1cmwub3JnL2RjL2VsZW1lbnRzLzEuMS8iIHhtbG5zOmNjPSJodHRwOi8vY3JlYXRpdmVjb21tb25zLm9yZy9ucyMiIHhtbG5zOnJkZj0iaHR0cDovL3d3dy53My5vcmcvMTk5OS8wMi8yMi1yZGYtc3ludGF4LW5zIyIgeG1sbnM6c3ZnPSJodHRwOi8vd3d3LnczLm9yZy8yMDAwL3N2ZyIgeG1sbnM9Imh0dHA6Ly93d3cudzMub3JnLzIwMDAvc3ZnIiB4bWxuczpzb2RpcG9kaT0iaHR0cDovL3NvZGlwb2RpLnNvdXJjZWZvcmdlLm5ldC9EVEQvc29kaXBvZGktMC5kdGQiIHhtbG5zOmlua3NjYXBlPSJodHRwOi8vd3d3Lmlua3NjYXBlLm9yZy9uYW1lc3BhY2VzL2lua3NjYXBlIiB3aWR0aD0iMTguMDM1MzM0bW0iIGhlaWdodD0iMTcuNTAwMzc4bW0iIHZpZXdCb3g9IjAgMCAxOC4wMzUzMzQgMTcuNTAwMzc4IiB2ZXJzaW9uPSIxLjEiIGlkPSJzdmcxMzgyNiIgaW5rc2NhcGU6dmVyc2lvbj0iMC45MSByMTM3MjUiIHNvZGlwb2RpOmRvY25hbWU9Im5zLnN2ZyI+JiN4YTsgIDxkZWZzIGlkPSJkZWZzMTM4MjAiLz4mI3hhOyAgPHNvZGlwb2RpOm5hbWVkdmlldyBpZD0iYmFzZSIgcGFnZWNvbG9yPSIjZmZmZmZmIiBib3JkZXJjb2xvcj0iIzY2NjY2NiIgYm9yZGVyb3BhY2l0eT0iMS4wIiBpbmtzY2FwZTpwYWdlb3BhY2l0eT0iMC4wIiBpbmtzY2FwZTpwYWdlc2hhZG93PSIyIiBpbmtzY2FwZTp6b29tPSI4IiBpbmtzY2FwZTpjeD0iMTYuODQ3NDk2IiBpbmtzY2FwZTpjeT0iMjMuNzUyMjM5IiBpbmtzY2FwZTpkb2N1bWVudC11bml0cz0ibW0iIGlua3NjYXBlOmN1cnJlbnQtbGF5ZXI9ImxheWVyMSIgc2hvd2dyaWQ9ImZhbHNlIiBpbmtzY2FwZTp3aW5kb3ctd2lkdGg9IjE0NDAiIGlua3NjYXBlOndpbmRvdy1oZWlnaHQ9Ijc3NSIgaW5rc2NhcGU6d2luZG93LXg9IjAiIGlua3NjYXBlOndpbmRvdy15PSIxIiBpbmtzY2FwZTp3aW5kb3ctbWF4aW1pemVkPSIxIiBmaXQtbWFyZ2luLXRvcD0iMCIgZml0LW1hcmdpbi1sZWZ0PSIwIiBmaXQtbWFyZ2luLXJpZ2h0PSIwIiBmaXQtbWFyZ2luLWJvdHRvbT0iMCIvPiYjeGE7ICAmI3hhOyAgPGcgaW5rc2NhcGU6bGFiZWw9IkNhbHF1ZSAxIiBpbmtzY2FwZTpncm91cG1vZGU9ImxheWVyIiBpZD0ibGF5ZXIxIiB0cmFuc2Zvcm09InRyYW5zbGF0ZSgtMC45OTI2MjYzOCwtMS4xNzQxODEpIj4mI3hhOyAgICA8ZyBpZD0iZzcwIiB0cmFuc2Zvcm09Im1hdHJpeCgxLjAxNDg4ODcsMCwwLDEuMDE0ODg4NywxNi45MDIxNDYsLTIuNjk4NzI2KSI+JiN4YTsgICAgICA8cGF0aCBpbmtzY2FwZTpleHBvcnQteWRwaT0iMjUwLjU1IiBpbmtzY2FwZTpleHBvcnQteGRwaT0iMjUwLjU1IiBpbmtzY2FwZTpleHBvcnQtZmlsZW5hbWU9Im5ldy5wbmciIGlua3NjYXBlOmNvbm5lY3Rvci1jdXJ2YXR1cmU9IjAiIGlkPSJwYXRoMzA1NSIgZD0ibSAtNi44NDkyMDE1LDQuMjcyNDY2OCBhIDEuMTE5MTI1NSwxLjEwOTk2NzEgMCAwIDAgLTAuNDI4ODgxOCwwLjEwODUzMDMgbCAtNS44NTI0MDM3LDIuNzk2MzM5NCBhIDEuMTE5MTI1NSwxLjEwOTk2NzEgMCAwIDAgLTAuNjA1NTI0LDAuNzUyOTc1OSBsIC0xLjQ0MzgyOCw2LjI4MTI4NDYgYSAxLjExOTEyNTUsMS4xMDk5NjcxIDAgMCAwIDAuMTUxOTQzLDAuODUxMDI4IDEuMTE5MTI1NSwxLjEwOTk2NzEgMCAwIDAgMC4wNjM2MiwwLjA4ODMyIGwgNC4wNTA4LDUuMDM2NTU1IGEgMS4xMTkxMjU1LDEuMTA5OTY3MSAwIDAgMCAwLjg3NDk3OSwwLjQxNzY1NCBsIDYuNDk2MTAxMSwtMC4wMDE1IGEgMS4xMTkxMjU1LDEuMTA5OTY3MSAwIDAgMCAwLjg3NDk3ODgsLTAuNDE2OTA2IEwgMS4zODE4ODcyLDE1LjE0OTQ1MyBBIDEuMTE5MTI1NSwxLjEwOTk2NzEgMCAwIDAgMS41OTgxOTg2LDE0LjIxMDEwNCBMIDAuMTUyMTI2NTcsNy45Mjg4MTU0IEEgMS4xMTkxMjU1LDEuMTA5OTY3MSAwIDAgMCAtMC40NTMzOTc5NCw3LjE3NTgzOTYgTCAtNi4zMDY1NDk2LDQuMzgwOTk3MSBBIDEuMTE5MTI1NSwxLjEwOTk2NzEgMCAwIDAgLTYuODQ5MjAxNSw0LjI3MjQ2NjggWiIgc3R5bGU9ImZpbGw6IzMyNmNlNTtmaWxsLW9wYWNpdHk6MTtzdHJva2U6bm9uZTtzdHJva2Utd2lkdGg6MDtzdHJva2UtbWl0ZXJsaW1pdDo0O3N0cm9rZS1kYXNoYXJyYXk6bm9uZTtzdHJva2Utb3BhY2l0eToxIi8+JiN4YTsgICAgICA8cGF0aCBpZD0icGF0aDMwNTQtMi05IiBkPSJNIC02Ljg1MjM0MzUsMy44MTc2MzcyIEEgMS4xODE0MzA0LDEuMTcxNzYyIDAgMCAwIC03LjMwNDQyODQsMy45MzI5MDQgbCAtNi4xNzg3NDI2LDIuOTUxMjc1OCBhIDEuMTgxNDMwNCwxLjE3MTc2MiAwIDAgMCAtMC42MzkyMDYsMC43OTQ4OTEgbCAtMS41MjM5MTUsNi42MzA4MjgyIGEgMS4xODE0MzA0LDEuMTcxNzYyIDAgMCAwIDAuMTYwMTc1LDAuODk4OTMgMS4xODE0MzA0LDEuMTcxNzYyIDAgMCAwIDAuMDY3MzYsMC4wOTI4MSBsIDQuMjc2MDk0LDUuMzE3MjM2IGEgMS4xODE0MzA0LDEuMTcxNzYyIDAgMCAwIDAuOTIzNjMsMC40NDA4NTggbCA2Ljg1NzYxODgsLTAuMDAxNSBhIDEuMTgxNDMwNCwxLjE3MTc2MiAwIDAgMCAwLjkyMzYzMDgsLTAuNDQwMTEgbCA0LjI3NDU5NjYsLTUuMzE3OTg1IGEgMS4xODE0MzA0LDEuMTcxNzYyIDAgMCAwIDAuMjI4Mjg4LC0wLjk5MDk5MyBMIDAuNTM4OTQ0MzksNy42Nzc1NzM4IEEgMS4xODE0MzA0LDEuMTcxNzYyIDAgMCAwIC0wLjEwMDI2MTAxLDYuODgzNDMxMyBMIC02LjI3OTAwMzcsMy45MzIxNTU1IEEgMS4xODE0MzA0LDEuMTcxNzYyIDAgMCAwIC02Ljg1MjM0MzUsMy44MTc2MzcyIFogbSAwLjAwMjk5LDAuNDU1MDc4OSBhIDEuMTE5MTI1NSwxLjEwOTk2NzEgMCAwIDEgMC41NDI2NTE3LDAuMTA4NTMwMyBsIDUuODUzMTUxNjksMi43OTQ4NDI1IEEgMS4xMTkxMjU1LDEuMTA5OTY3MSAwIDAgMSAwLjE1MTk3ODExLDcuOTI5MDY0OCBMIDEuNTk4MDUxLDE0LjIxMDM1IGEgMS4xMTkxMjU1LDEuMTA5OTY3MSAwIDAgMSAtMC4yMTYzMTIzLDAuOTM5MzQ4IGwgLTQuMDQ5MzAzMiw1LjAzNzMwNCBhIDEuMTE5MTI1NSwxLjEwOTk2NzEgMCAwIDEgLTAuODc0OTc4OSwwLjQxNjkwNiBsIC02LjQ5NjEwMDYsMC4wMDE1IGEgMS4xMTkxMjU1LDEuMTA5OTY3MSAwIDAgMSAtMC44NzQ5NzksLTAuNDE3NjUyIGwgLTQuMDUwOCwtNS4wMzY1NTQgYSAxLjExOTEyNTUsMS4xMDk5NjcxIDAgMCAxIC0wLjA2MzYyLC0wLjA4ODMyIDEuMTE5MTI1NSwxLjEwOTk2NzEgMCAwIDEgLTAuMTUxOTQyLC0wLjg1MTAyOCBsIDEuNDQzODI3LC02LjI4MTI4NTMgYSAxLjExOTEyNTUsMS4xMDk5NjcxIDAgMCAxIDAuNjA1NTI0LC0wLjc1Mjk3NTggbCA1Ljg1MjQwMzYsLTIuNzk2MzM5NSBhIDEuMTE5MTI1NSwxLjEwOTk2NzEgMCAwIDEgMC40Mjg4ODE5LC0wLjEwODUzMDMgeiIgc3R5bGU9ImNvbG9yOiMwMDAwMDA7Zm9udC1zdHlsZTpub3JtYWw7Zm9udC12YXJpYW50Om5vcm1hbDtmb250LXdlaWdodDpub3JtYWw7Zm9udC1zdHJldGNoOm5vcm1hbDtmb250LXNpemU6bWVkaXVtO2xpbmUtaGVpZ2h0Om5vcm1hbDtmb250LWZhbWlseTpTYW5zOy1pbmtzY2FwZS1mb250LXNwZWNpZmljYXRpb246U2Fuczt0ZXh0LWluZGVudDowO3RleHQtYWxpZ246c3RhcnQ7dGV4dC1kZWNvcmF0aW9uOm5vbmU7dGV4dC1kZWNvcmF0aW9uLWxpbmU6bm9uZTtsZXR0ZXItc3BhY2luZzpub3JtYWw7d29yZC1zcGFjaW5nOm5vcm1hbDt0ZXh0LXRyYW5zZm9ybTpub25lO3dyaXRpbmctbW9kZTpsci10YjtkaXJlY3Rpb246bHRyO2Jhc2VsaW5lLXNoaWZ0OmJhc2VsaW5lO3RleHQtYW5jaG9yOnN0YXJ0O2Rpc3BsYXk6aW5saW5lO292ZXJmbG93OnZpc2libGU7dmlzaWJpbGl0eTp2aXNpYmxlO2ZpbGw6I2ZmZmZmZjtmaWxsLW9wYWNpdHk6MTtmaWxsLXJ1bGU6bm9uemVybztzdHJva2U6bm9uZTtzdHJva2Utd2lkdGg6MDtzdHJva2UtbWl0ZXJsaW1pdDo0O3N0cm9rZS1kYXNoYXJyYXk6bm9uZTttYXJrZXI6bm9uZTtlbmFibGUtYmFja2dyb3VuZDphY2N1bXVsYXRlIiBpbmtzY2FwZTpjb25uZWN0b3ItY3VydmF0dXJlPSIwIi8+JiN4YTsgICAgPC9nPiYjeGE7ICAgIDx0ZXh0IGlkPSJ0ZXh0MjA2NiIgeT0iMTYuODExNzc1IiB4PSI5Ljk3MTcwODMiIHN0eWxlPSJmb250LXN0eWxlOm5vcm1hbDtmb250LXdlaWdodDpub3JtYWw7Zm9udC1zaXplOjEwLjU4MzMzMzAycHg7bGluZS1oZWlnaHQ6Ni42MTQ1ODM0OXB4O2ZvbnQtZmFtaWx5OlNhbnM7bGV0dGVyLXNwYWNpbmc6MHB4O3dvcmQtc3BhY2luZzowcHg7ZmlsbDojZmZmZmZmO2ZpbGwtb3BhY2l0eToxO3N0cm9rZTpub25lO3N0cm9rZS13aWR0aDowLjI2NDU4MzMycHg7c3Ryb2tlLWxpbmVjYXA6YnV0dDtzdHJva2UtbGluZWpvaW46bWl0ZXI7c3Ryb2tlLW9wYWNpdHk6MSIgeG1sOnNwYWNlPSJwcmVzZXJ2ZSI+PHRzcGFuIHN0eWxlPSJmb250LXN0eWxlOm5vcm1hbDtmb250LXZhcmlhbnQ6bm9ybWFsO2ZvbnQtd2VpZ2h0Om5vcm1hbDtmb250LXN0cmV0Y2g6bm9ybWFsO2ZvbnQtc2l6ZToyLjgyMjIyMjIzcHg7Zm9udC1mYW1pbHk6QXJpYWw7LWlua3NjYXBlLWZvbnQtc3BlY2lmaWNhdGlvbjonQXJpYWwsIE5vcm1hbCc7dGV4dC1hbGlnbjpjZW50ZXI7d3JpdGluZy1tb2RlOmxyLXRiO3RleHQtYW5jaG9yOm1pZGRsZTtmaWxsOiNmZmZmZmY7ZmlsbC1vcGFjaXR5OjE7c3Ryb2tlLXdpZHRoOjAuMjY0NTgzMzJweCIgeT0iMTYuODExNzc1IiB4PSI5Ljk3MTcwODMiIGlkPSJ0c3BhbjIwNjQiIHNvZGlwb2RpOnJvbGU9ImxpbmUiPm5zPC90c3Bhbj48L3RleHQ+JiN4YTsgICAgPHJlY3QgeT0iNi4zNjg5NjI4IiB4PSI2LjE3MzQ5ODYiIGhlaWdodD0iNi42OTAwNzkyIiB3aWR0aD0iNy42NzM1ODkyIiBpZD0icmVjdDg3OTAiIHN0eWxlPSJvcGFjaXR5OjE7ZmlsbDpub25lO2ZpbGwtb3BhY2l0eToxO2ZpbGwtcnVsZTpub256ZXJvO3N0cm9rZTojZmZmZmZmO3N0cm9rZS13aWR0aDowLjQwMDAwMDAxO3N0cm9rZS1saW5lY2FwOmJ1dHQ7c3Ryb2tlLWxpbmVqb2luOnJvdW5kO3N0cm9rZS1taXRlcmxpbWl0OjEwO3N0cm9rZS1kYXNoYXJyYXk6MC44MDAwMDAwMSwgMC40O3N0cm9rZS1kYXNob2Zmc2V0OjMuNDQwMDAwMDY7c3Ryb2tlLW9wYWNpdHk6MSIvPiYjeGE7ICA8L2c+JiN4YTs8L3N2Zz4=;" vertex="1" parent="1">
          <mxGeometry x="190" y="40" width="48" height="48" as="geometry" />
        </mxCell>
        <mxCell id="8zcdvciyAg1Ix1c_pIfZ-19" value="nginx-ingress" style="shape=image;verticalLabelPosition=bottom;verticalAlign=top;imageAspect=0;aspect=fixed;image=data:image/svg+xml,PHN2ZyB4bWxuczpkYz0iaHR0cDovL3B1cmwub3JnL2RjL2VsZW1lbnRzLzEuMS8iIHhtbG5zOmNjPSJodHRwOi8vY3JlYXRpdmVjb21tb25zLm9yZy9ucyMiIHhtbG5zOnJkZj0iaHR0cDovL3d3dy53My5vcmcvMTk5OS8wMi8yMi1yZGYtc3ludGF4LW5zIyIgeG1sbnM6c3ZnPSJodHRwOi8vd3d3LnczLm9yZy8yMDAwL3N2ZyIgeG1sbnM9Imh0dHA6Ly93d3cudzMub3JnLzIwMDAvc3ZnIiB4bWxuczpzb2RpcG9kaT0iaHR0cDovL3NvZGlwb2RpLnNvdXJjZWZvcmdlLm5ldC9EVEQvc29kaXBvZGktMC5kdGQiIHhtbG5zOmlua3NjYXBlPSJodHRwOi8vd3d3Lmlua3NjYXBlLm9yZy9uYW1lc3BhY2VzL2lua3NjYXBlIiB3aWR0aD0iMTguMDM1MzM0bW0iIGhlaWdodD0iMTcuNTAwMzc4bW0iIHZpZXdCb3g9IjAgMCAxOC4wMzUzMzQgMTcuNTAwMzc4IiB2ZXJzaW9uPSIxLjEiIGlkPSJzdmcxMzgyNiIgaW5rc2NhcGU6dmVyc2lvbj0iMC45MSByMTM3MjUiIHNvZGlwb2RpOmRvY25hbWU9Im5zLnN2ZyI+JiN4YTsgIDxkZWZzIGlkPSJkZWZzMTM4MjAiLz4mI3hhOyAgPHNvZGlwb2RpOm5hbWVkdmlldyBpZD0iYmFzZSIgcGFnZWNvbG9yPSIjZmZmZmZmIiBib3JkZXJjb2xvcj0iIzY2NjY2NiIgYm9yZGVyb3BhY2l0eT0iMS4wIiBpbmtzY2FwZTpwYWdlb3BhY2l0eT0iMC4wIiBpbmtzY2FwZTpwYWdlc2hhZG93PSIyIiBpbmtzY2FwZTp6b29tPSI4IiBpbmtzY2FwZTpjeD0iMTYuODQ3NDk2IiBpbmtzY2FwZTpjeT0iMjMuNzUyMjM5IiBpbmtzY2FwZTpkb2N1bWVudC11bml0cz0ibW0iIGlua3NjYXBlOmN1cnJlbnQtbGF5ZXI9ImxheWVyMSIgc2hvd2dyaWQ9ImZhbHNlIiBpbmtzY2FwZTp3aW5kb3ctd2lkdGg9IjE0NDAiIGlua3NjYXBlOndpbmRvdy1oZWlnaHQ9Ijc3NSIgaW5rc2NhcGU6d2luZG93LXg9IjAiIGlua3NjYXBlOndpbmRvdy15PSIxIiBpbmtzY2FwZTp3aW5kb3ctbWF4aW1pemVkPSIxIiBmaXQtbWFyZ2luLXRvcD0iMCIgZml0LW1hcmdpbi1sZWZ0PSIwIiBmaXQtbWFyZ2luLXJpZ2h0PSIwIiBmaXQtbWFyZ2luLWJvdHRvbT0iMCIvPiYjeGE7ICAmI3hhOyAgPGcgaW5rc2NhcGU6bGFiZWw9IkNhbHF1ZSAxIiBpbmtzY2FwZTpncm91cG1vZGU9ImxheWVyIiBpZD0ibGF5ZXIxIiB0cmFuc2Zvcm09InRyYW5zbGF0ZSgtMC45OTI2MjYzOCwtMS4xNzQxODEpIj4mI3hhOyAgICA8ZyBpZD0iZzcwIiB0cmFuc2Zvcm09Im1hdHJpeCgxLjAxNDg4ODcsMCwwLDEuMDE0ODg4NywxNi45MDIxNDYsLTIuNjk4NzI2KSI+JiN4YTsgICAgICA8cGF0aCBpbmtzY2FwZTpleHBvcnQteWRwaT0iMjUwLjU1IiBpbmtzY2FwZTpleHBvcnQteGRwaT0iMjUwLjU1IiBpbmtzY2FwZTpleHBvcnQtZmlsZW5hbWU9Im5ldy5wbmciIGlua3NjYXBlOmNvbm5lY3Rvci1jdXJ2YXR1cmU9IjAiIGlkPSJwYXRoMzA1NSIgZD0ibSAtNi44NDkyMDE1LDQuMjcyNDY2OCBhIDEuMTE5MTI1NSwxLjEwOTk2NzEgMCAwIDAgLTAuNDI4ODgxOCwwLjEwODUzMDMgbCAtNS44NTI0MDM3LDIuNzk2MzM5NCBhIDEuMTE5MTI1NSwxLjEwOTk2NzEgMCAwIDAgLTAuNjA1NTI0LDAuNzUyOTc1OSBsIC0xLjQ0MzgyOCw2LjI4MTI4NDYgYSAxLjExOTEyNTUsMS4xMDk5NjcxIDAgMCAwIDAuMTUxOTQzLDAuODUxMDI4IDEuMTE5MTI1NSwxLjEwOTk2NzEgMCAwIDAgMC4wNjM2MiwwLjA4ODMyIGwgNC4wNTA4LDUuMDM2NTU1IGEgMS4xMTkxMjU1LDEuMTA5OTY3MSAwIDAgMCAwLjg3NDk3OSwwLjQxNzY1NCBsIDYuNDk2MTAxMSwtMC4wMDE1IGEgMS4xMTkxMjU1LDEuMTA5OTY3MSAwIDAgMCAwLjg3NDk3ODgsLTAuNDE2OTA2IEwgMS4zODE4ODcyLDE1LjE0OTQ1MyBBIDEuMTE5MTI1NSwxLjEwOTk2NzEgMCAwIDAgMS41OTgxOTg2LDE0LjIxMDEwNCBMIDAuMTUyMTI2NTcsNy45Mjg4MTU0IEEgMS4xMTkxMjU1LDEuMTA5OTY3MSAwIDAgMCAtMC40NTMzOTc5NCw3LjE3NTgzOTYgTCAtNi4zMDY1NDk2LDQuMzgwOTk3MSBBIDEuMTE5MTI1NSwxLjEwOTk2NzEgMCAwIDAgLTYuODQ5MjAxNSw0LjI3MjQ2NjggWiIgc3R5bGU9ImZpbGw6IzMyNmNlNTtmaWxsLW9wYWNpdHk6MTtzdHJva2U6bm9uZTtzdHJva2Utd2lkdGg6MDtzdHJva2UtbWl0ZXJsaW1pdDo0O3N0cm9rZS1kYXNoYXJyYXk6bm9uZTtzdHJva2Utb3BhY2l0eToxIi8+JiN4YTsgICAgICA8cGF0aCBpZD0icGF0aDMwNTQtMi05IiBkPSJNIC02Ljg1MjM0MzUsMy44MTc2MzcyIEEgMS4xODE0MzA0LDEuMTcxNzYyIDAgMCAwIC03LjMwNDQyODQsMy45MzI5MDQgbCAtNi4xNzg3NDI2LDIuOTUxMjc1OCBhIDEuMTgxNDMwNCwxLjE3MTc2MiAwIDAgMCAtMC42MzkyMDYsMC43OTQ4OTEgbCAtMS41MjM5MTUsNi42MzA4MjgyIGEgMS4xODE0MzA0LDEuMTcxNzYyIDAgMCAwIDAuMTYwMTc1LDAuODk4OTMgMS4xODE0MzA0LDEuMTcxNzYyIDAgMCAwIDAuMDY3MzYsMC4wOTI4MSBsIDQuMjc2MDk0LDUuMzE3MjM2IGEgMS4xODE0MzA0LDEuMTcxNzYyIDAgMCAwIDAuOTIzNjMsMC40NDA4NTggbCA2Ljg1NzYxODgsLTAuMDAxNSBhIDEuMTgxNDMwNCwxLjE3MTc2MiAwIDAgMCAwLjkyMzYzMDgsLTAuNDQwMTEgbCA0LjI3NDU5NjYsLTUuMzE3OTg1IGEgMS4xODE0MzA0LDEuMTcxNzYyIDAgMCAwIDAuMjI4Mjg4LC0wLjk5MDk5MyBMIDAuNTM4OTQ0MzksNy42Nzc1NzM4IEEgMS4xODE0MzA0LDEuMTcxNzYyIDAgMCAwIC0wLjEwMDI2MTAxLDYuODgzNDMxMyBMIC02LjI3OTAwMzcsMy45MzIxNTU1IEEgMS4xODE0MzA0LDEuMTcxNzYyIDAgMCAwIC02Ljg1MjM0MzUsMy44MTc2MzcyIFogbSAwLjAwMjk5LDAuNDU1MDc4OSBhIDEuMTE5MTI1NSwxLjEwOTk2NzEgMCAwIDEgMC41NDI2NTE3LDAuMTA4NTMwMyBsIDUuODUzMTUxNjksMi43OTQ4NDI1IEEgMS4xMTkxMjU1LDEuMTA5OTY3MSAwIDAgMSAwLjE1MTk3ODExLDcuOTI5MDY0OCBMIDEuNTk4MDUxLDE0LjIxMDM1IGEgMS4xMTkxMjU1LDEuMTA5OTY3MSAwIDAgMSAtMC4yMTYzMTIzLDAuOTM5MzQ4IGwgLTQuMDQ5MzAzMiw1LjAzNzMwNCBhIDEuMTE5MTI1NSwxLjEwOTk2NzEgMCAwIDEgLTAuODc0OTc4OSwwLjQxNjkwNiBsIC02LjQ5NjEwMDYsMC4wMDE1IGEgMS4xMTkxMjU1LDEuMTA5OTY3MSAwIDAgMSAtMC44NzQ5NzksLTAuNDE3NjUyIGwgLTQuMDUwOCwtNS4wMzY1NTQgYSAxLjExOTEyNTUsMS4xMDk5NjcxIDAgMCAxIC0wLjA2MzYyLC0wLjA4ODMyIDEuMTE5MTI1NSwxLjEwOTk2NzEgMCAwIDEgLTAuMTUxOTQyLC0wLjg1MTAyOCBsIDEuNDQzODI3LC02LjI4MTI4NTMgYSAxLjExOTEyNTUsMS4xMDk5NjcxIDAgMCAxIDAuNjA1NTI0LC0wLjc1Mjk3NTggbCA1Ljg1MjQwMzYsLTIuNzk2MzM5NSBhIDEuMTE5MTI1NSwxLjEwOTk2NzEgMCAwIDEgMC40Mjg4ODE5LC0wLjEwODUzMDMgeiIgc3R5bGU9ImNvbG9yOiMwMDAwMDA7Zm9udC1zdHlsZTpub3JtYWw7Zm9udC12YXJpYW50Om5vcm1hbDtmb250LXdlaWdodDpub3JtYWw7Zm9udC1zdHJldGNoOm5vcm1hbDtmb250LXNpemU6bWVkaXVtO2xpbmUtaGVpZ2h0Om5vcm1hbDtmb250LWZhbWlseTpTYW5zOy1pbmtzY2FwZS1mb250LXNwZWNpZmljYXRpb246U2Fuczt0ZXh0LWluZGVudDowO3RleHQtYWxpZ246c3RhcnQ7dGV4dC1kZWNvcmF0aW9uOm5vbmU7dGV4dC1kZWNvcmF0aW9uLWxpbmU6bm9uZTtsZXR0ZXItc3BhY2luZzpub3JtYWw7d29yZC1zcGFjaW5nOm5vcm1hbDt0ZXh0LXRyYW5zZm9ybTpub25lO3dyaXRpbmctbW9kZTpsci10YjtkaXJlY3Rpb246bHRyO2Jhc2VsaW5lLXNoaWZ0OmJhc2VsaW5lO3RleHQtYW5jaG9yOnN0YXJ0O2Rpc3BsYXk6aW5saW5lO292ZXJmbG93OnZpc2libGU7dmlzaWJpbGl0eTp2aXNpYmxlO2ZpbGw6I2ZmZmZmZjtmaWxsLW9wYWNpdHk6MTtmaWxsLXJ1bGU6bm9uemVybztzdHJva2U6bm9uZTtzdHJva2Utd2lkdGg6MDtzdHJva2UtbWl0ZXJsaW1pdDo0O3N0cm9rZS1kYXNoYXJyYXk6bm9uZTttYXJrZXI6bm9uZTtlbmFibGUtYmFja2dyb3VuZDphY2N1bXVsYXRlIiBpbmtzY2FwZTpjb25uZWN0b3ItY3VydmF0dXJlPSIwIi8+JiN4YTsgICAgPC9nPiYjeGE7ICAgIDx0ZXh0IGlkPSJ0ZXh0MjA2NiIgeT0iMTYuODExNzc1IiB4PSI5Ljk3MTcwODMiIHN0eWxlPSJmb250LXN0eWxlOm5vcm1hbDtmb250LXdlaWdodDpub3JtYWw7Zm9udC1zaXplOjEwLjU4MzMzMzAycHg7bGluZS1oZWlnaHQ6Ni42MTQ1ODM0OXB4O2ZvbnQtZmFtaWx5OlNhbnM7bGV0dGVyLXNwYWNpbmc6MHB4O3dvcmQtc3BhY2luZzowcHg7ZmlsbDojZmZmZmZmO2ZpbGwtb3BhY2l0eToxO3N0cm9rZTpub25lO3N0cm9rZS13aWR0aDowLjI2NDU4MzMycHg7c3Ryb2tlLWxpbmVjYXA6YnV0dDtzdHJva2UtbGluZWpvaW46bWl0ZXI7c3Ryb2tlLW9wYWNpdHk6MSIgeG1sOnNwYWNlPSJwcmVzZXJ2ZSI+PHRzcGFuIHN0eWxlPSJmb250LXN0eWxlOm5vcm1hbDtmb250LXZhcmlhbnQ6bm9ybWFsO2ZvbnQtd2VpZ2h0Om5vcm1hbDtmb250LXN0cmV0Y2g6bm9ybWFsO2ZvbnQtc2l6ZToyLjgyMjIyMjIzcHg7Zm9udC1mYW1pbHk6QXJpYWw7LWlua3NjYXBlLWZvbnQtc3BlY2lmaWNhdGlvbjonQXJpYWwsIE5vcm1hbCc7dGV4dC1hbGlnbjpjZW50ZXI7d3JpdGluZy1tb2RlOmxyLXRiO3RleHQtYW5jaG9yOm1pZGRsZTtmaWxsOiNmZmZmZmY7ZmlsbC1vcGFjaXR5OjE7c3Ryb2tlLXdpZHRoOjAuMjY0NTgzMzJweCIgeT0iMTYuODExNzc1IiB4PSI5Ljk3MTcwODMiIGlkPSJ0c3BhbjIwNjQiIHNvZGlwb2RpOnJvbGU9ImxpbmUiPm5zPC90c3Bhbj48L3RleHQ+JiN4YTsgICAgPHJlY3QgeT0iNi4zNjg5NjI4IiB4PSI2LjE3MzQ5ODYiIGhlaWdodD0iNi42OTAwNzkyIiB3aWR0aD0iNy42NzM1ODkyIiBpZD0icmVjdDg3OTAiIHN0eWxlPSJvcGFjaXR5OjE7ZmlsbDpub25lO2ZpbGwtb3BhY2l0eToxO2ZpbGwtcnVsZTpub256ZXJvO3N0cm9rZTojZmZmZmZmO3N0cm9rZS13aWR0aDowLjQwMDAwMDAxO3N0cm9rZS1saW5lY2FwOmJ1dHQ7c3Ryb2tlLWxpbmVqb2luOnJvdW5kO3N0cm9rZS1taXRlcmxpbWl0OjEwO3N0cm9rZS1kYXNoYXJyYXk6MC44MDAwMDAwMSwgMC40O3N0cm9rZS1kYXNob2Zmc2V0OjMuNDQwMDAwMDY7c3Ryb2tlLW9wYWNpdHk6MSIvPiYjeGE7ICA8L2c+JiN4YTs8L3N2Zz4=;" vertex="1" parent="1">
          <mxGeometry x="530" y="40" width="48" height="48" as="geometry" />
        </mxCell>
        <mxCell id="8zcdvciyAg1Ix1c_pIfZ-21" value="GatewayClass" style="shape=image;verticalLabelPosition=bottom;verticalAlign=top;imageAspect=0;aspect=fixed;image=data:image/svg+xml,PHN2ZyB4bWxuczpkYz0iaHR0cDovL3B1cmwub3JnL2RjL2VsZW1lbnRzLzEuMS8iIHhtbG5zOmNjPSJodHRwOi8vY3JlYXRpdmVjb21tb25zLm9yZy9ucyMiIHhtbG5zOnJkZj0iaHR0cDovL3d3dy53My5vcmcvMTk5OS8wMi8yMi1yZGYtc3ludGF4LW5zIyIgeG1sbnM6c3ZnPSJodHRwOi8vd3d3LnczLm9yZy8yMDAwL3N2ZyIgeG1sbnM9Imh0dHA6Ly93d3cudzMub3JnLzIwMDAvc3ZnIiB4bWxuczpzb2RpcG9kaT0iaHR0cDovL3NvZGlwb2RpLnNvdXJjZWZvcmdlLm5ldC9EVEQvc29kaXBvZGktMC5kdGQiIHhtbG5zOmlua3NjYXBlPSJodHRwOi8vd3d3Lmlua3NjYXBlLm9yZy9uYW1lc3BhY2VzL2lua3NjYXBlIiB3aWR0aD0iMTguMDM1MzM0bW0iIGhlaWdodD0iMTcuNTAwMzc4bW0iIHZpZXdCb3g9IjAgMCAxOC4wMzUzMzQgMTcuNTAwMzc4IiB2ZXJzaW9uPSIxLjEiIGlkPSJzdmcxMzgyNiIgaW5rc2NhcGU6dmVyc2lvbj0iMC45MSByMTM3MjUiIHNvZGlwb2RpOmRvY25hbWU9ImNyZC5zdmciPiYjeGE7ICA8ZGVmcyBpZD0iZGVmczEzODIwIi8+JiN4YTsgIDxzb2RpcG9kaTpuYW1lZHZpZXcgaWQ9ImJhc2UiIHBhZ2Vjb2xvcj0iI2ZmZmZmZiIgYm9yZGVyY29sb3I9IiM2NjY2NjYiIGJvcmRlcm9wYWNpdHk9IjEuMCIgaW5rc2NhcGU6cGFnZW9wYWNpdHk9IjAuMCIgaW5rc2NhcGU6cGFnZXNoYWRvdz0iMiIgaW5rc2NhcGU6em9vbT0iOCIgaW5rc2NhcGU6Y3g9Ii0yLjA5MDAwNCIgaW5rc2NhcGU6Y3k9IjMzLjc1MjIzOSIgaW5rc2NhcGU6ZG9jdW1lbnQtdW5pdHM9Im1tIiBpbmtzY2FwZTpjdXJyZW50LWxheWVyPSJsYXllcjEiIHNob3dncmlkPSJmYWxzZSIgaW5rc2NhcGU6d2luZG93LXdpZHRoPSIxNDQwIiBpbmtzY2FwZTp3aW5kb3ctaGVpZ2h0PSI3NzUiIGlua3NjYXBlOndpbmRvdy14PSIwIiBpbmtzY2FwZTp3aW5kb3cteT0iMSIgaW5rc2NhcGU6d2luZG93LW1heGltaXplZD0iMSIgZml0LW1hcmdpbi10b3A9IjAiIGZpdC1tYXJnaW4tbGVmdD0iMCIgZml0LW1hcmdpbi1yaWdodD0iMCIgZml0LW1hcmdpbi1ib3R0b209IjAiLz4mI3hhOyAgJiN4YTsgIDxnIGlua3NjYXBlOmxhYmVsPSJDYWxxdWUgMSIgaW5rc2NhcGU6Z3JvdXBtb2RlPSJsYXllciIgaWQ9ImxheWVyMSIgdHJhbnNmb3JtPSJ0cmFuc2xhdGUoLTAuOTkyNjI2MzgsLTEuMTc0MTgxKSI+JiN4YTsgICAgPGcgaWQ9Imc3MCIgdHJhbnNmb3JtPSJtYXRyaXgoMS4wMTQ4ODg3LDAsMCwxLjAxNDg4ODcsMTYuOTAyMTQ2LC0yLjY5ODcyNikiPiYjeGE7ICAgICAgPHBhdGggaW5rc2NhcGU6ZXhwb3J0LXlkcGk9IjI1MC41NSIgaW5rc2NhcGU6ZXhwb3J0LXhkcGk9IjI1MC41NSIgaW5rc2NhcGU6ZXhwb3J0LWZpbGVuYW1lPSJuZXcucG5nIiBpbmtzY2FwZTpjb25uZWN0b3ItY3VydmF0dXJlPSIwIiBpZD0icGF0aDMwNTUiIGQ9Im0gLTYuODQ5MjAxNSw0LjI3MjQ2NjggYSAxLjExOTEyNTUsMS4xMDk5NjcxIDAgMCAwIC0wLjQyODg4MTgsMC4xMDg1MzAzIGwgLTUuODUyNDAzNywyLjc5NjMzOTQgYSAxLjExOTEyNTUsMS4xMDk5NjcxIDAgMCAwIC0wLjYwNTUyNCwwLjc1Mjk3NTkgbCAtMS40NDM4MjgsNi4yODEyODQ2IGEgMS4xMTkxMjU1LDEuMTA5OTY3MSAwIDAgMCAwLjE1MTk0MywwLjg1MTAyOCAxLjExOTEyNTUsMS4xMDk5NjcxIDAgMCAwIDAuMDYzNjIsMC4wODgzMiBsIDQuMDUwOCw1LjAzNjU1NSBhIDEuMTE5MTI1NSwxLjEwOTk2NzEgMCAwIDAgMC44NzQ5NzksMC40MTc2NTQgbCA2LjQ5NjEwMTEsLTAuMDAxNSBhIDEuMTE5MTI1NSwxLjEwOTk2NzEgMCAwIDAgMC44NzQ5Nzg4LC0wLjQxNjkwNiBMIDEuMzgxODg3MiwxNS4xNDk0NTMgQSAxLjExOTEyNTUsMS4xMDk5NjcxIDAgMCAwIDEuNTk4MTk4NiwxNC4yMTAxMDQgTCAwLjE1MjEyNjU3LDcuOTI4ODE1NCBBIDEuMTE5MTI1NSwxLjEwOTk2NzEgMCAwIDAgLTAuNDUzMzk3OTQsNy4xNzU4Mzk2IEwgLTYuMzA2NTQ5Niw0LjM4MDk5NzEgQSAxLjExOTEyNTUsMS4xMDk5NjcxIDAgMCAwIC02Ljg0OTIwMTUsNC4yNzI0NjY4IFoiIHN0eWxlPSJmaWxsOiMzMjZjZTU7ZmlsbC1vcGFjaXR5OjE7c3Ryb2tlOm5vbmU7c3Ryb2tlLXdpZHRoOjA7c3Ryb2tlLW1pdGVybGltaXQ6NDtzdHJva2UtZGFzaGFycmF5Om5vbmU7c3Ryb2tlLW9wYWNpdHk6MSIvPiYjeGE7ICAgICAgPHBhdGggaWQ9InBhdGgzMDU0LTItOSIgZD0iTSAtNi44NTIzNDM1LDMuODE3NjM3MiBBIDEuMTgxNDMwNCwxLjE3MTc2MiAwIDAgMCAtNy4zMDQ0Mjg0LDMuOTMyOTA0IGwgLTYuMTc4NzQyNiwyLjk1MTI3NTggYSAxLjE4MTQzMDQsMS4xNzE3NjIgMCAwIDAgLTAuNjM5MjA2LDAuNzk0ODkxIGwgLTEuNTIzOTE1LDYuNjMwODI4MiBhIDEuMTgxNDMwNCwxLjE3MTc2MiAwIDAgMCAwLjE2MDE3NSwwLjg5ODkzIDEuMTgxNDMwNCwxLjE3MTc2MiAwIDAgMCAwLjA2NzM2LDAuMDkyODEgbCA0LjI3NjA5NCw1LjMxNzIzNiBhIDEuMTgxNDMwNCwxLjE3MTc2MiAwIDAgMCAwLjkyMzYzLDAuNDQwODU4IGwgNi44NTc2MTg4LC0wLjAwMTUgYSAxLjE4MTQzMDQsMS4xNzE3NjIgMCAwIDAgMC45MjM2MzA4LC0wLjQ0MDExIGwgNC4yNzQ1OTY2LC01LjMxNzk4NSBhIDEuMTgxNDMwNCwxLjE3MTc2MiAwIDAgMCAwLjIyODI4OCwtMC45OTA5OTMgTCAwLjUzODk0NDM5LDcuNjc3NTczOCBBIDEuMTgxNDMwNCwxLjE3MTc2MiAwIDAgMCAtMC4xMDAyNjEwMSw2Ljg4MzQzMTMgTCAtNi4yNzkwMDM3LDMuOTMyMTU1NSBBIDEuMTgxNDMwNCwxLjE3MTc2MiAwIDAgMCAtNi44NTIzNDM1LDMuODE3NjM3MiBaIG0gMC4wMDI5OSwwLjQ1NTA3ODkgYSAxLjExOTEyNTUsMS4xMDk5NjcxIDAgMCAxIDAuNTQyNjUxNywwLjEwODUzMDMgbCA1Ljg1MzE1MTY5LDIuNzk0ODQyNSBBIDEuMTE5MTI1NSwxLjEwOTk2NzEgMCAwIDEgMC4xNTE5NzgxMSw3LjkyOTA2NDggTCAxLjU5ODA1MSwxNC4yMTAzNSBhIDEuMTE5MTI1NSwxLjEwOTk2NzEgMCAwIDEgLTAuMjE2MzEyMywwLjkzOTM0OCBsIC00LjA0OTMwMzIsNS4wMzczMDQgYSAxLjExOTEyNTUsMS4xMDk5NjcxIDAgMCAxIC0wLjg3NDk3ODksMC40MTY5MDYgbCAtNi40OTYxMDA2LDAuMDAxNSBhIDEuMTE5MTI1NSwxLjEwOTk2NzEgMCAwIDEgLTAuODc0OTc5LC0wLjQxNzY1MiBsIC00LjA1MDgsLTUuMDM2NTU0IGEgMS4xMTkxMjU1LDEuMTA5OTY3MSAwIDAgMSAtMC4wNjM2MiwtMC4wODgzMiAxLjExOTEyNTUsMS4xMDk5NjcxIDAgMCAxIC0wLjE1MTk0MiwtMC44NTEwMjggbCAxLjQ0MzgyNywtNi4yODEyODUzIGEgMS4xMTkxMjU1LDEuMTA5OTY3MSAwIDAgMSAwLjYwNTUyNCwtMC43NTI5NzU4IGwgNS44NTI0MDM2LC0yLjc5NjMzOTUgYSAxLjExOTEyNTUsMS4xMDk5NjcxIDAgMCAxIDAuNDI4ODgxOSwtMC4xMDg1MzAzIHoiIHN0eWxlPSJjb2xvcjojMDAwMDAwO2ZvbnQtc3R5bGU6bm9ybWFsO2ZvbnQtdmFyaWFudDpub3JtYWw7Zm9udC13ZWlnaHQ6bm9ybWFsO2ZvbnQtc3RyZXRjaDpub3JtYWw7Zm9udC1zaXplOm1lZGl1bTtsaW5lLWhlaWdodDpub3JtYWw7Zm9udC1mYW1pbHk6U2FuczstaW5rc2NhcGUtZm9udC1zcGVjaWZpY2F0aW9uOlNhbnM7dGV4dC1pbmRlbnQ6MDt0ZXh0LWFsaWduOnN0YXJ0O3RleHQtZGVjb3JhdGlvbjpub25lO3RleHQtZGVjb3JhdGlvbi1saW5lOm5vbmU7bGV0dGVyLXNwYWNpbmc6bm9ybWFsO3dvcmQtc3BhY2luZzpub3JtYWw7dGV4dC10cmFuc2Zvcm06bm9uZTt3cml0aW5nLW1vZGU6bHItdGI7ZGlyZWN0aW9uOmx0cjtiYXNlbGluZS1zaGlmdDpiYXNlbGluZTt0ZXh0LWFuY2hvcjpzdGFydDtkaXNwbGF5OmlubGluZTtvdmVyZmxvdzp2aXNpYmxlO3Zpc2liaWxpdHk6dmlzaWJsZTtmaWxsOiNmZmZmZmY7ZmlsbC1vcGFjaXR5OjE7ZmlsbC1ydWxlOm5vbnplcm87c3Ryb2tlOm5vbmU7c3Ryb2tlLXdpZHRoOjA7c3Ryb2tlLW1pdGVybGltaXQ6NDtzdHJva2UtZGFzaGFycmF5Om5vbmU7bWFya2VyOm5vbmU7ZW5hYmxlLWJhY2tncm91bmQ6YWNjdW11bGF0ZSIgaW5rc2NhcGU6Y29ubmVjdG9yLWN1cnZhdHVyZT0iMCIvPiYjeGE7ICAgIDwvZz4mI3hhOyAgICA8dGV4dCBpZD0idGV4dDIwNjYiIHk9IjE2LjgxMTc3NSIgeD0iMTAuMDU1MDc5IiBzdHlsZT0iZm9udC1zdHlsZTpub3JtYWw7Zm9udC13ZWlnaHQ6bm9ybWFsO2ZvbnQtc2l6ZToxMC41ODMzMzMwMnB4O2xpbmUtaGVpZ2h0OjYuNjE0NTgzNDlweDtmb250LWZhbWlseTpTYW5zO2xldHRlci1zcGFjaW5nOjBweDt3b3JkLXNwYWNpbmc6MHB4O2ZpbGw6I2ZmZmZmZjtmaWxsLW9wYWNpdHk6MTtzdHJva2U6bm9uZTtzdHJva2Utd2lkdGg6MC4yNjQ1ODMzMnB4O3N0cm9rZS1saW5lY2FwOmJ1dHQ7c3Ryb2tlLWxpbmVqb2luOm1pdGVyO3N0cm9rZS1vcGFjaXR5OjEiIHhtbDpzcGFjZT0icHJlc2VydmUiPjx0c3BhbiBzdHlsZT0iZm9udC1zdHlsZTpub3JtYWw7Zm9udC12YXJpYW50Om5vcm1hbDtmb250LXdlaWdodDpub3JtYWw7Zm9udC1zdHJldGNoOm5vcm1hbDtmb250LXNpemU6Mi44MjIyMjIyM3B4O2ZvbnQtZmFtaWx5OkFyaWFsOy1pbmtzY2FwZS1mb250LXNwZWNpZmljYXRpb246J0FyaWFsLCBOb3JtYWwnO3RleHQtYWxpZ246Y2VudGVyO3dyaXRpbmctbW9kZTpsci10Yjt0ZXh0LWFuY2hvcjptaWRkbGU7ZmlsbDojZmZmZmZmO2ZpbGwtb3BhY2l0eToxO3N0cm9rZS13aWR0aDowLjI2NDU4MzMycHgiIHk9IjE2LjgxMTc3NSIgeD0iMTAuMDU1MDc5IiBpZD0idHNwYW4yMDY0IiBzb2RpcG9kaTpyb2xlPSJsaW5lIj5jcmQ8L3RzcGFuPjwvdGV4dD4mI3hhOyAgICA8cGF0aCBzdHlsZT0iZmlsbDojZmZmZmZmO2ZpbGwtb3BhY2l0eToxO3N0cm9rZS13aWR0aDowLjQ2MTg1MzY4IiBpbmtzY2FwZTpjb25uZWN0b3ItY3VydmF0dXJlPSIwIiBkPSJtIDE0LjI2OTU2Niw4Ljc3NzUyMTkgLTAuNjkyNzgxLDAgMCwtMS44NDc0MTYgYyAwLC0wLjUwODAzODMgLTAuNDE1NjY4LC0wLjkyMzcwNjMgLTAuOTIzNzA2LC0wLjkyMzcwNjMgbCAtMS44NDc0MTYsMCAwLC0wLjY5Mjc4IGMgMCwtMC42MzczNTkgLTAuNTE3Mjc1LC0xLjE1NDYzNiAtMS4xNTQ2MzM0LC0xLjE1NDYzNiAtMC42MzczNTc4LDAgLTEuMTU0NjMzOCwwLjUxNzI3NyAtMS4xNTQ2MzM4LDEuMTU0NjM2IGwgMCwwLjY5Mjc4IC0xLjg0NzQxNiwwIGMgLTAuNTA4MDM4LDAgLTAuOTE5MDg5LDAuNDE1NjY4IC0wLjkxOTA4OSwwLjkyMzcwNjMgbCAwLDEuNzU1MDQ1IDAuNjg4MTY0LDAgYyAwLjY4ODE2MSwwIDEuMjQ3MDA1LDAuNTU4ODQzIDEuMjQ3MDA1LDEuMjQ3MDA1IDAsMC42ODgxNjIxIC0wLjU1ODg0NCwxLjI0NzAwNTEgLTEuMjQ3MDA1LDEuMjQ3MDA1MSBsIC0wLjY5Mjc4MSwwIDAsMS43NTUwNDUgYyAwLDAuNTA4MDM4IDAuNDE1NjY4LDAuOTIzNzA2IDAuOTIzNzA2LDAuOTIzNzA2IGwgMS43NTUwNDUsMCAwLC0wLjY5Mjc4MSBjIDAsLTAuNjg4MTYxIDAuNTU4ODQzLC0xLjI0NzAwNSAxLjI0NzAwNDgsLTEuMjQ3MDA1IDAuNjg4MTYyNCwwIDEuMjQ3MDA0NCwwLjU1ODg0NCAxLjI0NzAwNDQsMS4yNDcwMDUgbCAwLDAuNjkyNzgxIDEuNzU1MDQ1LDAgYyAwLjUwODAzOCwwIDAuOTIzNzA2LC0wLjQxNTY2OCAwLjkyMzcwNiwtMC45MjM3MDYgbCAwLC0xLjg0NzQxNiAwLjY5Mjc4MSwwIGMgMC42MzczNTgsMCAxLjE1NDYzNSwtMC41MTcyNzYgMS4xNTQ2MzUsLTEuMTU0NjM0MSAwLC0wLjYzNzM1OCAtMC41MTcyNzcsLTEuMTU0NjM0IC0xLjE1NDYzNSwtMS4xNTQ2MzQgeiIgaWQ9InBhdGg3NDE1Ii8+JiN4YTsgIDwvZz4mI3hhOzwvc3ZnPg==;" vertex="1" parent="1">
          <mxGeometry x="210" y="230" width="48" height="48" as="geometry" />
        </mxCell>
        <mxCell id="8zcdvciyAg1Ix1c_pIfZ-23" style="edgeStyle=orthogonalEdgeStyle;rounded=0;orthogonalLoop=1;jettySize=auto;html=1;entryX=1;entryY=0.5;entryDx=0;entryDy=0;dashed=1;" edge="1" parent="1" source="8zcdvciyAg1Ix1c_pIfZ-22" target="8zcdvciyAg1Ix1c_pIfZ-21">
          <mxGeometry relative="1" as="geometry" />
        </mxCell>
        <mxCell id="8zcdvciyAg1Ix1c_pIfZ-22" value="GatewayClass" style="shape=image;verticalLabelPosition=bottom;verticalAlign=top;imageAspect=0;aspect=fixed;image=data:image/svg+xml,PHN2ZyB4bWxuczpkYz0iaHR0cDovL3B1cmwub3JnL2RjL2VsZW1lbnRzLzEuMS8iIHhtbG5zOmNjPSJodHRwOi8vY3JlYXRpdmVjb21tb25zLm9yZy9ucyMiIHhtbG5zOnJkZj0iaHR0cDovL3d3dy53My5vcmcvMTk5OS8wMi8yMi1yZGYtc3ludGF4LW5zIyIgeG1sbnM6c3ZnPSJodHRwOi8vd3d3LnczLm9yZy8yMDAwL3N2ZyIgeG1sbnM9Imh0dHA6Ly93d3cudzMub3JnLzIwMDAvc3ZnIiB4bWxuczpzb2RpcG9kaT0iaHR0cDovL3NvZGlwb2RpLnNvdXJjZWZvcmdlLm5ldC9EVEQvc29kaXBvZGktMC5kdGQiIHhtbG5zOmlua3NjYXBlPSJodHRwOi8vd3d3Lmlua3NjYXBlLm9yZy9uYW1lc3BhY2VzL2lua3NjYXBlIiB3aWR0aD0iMTguMDM1MzM0bW0iIGhlaWdodD0iMTcuNTAwMzc4bW0iIHZpZXdCb3g9IjAgMCAxOC4wMzUzMzQgMTcuNTAwMzc4IiB2ZXJzaW9uPSIxLjEiIGlkPSJzdmcxMzgyNiIgaW5rc2NhcGU6dmVyc2lvbj0iMC45MSByMTM3MjUiIHNvZGlwb2RpOmRvY25hbWU9ImNyZC5zdmciPiYjeGE7ICA8ZGVmcyBpZD0iZGVmczEzODIwIi8+JiN4YTsgIDxzb2RpcG9kaTpuYW1lZHZpZXcgaWQ9ImJhc2UiIHBhZ2Vjb2xvcj0iI2ZmZmZmZiIgYm9yZGVyY29sb3I9IiM2NjY2NjYiIGJvcmRlcm9wYWNpdHk9IjEuMCIgaW5rc2NhcGU6cGFnZW9wYWNpdHk9IjAuMCIgaW5rc2NhcGU6cGFnZXNoYWRvdz0iMiIgaW5rc2NhcGU6em9vbT0iOCIgaW5rc2NhcGU6Y3g9Ii0yLjA5MDAwNCIgaW5rc2NhcGU6Y3k9IjMzLjc1MjIzOSIgaW5rc2NhcGU6ZG9jdW1lbnQtdW5pdHM9Im1tIiBpbmtzY2FwZTpjdXJyZW50LWxheWVyPSJsYXllcjEiIHNob3dncmlkPSJmYWxzZSIgaW5rc2NhcGU6d2luZG93LXdpZHRoPSIxNDQwIiBpbmtzY2FwZTp3aW5kb3ctaGVpZ2h0PSI3NzUiIGlua3NjYXBlOndpbmRvdy14PSIwIiBpbmtzY2FwZTp3aW5kb3cteT0iMSIgaW5rc2NhcGU6d2luZG93LW1heGltaXplZD0iMSIgZml0LW1hcmdpbi10b3A9IjAiIGZpdC1tYXJnaW4tbGVmdD0iMCIgZml0LW1hcmdpbi1yaWdodD0iMCIgZml0LW1hcmdpbi1ib3R0b209IjAiLz4mI3hhOyAgJiN4YTsgIDxnIGlua3NjYXBlOmxhYmVsPSJDYWxxdWUgMSIgaW5rc2NhcGU6Z3JvdXBtb2RlPSJsYXllciIgaWQ9ImxheWVyMSIgdHJhbnNmb3JtPSJ0cmFuc2xhdGUoLTAuOTkyNjI2MzgsLTEuMTc0MTgxKSI+JiN4YTsgICAgPGcgaWQ9Imc3MCIgdHJhbnNmb3JtPSJtYXRyaXgoMS4wMTQ4ODg3LDAsMCwxLjAxNDg4ODcsMTYuOTAyMTQ2LC0yLjY5ODcyNikiPiYjeGE7ICAgICAgPHBhdGggaW5rc2NhcGU6ZXhwb3J0LXlkcGk9IjI1MC41NSIgaW5rc2NhcGU6ZXhwb3J0LXhkcGk9IjI1MC41NSIgaW5rc2NhcGU6ZXhwb3J0LWZpbGVuYW1lPSJuZXcucG5nIiBpbmtzY2FwZTpjb25uZWN0b3ItY3VydmF0dXJlPSIwIiBpZD0icGF0aDMwNTUiIGQ9Im0gLTYuODQ5MjAxNSw0LjI3MjQ2NjggYSAxLjExOTEyNTUsMS4xMDk5NjcxIDAgMCAwIC0wLjQyODg4MTgsMC4xMDg1MzAzIGwgLTUuODUyNDAzNywyLjc5NjMzOTQgYSAxLjExOTEyNTUsMS4xMDk5NjcxIDAgMCAwIC0wLjYwNTUyNCwwLjc1Mjk3NTkgbCAtMS40NDM4MjgsNi4yODEyODQ2IGEgMS4xMTkxMjU1LDEuMTA5OTY3MSAwIDAgMCAwLjE1MTk0MywwLjg1MTAyOCAxLjExOTEyNTUsMS4xMDk5NjcxIDAgMCAwIDAuMDYzNjIsMC4wODgzMiBsIDQuMDUwOCw1LjAzNjU1NSBhIDEuMTE5MTI1NSwxLjEwOTk2NzEgMCAwIDAgMC44NzQ5NzksMC40MTc2NTQgbCA2LjQ5NjEwMTEsLTAuMDAxNSBhIDEuMTE5MTI1NSwxLjEwOTk2NzEgMCAwIDAgMC44NzQ5Nzg4LC0wLjQxNjkwNiBMIDEuMzgxODg3MiwxNS4xNDk0NTMgQSAxLjExOTEyNTUsMS4xMDk5NjcxIDAgMCAwIDEuNTk4MTk4NiwxNC4yMTAxMDQgTCAwLjE1MjEyNjU3LDcuOTI4ODE1NCBBIDEuMTE5MTI1NSwxLjEwOTk2NzEgMCAwIDAgLTAuNDUzMzk3OTQsNy4xNzU4Mzk2IEwgLTYuMzA2NTQ5Niw0LjM4MDk5NzEgQSAxLjExOTEyNTUsMS4xMDk5NjcxIDAgMCAwIC02Ljg0OTIwMTUsNC4yNzI0NjY4IFoiIHN0eWxlPSJmaWxsOiMzMjZjZTU7ZmlsbC1vcGFjaXR5OjE7c3Ryb2tlOm5vbmU7c3Ryb2tlLXdpZHRoOjA7c3Ryb2tlLW1pdGVybGltaXQ6NDtzdHJva2UtZGFzaGFycmF5Om5vbmU7c3Ryb2tlLW9wYWNpdHk6MSIvPiYjeGE7ICAgICAgPHBhdGggaWQ9InBhdGgzMDU0LTItOSIgZD0iTSAtNi44NTIzNDM1LDMuODE3NjM3MiBBIDEuMTgxNDMwNCwxLjE3MTc2MiAwIDAgMCAtNy4zMDQ0Mjg0LDMuOTMyOTA0IGwgLTYuMTc4NzQyNiwyLjk1MTI3NTggYSAxLjE4MTQzMDQsMS4xNzE3NjIgMCAwIDAgLTAuNjM5MjA2LDAuNzk0ODkxIGwgLTEuNTIzOTE1LDYuNjMwODI4MiBhIDEuMTgxNDMwNCwxLjE3MTc2MiAwIDAgMCAwLjE2MDE3NSwwLjg5ODkzIDEuMTgxNDMwNCwxLjE3MTc2MiAwIDAgMCAwLjA2NzM2LDAuMDkyODEgbCA0LjI3NjA5NCw1LjMxNzIzNiBhIDEuMTgxNDMwNCwxLjE3MTc2MiAwIDAgMCAwLjkyMzYzLDAuNDQwODU4IGwgNi44NTc2MTg4LC0wLjAwMTUgYSAxLjE4MTQzMDQsMS4xNzE3NjIgMCAwIDAgMC45MjM2MzA4LC0wLjQ0MDExIGwgNC4yNzQ1OTY2LC01LjMxNzk4NSBhIDEuMTgxNDMwNCwxLjE3MTc2MiAwIDAgMCAwLjIyODI4OCwtMC45OTA5OTMgTCAwLjUzODk0NDM5LDcuNjc3NTczOCBBIDEuMTgxNDMwNCwxLjE3MTc2MiAwIDAgMCAtMC4xMDAyNjEwMSw2Ljg4MzQzMTMgTCAtNi4yNzkwMDM3LDMuOTMyMTU1NSBBIDEuMTgxNDMwNCwxLjE3MTc2MiAwIDAgMCAtNi44NTIzNDM1LDMuODE3NjM3MiBaIG0gMC4wMDI5OSwwLjQ1NTA3ODkgYSAxLjExOTEyNTUsMS4xMDk5NjcxIDAgMCAxIDAuNTQyNjUxNywwLjEwODUzMDMgbCA1Ljg1MzE1MTY5LDIuNzk0ODQyNSBBIDEuMTE5MTI1NSwxLjEwOTk2NzEgMCAwIDEgMC4xNTE5NzgxMSw3LjkyOTA2NDggTCAxLjU5ODA1MSwxNC4yMTAzNSBhIDEuMTE5MTI1NSwxLjEwOTk2NzEgMCAwIDEgLTAuMjE2MzEyMywwLjkzOTM0OCBsIC00LjA0OTMwMzIsNS4wMzczMDQgYSAxLjExOTEyNTUsMS4xMDk5NjcxIDAgMCAxIC0wLjg3NDk3ODksMC40MTY5MDYgbCAtNi40OTYxMDA2LDAuMDAxNSBhIDEuMTE5MTI1NSwxLjEwOTk2NzEgMCAwIDEgLTAuODc0OTc5LC0wLjQxNzY1MiBsIC00LjA1MDgsLTUuMDM2NTU0IGEgMS4xMTkxMjU1LDEuMTA5OTY3MSAwIDAgMSAtMC4wNjM2MiwtMC4wODgzMiAxLjExOTEyNTUsMS4xMDk5NjcxIDAgMCAxIC0wLjE1MTk0MiwtMC44NTEwMjggbCAxLjQ0MzgyNywtNi4yODEyODUzIGEgMS4xMTkxMjU1LDEuMTA5OTY3MSAwIDAgMSAwLjYwNTUyNCwtMC43NTI5NzU4IGwgNS44NTI0MDM2LC0yLjc5NjMzOTUgYSAxLjExOTEyNTUsMS4xMDk5NjcxIDAgMCAxIDAuNDI4ODgxOSwtMC4xMDg1MzAzIHoiIHN0eWxlPSJjb2xvcjojMDAwMDAwO2ZvbnQtc3R5bGU6bm9ybWFsO2ZvbnQtdmFyaWFudDpub3JtYWw7Zm9udC13ZWlnaHQ6bm9ybWFsO2ZvbnQtc3RyZXRjaDpub3JtYWw7Zm9udC1zaXplOm1lZGl1bTtsaW5lLWhlaWdodDpub3JtYWw7Zm9udC1mYW1pbHk6U2FuczstaW5rc2NhcGUtZm9udC1zcGVjaWZpY2F0aW9uOlNhbnM7dGV4dC1pbmRlbnQ6MDt0ZXh0LWFsaWduOnN0YXJ0O3RleHQtZGVjb3JhdGlvbjpub25lO3RleHQtZGVjb3JhdGlvbi1saW5lOm5vbmU7bGV0dGVyLXNwYWNpbmc6bm9ybWFsO3dvcmQtc3BhY2luZzpub3JtYWw7dGV4dC10cmFuc2Zvcm06bm9uZTt3cml0aW5nLW1vZGU6bHItdGI7ZGlyZWN0aW9uOmx0cjtiYXNlbGluZS1zaGlmdDpiYXNlbGluZTt0ZXh0LWFuY2hvcjpzdGFydDtkaXNwbGF5OmlubGluZTtvdmVyZmxvdzp2aXNpYmxlO3Zpc2liaWxpdHk6dmlzaWJsZTtmaWxsOiNmZmZmZmY7ZmlsbC1vcGFjaXR5OjE7ZmlsbC1ydWxlOm5vbnplcm87c3Ryb2tlOm5vbmU7c3Ryb2tlLXdpZHRoOjA7c3Ryb2tlLW1pdGVybGltaXQ6NDtzdHJva2UtZGFzaGFycmF5Om5vbmU7bWFya2VyOm5vbmU7ZW5hYmxlLWJhY2tncm91bmQ6YWNjdW11bGF0ZSIgaW5rc2NhcGU6Y29ubmVjdG9yLWN1cnZhdHVyZT0iMCIvPiYjeGE7ICAgIDwvZz4mI3hhOyAgICA8dGV4dCBpZD0idGV4dDIwNjYiIHk9IjE2LjgxMTc3NSIgeD0iMTAuMDU1MDc5IiBzdHlsZT0iZm9udC1zdHlsZTpub3JtYWw7Zm9udC13ZWlnaHQ6bm9ybWFsO2ZvbnQtc2l6ZToxMC41ODMzMzMwMnB4O2xpbmUtaGVpZ2h0OjYuNjE0NTgzNDlweDtmb250LWZhbWlseTpTYW5zO2xldHRlci1zcGFjaW5nOjBweDt3b3JkLXNwYWNpbmc6MHB4O2ZpbGw6I2ZmZmZmZjtmaWxsLW9wYWNpdHk6MTtzdHJva2U6bm9uZTtzdHJva2Utd2lkdGg6MC4yNjQ1ODMzMnB4O3N0cm9rZS1saW5lY2FwOmJ1dHQ7c3Ryb2tlLWxpbmVqb2luOm1pdGVyO3N0cm9rZS1vcGFjaXR5OjEiIHhtbDpzcGFjZT0icHJlc2VydmUiPjx0c3BhbiBzdHlsZT0iZm9udC1zdHlsZTpub3JtYWw7Zm9udC12YXJpYW50Om5vcm1hbDtmb250LXdlaWdodDpub3JtYWw7Zm9udC1zdHJldGNoOm5vcm1hbDtmb250LXNpemU6Mi44MjIyMjIyM3B4O2ZvbnQtZmFtaWx5OkFyaWFsOy1pbmtzY2FwZS1mb250LXNwZWNpZmljYXRpb246J0FyaWFsLCBOb3JtYWwnO3RleHQtYWxpZ246Y2VudGVyO3dyaXRpbmctbW9kZTpsci10Yjt0ZXh0LWFuY2hvcjptaWRkbGU7ZmlsbDojZmZmZmZmO2ZpbGwtb3BhY2l0eToxO3N0cm9rZS13aWR0aDowLjI2NDU4MzMycHgiIHk9IjE2LjgxMTc3NSIgeD0iMTAuMDU1MDc5IiBpZD0idHNwYW4yMDY0IiBzb2RpcG9kaTpyb2xlPSJsaW5lIj5jcmQ8L3RzcGFuPjwvdGV4dD4mI3hhOyAgICA8cGF0aCBzdHlsZT0iZmlsbDojZmZmZmZmO2ZpbGwtb3BhY2l0eToxO3N0cm9rZS13aWR0aDowLjQ2MTg1MzY4IiBpbmtzY2FwZTpjb25uZWN0b3ItY3VydmF0dXJlPSIwIiBkPSJtIDE0LjI2OTU2Niw4Ljc3NzUyMTkgLTAuNjkyNzgxLDAgMCwtMS44NDc0MTYgYyAwLC0wLjUwODAzODMgLTAuNDE1NjY4LC0wLjkyMzcwNjMgLTAuOTIzNzA2LC0wLjkyMzcwNjMgbCAtMS44NDc0MTYsMCAwLC0wLjY5Mjc4IGMgMCwtMC42MzczNTkgLTAuNTE3Mjc1LC0xLjE1NDYzNiAtMS4xNTQ2MzM0LC0xLjE1NDYzNiAtMC42MzczNTc4LDAgLTEuMTU0NjMzOCwwLjUxNzI3NyAtMS4xNTQ2MzM4LDEuMTU0NjM2IGwgMCwwLjY5Mjc4IC0xLjg0NzQxNiwwIGMgLTAuNTA4MDM4LDAgLTAuOTE5MDg5LDAuNDE1NjY4IC0wLjkxOTA4OSwwLjkyMzcwNjMgbCAwLDEuNzU1MDQ1IDAuNjg4MTY0LDAgYyAwLjY4ODE2MSwwIDEuMjQ3MDA1LDAuNTU4ODQzIDEuMjQ3MDA1LDEuMjQ3MDA1IDAsMC42ODgxNjIxIC0wLjU1ODg0NCwxLjI0NzAwNTEgLTEuMjQ3MDA1LDEuMjQ3MDA1MSBsIC0wLjY5Mjc4MSwwIDAsMS43NTUwNDUgYyAwLDAuNTA4MDM4IDAuNDE1NjY4LDAuOTIzNzA2IDAuOTIzNzA2LDAuOTIzNzA2IGwgMS43NTUwNDUsMCAwLC0wLjY5Mjc4MSBjIDAsLTAuNjg4MTYxIDAuNTU4ODQzLC0xLjI0NzAwNSAxLjI0NzAwNDgsLTEuMjQ3MDA1IDAuNjg4MTYyNCwwIDEuMjQ3MDA0NCwwLjU1ODg0NCAxLjI0NzAwNDQsMS4yNDcwMDUgbCAwLDAuNjkyNzgxIDEuNzU1MDQ1LDAgYyAwLjUwODAzOCwwIDAuOTIzNzA2LC0wLjQxNTY2OCAwLjkyMzcwNiwtMC45MjM3MDYgbCAwLC0xLjg0NzQxNiAwLjY5Mjc4MSwwIGMgMC42MzczNTgsMCAxLjE1NDYzNSwtMC41MTcyNzYgMS4xNTQ2MzUsLTEuMTU0NjM0MSAwLC0wLjYzNzM1OCAtMC41MTcyNzcsLTEuMTU0NjM0IC0xLjE1NDYzNSwtMS4xNTQ2MzQgeiIgaWQ9InBhdGg3NDE1Ii8+JiN4YTsgIDwvZz4mI3hhOzwvc3ZnPg==;" vertex="1" parent="1">
          <mxGeometry x="390" y="230" width="48" height="48" as="geometry" />
        </mxCell>
        <mxCell id="8zcdvciyAg1Ix1c_pIfZ-25" style="edgeStyle=orthogonalEdgeStyle;rounded=0;orthogonalLoop=1;jettySize=auto;html=1;exitX=0.5;exitY=1;exitDx=0;exitDy=0;" edge="1" parent="1" source="8zcdvciyAg1Ix1c_pIfZ-11" target="8zcdvciyAg1Ix1c_pIfZ-11">
          <mxGeometry relative="1" as="geometry" />
        </mxCell>
        <mxCell id="8zcdvciyAg1Ix1c_pIfZ-34" style="edgeStyle=orthogonalEdgeStyle;rounded=0;orthogonalLoop=1;jettySize=auto;html=1;" edge="1" parent="1" source="8zcdvciyAg1Ix1c_pIfZ-28" target="8zcdvciyAg1Ix1c_pIfZ-33">
          <mxGeometry relative="1" as="geometry" />
        </mxCell>
        <mxCell id="8zcdvciyAg1Ix1c_pIfZ-28" value="app.example.com/app1&#xa;HTTPRoute" style="shape=image;verticalLabelPosition=bottom;verticalAlign=top;imageAspect=0;aspect=fixed;image=data:image/svg+xml,PHN2ZyB4bWxuczpkYz0iaHR0cDovL3B1cmwub3JnL2RjL2VsZW1lbnRzLzEuMS8iIHhtbG5zOmNjPSJodHRwOi8vY3JlYXRpdmVjb21tb25zLm9yZy9ucyMiIHhtbG5zOnJkZj0iaHR0cDovL3d3dy53My5vcmcvMTk5OS8wMi8yMi1yZGYtc3ludGF4LW5zIyIgeG1sbnM6c3ZnPSJodHRwOi8vd3d3LnczLm9yZy8yMDAwL3N2ZyIgeG1sbnM9Imh0dHA6Ly93d3cudzMub3JnLzIwMDAvc3ZnIiB4bWxuczpzb2RpcG9kaT0iaHR0cDovL3NvZGlwb2RpLnNvdXJjZWZvcmdlLm5ldC9EVEQvc29kaXBvZGktMC5kdGQiIHhtbG5zOmlua3NjYXBlPSJodHRwOi8vd3d3Lmlua3NjYXBlLm9yZy9uYW1lc3BhY2VzL2lua3NjYXBlIiB3aWR0aD0iMTguMDM1MzM0bW0iIGhlaWdodD0iMTcuNTAwMzc4bW0iIHZpZXdCb3g9IjAgMCAxOC4wMzUzMzQgMTcuNTAwMzc4IiB2ZXJzaW9uPSIxLjEiIGlkPSJzdmcxMzgyNiIgaW5rc2NhcGU6dmVyc2lvbj0iMC45MSByMTM3MjUiIHNvZGlwb2RpOmRvY25hbWU9ImNyZC5zdmciPiYjeGE7ICA8ZGVmcyBpZD0iZGVmczEzODIwIi8+JiN4YTsgIDxzb2RpcG9kaTpuYW1lZHZpZXcgaWQ9ImJhc2UiIHBhZ2Vjb2xvcj0iI2ZmZmZmZiIgYm9yZGVyY29sb3I9IiM2NjY2NjYiIGJvcmRlcm9wYWNpdHk9IjEuMCIgaW5rc2NhcGU6cGFnZW9wYWNpdHk9IjAuMCIgaW5rc2NhcGU6cGFnZXNoYWRvdz0iMiIgaW5rc2NhcGU6em9vbT0iOCIgaW5rc2NhcGU6Y3g9Ii0yLjA5MDAwNCIgaW5rc2NhcGU6Y3k9IjMzLjc1MjIzOSIgaW5rc2NhcGU6ZG9jdW1lbnQtdW5pdHM9Im1tIiBpbmtzY2FwZTpjdXJyZW50LWxheWVyPSJsYXllcjEiIHNob3dncmlkPSJmYWxzZSIgaW5rc2NhcGU6d2luZG93LXdpZHRoPSIxNDQwIiBpbmtzY2FwZTp3aW5kb3ctaGVpZ2h0PSI3NzUiIGlua3NjYXBlOndpbmRvdy14PSIwIiBpbmtzY2FwZTp3aW5kb3cteT0iMSIgaW5rc2NhcGU6d2luZG93LW1heGltaXplZD0iMSIgZml0LW1hcmdpbi10b3A9IjAiIGZpdC1tYXJnaW4tbGVmdD0iMCIgZml0LW1hcmdpbi1yaWdodD0iMCIgZml0LW1hcmdpbi1ib3R0b209IjAiLz4mI3hhOyAgJiN4YTsgIDxnIGlua3NjYXBlOmxhYmVsPSJDYWxxdWUgMSIgaW5rc2NhcGU6Z3JvdXBtb2RlPSJsYXllciIgaWQ9ImxheWVyMSIgdHJhbnNmb3JtPSJ0cmFuc2xhdGUoLTAuOTkyNjI2MzgsLTEuMTc0MTgxKSI+JiN4YTsgICAgPGcgaWQ9Imc3MCIgdHJhbnNmb3JtPSJtYXRyaXgoMS4wMTQ4ODg3LDAsMCwxLjAxNDg4ODcsMTYuOTAyMTQ2LC0yLjY5ODcyNikiPiYjeGE7ICAgICAgPHBhdGggaW5rc2NhcGU6ZXhwb3J0LXlkcGk9IjI1MC41NSIgaW5rc2NhcGU6ZXhwb3J0LXhkcGk9IjI1MC41NSIgaW5rc2NhcGU6ZXhwb3J0LWZpbGVuYW1lPSJuZXcucG5nIiBpbmtzY2FwZTpjb25uZWN0b3ItY3VydmF0dXJlPSIwIiBpZD0icGF0aDMwNTUiIGQ9Im0gLTYuODQ5MjAxNSw0LjI3MjQ2NjggYSAxLjExOTEyNTUsMS4xMDk5NjcxIDAgMCAwIC0wLjQyODg4MTgsMC4xMDg1MzAzIGwgLTUuODUyNDAzNywyLjc5NjMzOTQgYSAxLjExOTEyNTUsMS4xMDk5NjcxIDAgMCAwIC0wLjYwNTUyNCwwLjc1Mjk3NTkgbCAtMS40NDM4MjgsNi4yODEyODQ2IGEgMS4xMTkxMjU1LDEuMTA5OTY3MSAwIDAgMCAwLjE1MTk0MywwLjg1MTAyOCAxLjExOTEyNTUsMS4xMDk5NjcxIDAgMCAwIDAuMDYzNjIsMC4wODgzMiBsIDQuMDUwOCw1LjAzNjU1NSBhIDEuMTE5MTI1NSwxLjEwOTk2NzEgMCAwIDAgMC44NzQ5NzksMC40MTc2NTQgbCA2LjQ5NjEwMTEsLTAuMDAxNSBhIDEuMTE5MTI1NSwxLjEwOTk2NzEgMCAwIDAgMC44NzQ5Nzg4LC0wLjQxNjkwNiBMIDEuMzgxODg3MiwxNS4xNDk0NTMgQSAxLjExOTEyNTUsMS4xMDk5NjcxIDAgMCAwIDEuNTk4MTk4NiwxNC4yMTAxMDQgTCAwLjE1MjEyNjU3LDcuOTI4ODE1NCBBIDEuMTE5MTI1NSwxLjEwOTk2NzEgMCAwIDAgLTAuNDUzMzk3OTQsNy4xNzU4Mzk2IEwgLTYuMzA2NTQ5Niw0LjM4MDk5NzEgQSAxLjExOTEyNTUsMS4xMDk5NjcxIDAgMCAwIC02Ljg0OTIwMTUsNC4yNzI0NjY4IFoiIHN0eWxlPSJmaWxsOiMzMjZjZTU7ZmlsbC1vcGFjaXR5OjE7c3Ryb2tlOm5vbmU7c3Ryb2tlLXdpZHRoOjA7c3Ryb2tlLW1pdGVybGltaXQ6NDtzdHJva2UtZGFzaGFycmF5Om5vbmU7c3Ryb2tlLW9wYWNpdHk6MSIvPiYjeGE7ICAgICAgPHBhdGggaWQ9InBhdGgzMDU0LTItOSIgZD0iTSAtNi44NTIzNDM1LDMuODE3NjM3MiBBIDEuMTgxNDMwNCwxLjE3MTc2MiAwIDAgMCAtNy4zMDQ0Mjg0LDMuOTMyOTA0IGwgLTYuMTc4NzQyNiwyLjk1MTI3NTggYSAxLjE4MTQzMDQsMS4xNzE3NjIgMCAwIDAgLTAuNjM5MjA2LDAuNzk0ODkxIGwgLTEuNTIzOTE1LDYuNjMwODI4MiBhIDEuMTgxNDMwNCwxLjE3MTc2MiAwIDAgMCAwLjE2MDE3NSwwLjg5ODkzIDEuMTgxNDMwNCwxLjE3MTc2MiAwIDAgMCAwLjA2NzM2LDAuMDkyODEgbCA0LjI3NjA5NCw1LjMxNzIzNiBhIDEuMTgxNDMwNCwxLjE3MTc2MiAwIDAgMCAwLjkyMzYzLDAuNDQwODU4IGwgNi44NTc2MTg4LC0wLjAwMTUgYSAxLjE4MTQzMDQsMS4xNzE3NjIgMCAwIDAgMC45MjM2MzA4LC0wLjQ0MDExIGwgNC4yNzQ1OTY2LC01LjMxNzk4NSBhIDEuMTgxNDMwNCwxLjE3MTc2MiAwIDAgMCAwLjIyODI4OCwtMC45OTA5OTMgTCAwLjUzODk0NDM5LDcuNjc3NTczOCBBIDEuMTgxNDMwNCwxLjE3MTc2MiAwIDAgMCAtMC4xMDAyNjEwMSw2Ljg4MzQzMTMgTCAtNi4yNzkwMDM3LDMuOTMyMTU1NSBBIDEuMTgxNDMwNCwxLjE3MTc2MiAwIDAgMCAtNi44NTIzNDM1LDMuODE3NjM3MiBaIG0gMC4wMDI5OSwwLjQ1NTA3ODkgYSAxLjExOTEyNTUsMS4xMDk5NjcxIDAgMCAxIDAuNTQyNjUxNywwLjEwODUzMDMgbCA1Ljg1MzE1MTY5LDIuNzk0ODQyNSBBIDEuMTE5MTI1NSwxLjEwOTk2NzEgMCAwIDEgMC4xNTE5NzgxMSw3LjkyOTA2NDggTCAxLjU5ODA1MSwxNC4yMTAzNSBhIDEuMTE5MTI1NSwxLjEwOTk2NzEgMCAwIDEgLTAuMjE2MzEyMywwLjkzOTM0OCBsIC00LjA0OTMwMzIsNS4wMzczMDQgYSAxLjExOTEyNTUsMS4xMDk5NjcxIDAgMCAxIC0wLjg3NDk3ODksMC40MTY5MDYgbCAtNi40OTYxMDA2LDAuMDAxNSBhIDEuMTE5MTI1NSwxLjEwOTk2NzEgMCAwIDEgLTAuODc0OTc5LC0wLjQxNzY1MiBsIC00LjA1MDgsLTUuMDM2NTU0IGEgMS4xMTkxMjU1LDEuMTA5OTY3MSAwIDAgMSAtMC4wNjM2MiwtMC4wODgzMiAxLjExOTEyNTUsMS4xMDk5NjcxIDAgMCAxIC0wLjE1MTk0MiwtMC44NTEwMjggbCAxLjQ0MzgyNywtNi4yODEyODUzIGEgMS4xMTkxMjU1LDEuMTA5OTY3MSAwIDAgMSAwLjYwNTUyNCwtMC43NTI5NzU4IGwgNS44NTI0MDM2LC0yLjc5NjMzOTUgYSAxLjExOTEyNTUsMS4xMDk5NjcxIDAgMCAxIDAuNDI4ODgxOSwtMC4xMDg1MzAzIHoiIHN0eWxlPSJjb2xvcjojMDAwMDAwO2ZvbnQtc3R5bGU6bm9ybWFsO2ZvbnQtdmFyaWFudDpub3JtYWw7Zm9udC13ZWlnaHQ6bm9ybWFsO2ZvbnQtc3RyZXRjaDpub3JtYWw7Zm9udC1zaXplOm1lZGl1bTtsaW5lLWhlaWdodDpub3JtYWw7Zm9udC1mYW1pbHk6U2FuczstaW5rc2NhcGUtZm9udC1zcGVjaWZpY2F0aW9uOlNhbnM7dGV4dC1pbmRlbnQ6MDt0ZXh0LWFsaWduOnN0YXJ0O3RleHQtZGVjb3JhdGlvbjpub25lO3RleHQtZGVjb3JhdGlvbi1saW5lOm5vbmU7bGV0dGVyLXNwYWNpbmc6bm9ybWFsO3dvcmQtc3BhY2luZzpub3JtYWw7dGV4dC10cmFuc2Zvcm06bm9uZTt3cml0aW5nLW1vZGU6bHItdGI7ZGlyZWN0aW9uOmx0cjtiYXNlbGluZS1zaGlmdDpiYXNlbGluZTt0ZXh0LWFuY2hvcjpzdGFydDtkaXNwbGF5OmlubGluZTtvdmVyZmxvdzp2aXNpYmxlO3Zpc2liaWxpdHk6dmlzaWJsZTtmaWxsOiNmZmZmZmY7ZmlsbC1vcGFjaXR5OjE7ZmlsbC1ydWxlOm5vbnplcm87c3Ryb2tlOm5vbmU7c3Ryb2tlLXdpZHRoOjA7c3Ryb2tlLW1pdGVybGltaXQ6NDtzdHJva2UtZGFzaGFycmF5Om5vbmU7bWFya2VyOm5vbmU7ZW5hYmxlLWJhY2tncm91bmQ6YWNjdW11bGF0ZSIgaW5rc2NhcGU6Y29ubmVjdG9yLWN1cnZhdHVyZT0iMCIvPiYjeGE7ICAgIDwvZz4mI3hhOyAgICA8dGV4dCBpZD0idGV4dDIwNjYiIHk9IjE2LjgxMTc3NSIgeD0iMTAuMDU1MDc5IiBzdHlsZT0iZm9udC1zdHlsZTpub3JtYWw7Zm9udC13ZWlnaHQ6bm9ybWFsO2ZvbnQtc2l6ZToxMC41ODMzMzMwMnB4O2xpbmUtaGVpZ2h0OjYuNjE0NTgzNDlweDtmb250LWZhbWlseTpTYW5zO2xldHRlci1zcGFjaW5nOjBweDt3b3JkLXNwYWNpbmc6MHB4O2ZpbGw6I2ZmZmZmZjtmaWxsLW9wYWNpdHk6MTtzdHJva2U6bm9uZTtzdHJva2Utd2lkdGg6MC4yNjQ1ODMzMnB4O3N0cm9rZS1saW5lY2FwOmJ1dHQ7c3Ryb2tlLWxpbmVqb2luOm1pdGVyO3N0cm9rZS1vcGFjaXR5OjEiIHhtbDpzcGFjZT0icHJlc2VydmUiPjx0c3BhbiBzdHlsZT0iZm9udC1zdHlsZTpub3JtYWw7Zm9udC12YXJpYW50Om5vcm1hbDtmb250LXdlaWdodDpub3JtYWw7Zm9udC1zdHJldGNoOm5vcm1hbDtmb250LXNpemU6Mi44MjIyMjIyM3B4O2ZvbnQtZmFtaWx5OkFyaWFsOy1pbmtzY2FwZS1mb250LXNwZWNpZmljYXRpb246J0FyaWFsLCBOb3JtYWwnO3RleHQtYWxpZ246Y2VudGVyO3dyaXRpbmctbW9kZTpsci10Yjt0ZXh0LWFuY2hvcjptaWRkbGU7ZmlsbDojZmZmZmZmO2ZpbGwtb3BhY2l0eToxO3N0cm9rZS13aWR0aDowLjI2NDU4MzMycHgiIHk9IjE2LjgxMTc3NSIgeD0iMTAuMDU1MDc5IiBpZD0idHNwYW4yMDY0IiBzb2RpcG9kaTpyb2xlPSJsaW5lIj5jcmQ8L3RzcGFuPjwvdGV4dD4mI3hhOyAgICA8cGF0aCBzdHlsZT0iZmlsbDojZmZmZmZmO2ZpbGwtb3BhY2l0eToxO3N0cm9rZS13aWR0aDowLjQ2MTg1MzY4IiBpbmtzY2FwZTpjb25uZWN0b3ItY3VydmF0dXJlPSIwIiBkPSJtIDE0LjI2OTU2Niw4Ljc3NzUyMTkgLTAuNjkyNzgxLDAgMCwtMS44NDc0MTYgYyAwLC0wLjUwODAzODMgLTAuNDE1NjY4LC0wLjkyMzcwNjMgLTAuOTIzNzA2LC0wLjkyMzcwNjMgbCAtMS44NDc0MTYsMCAwLC0wLjY5Mjc4IGMgMCwtMC42MzczNTkgLTAuNTE3Mjc1LC0xLjE1NDYzNiAtMS4xNTQ2MzM0LC0xLjE1NDYzNiAtMC42MzczNTc4LDAgLTEuMTU0NjMzOCwwLjUxNzI3NyAtMS4xNTQ2MzM4LDEuMTU0NjM2IGwgMCwwLjY5Mjc4IC0xLjg0NzQxNiwwIGMgLTAuNTA4MDM4LDAgLTAuOTE5MDg5LDAuNDE1NjY4IC0wLjkxOTA4OSwwLjkyMzcwNjMgbCAwLDEuNzU1MDQ1IDAuNjg4MTY0LDAgYyAwLjY4ODE2MSwwIDEuMjQ3MDA1LDAuNTU4ODQzIDEuMjQ3MDA1LDEuMjQ3MDA1IDAsMC42ODgxNjIxIC0wLjU1ODg0NCwxLjI0NzAwNTEgLTEuMjQ3MDA1LDEuMjQ3MDA1MSBsIC0wLjY5Mjc4MSwwIDAsMS43NTUwNDUgYyAwLDAuNTA4MDM4IDAuNDE1NjY4LDAuOTIzNzA2IDAuOTIzNzA2LDAuOTIzNzA2IGwgMS43NTUwNDUsMCAwLC0wLjY5Mjc4MSBjIDAsLTAuNjg4MTYxIDAuNTU4ODQzLC0xLjI0NzAwNSAxLjI0NzAwNDgsLTEuMjQ3MDA1IDAuNjg4MTYyNCwwIDEuMjQ3MDA0NCwwLjU1ODg0NCAxLjI0NzAwNDQsMS4yNDcwMDUgbCAwLDAuNjkyNzgxIDEuNzU1MDQ1LDAgYyAwLjUwODAzOCwwIDAuOTIzNzA2LC0wLjQxNTY2OCAwLjkyMzcwNiwtMC45MjM3MDYgbCAwLC0xLjg0NzQxNiAwLjY5Mjc4MSwwIGMgMC42MzczNTgsMCAxLjE1NDYzNSwtMC41MTcyNzYgMS4xNTQ2MzUsLTEuMTU0NjM0MSAwLC0wLjYzNzM1OCAtMC41MTcyNzcsLTEuMTU0NjM0IC0xLjE1NDYzNSwtMS4xNTQ2MzQgeiIgaWQ9InBhdGg3NDE1Ii8+JiN4YTsgIDwvZz4mI3hhOzwvc3ZnPg==;" vertex="1" parent="1">
          <mxGeometry x="262" y="440" width="48" height="48" as="geometry" />
        </mxCell>
        <mxCell id="8zcdvciyAg1Ix1c_pIfZ-30" value="app1" style="shape=image;verticalLabelPosition=bottom;verticalAlign=top;imageAspect=0;aspect=fixed;image=data:image/svg+xml,PHN2ZyB4bWxuczpkYz0iaHR0cDovL3B1cmwub3JnL2RjL2VsZW1lbnRzLzEuMS8iIHhtbG5zOmNjPSJodHRwOi8vY3JlYXRpdmVjb21tb25zLm9yZy9ucyMiIHhtbG5zOnJkZj0iaHR0cDovL3d3dy53My5vcmcvMTk5OS8wMi8yMi1yZGYtc3ludGF4LW5zIyIgeG1sbnM6c3ZnPSJodHRwOi8vd3d3LnczLm9yZy8yMDAwL3N2ZyIgeG1sbnM9Imh0dHA6Ly93d3cudzMub3JnLzIwMDAvc3ZnIiB4bWxuczpzb2RpcG9kaT0iaHR0cDovL3NvZGlwb2RpLnNvdXJjZWZvcmdlLm5ldC9EVEQvc29kaXBvZGktMC5kdGQiIHhtbG5zOmlua3NjYXBlPSJodHRwOi8vd3d3Lmlua3NjYXBlLm9yZy9uYW1lc3BhY2VzL2lua3NjYXBlIiB3aWR0aD0iMTguMDM1MzM0bW0iIGhlaWdodD0iMTcuNTAwMzc4bW0iIHZpZXdCb3g9IjAgMCAxOC4wMzUzMzQgMTcuNTAwMzc4IiB2ZXJzaW9uPSIxLjEiIGlkPSJzdmcxMzgyNiIgaW5rc2NhcGU6dmVyc2lvbj0iMC45MSByMTM3MjUiIHNvZGlwb2RpOmRvY25hbWU9Im5zLnN2ZyI+JiN4YTsgIDxkZWZzIGlkPSJkZWZzMTM4MjAiLz4mI3hhOyAgPHNvZGlwb2RpOm5hbWVkdmlldyBpZD0iYmFzZSIgcGFnZWNvbG9yPSIjZmZmZmZmIiBib3JkZXJjb2xvcj0iIzY2NjY2NiIgYm9yZGVyb3BhY2l0eT0iMS4wIiBpbmtzY2FwZTpwYWdlb3BhY2l0eT0iMC4wIiBpbmtzY2FwZTpwYWdlc2hhZG93PSIyIiBpbmtzY2FwZTp6b29tPSI4IiBpbmtzY2FwZTpjeD0iMTYuODQ3NDk2IiBpbmtzY2FwZTpjeT0iMjMuNzUyMjM5IiBpbmtzY2FwZTpkb2N1bWVudC11bml0cz0ibW0iIGlua3NjYXBlOmN1cnJlbnQtbGF5ZXI9ImxheWVyMSIgc2hvd2dyaWQ9ImZhbHNlIiBpbmtzY2FwZTp3aW5kb3ctd2lkdGg9IjE0NDAiIGlua3NjYXBlOndpbmRvdy1oZWlnaHQ9Ijc3NSIgaW5rc2NhcGU6d2luZG93LXg9IjAiIGlua3NjYXBlOndpbmRvdy15PSIxIiBpbmtzY2FwZTp3aW5kb3ctbWF4aW1pemVkPSIxIiBmaXQtbWFyZ2luLXRvcD0iMCIgZml0LW1hcmdpbi1sZWZ0PSIwIiBmaXQtbWFyZ2luLXJpZ2h0PSIwIiBmaXQtbWFyZ2luLWJvdHRvbT0iMCIvPiYjeGE7ICAmI3hhOyAgPGcgaW5rc2NhcGU6bGFiZWw9IkNhbHF1ZSAxIiBpbmtzY2FwZTpncm91cG1vZGU9ImxheWVyIiBpZD0ibGF5ZXIxIiB0cmFuc2Zvcm09InRyYW5zbGF0ZSgtMC45OTI2MjYzOCwtMS4xNzQxODEpIj4mI3hhOyAgICA8ZyBpZD0iZzcwIiB0cmFuc2Zvcm09Im1hdHJpeCgxLjAxNDg4ODcsMCwwLDEuMDE0ODg4NywxNi45MDIxNDYsLTIuNjk4NzI2KSI+JiN4YTsgICAgICA8cGF0aCBpbmtzY2FwZTpleHBvcnQteWRwaT0iMjUwLjU1IiBpbmtzY2FwZTpleHBvcnQteGRwaT0iMjUwLjU1IiBpbmtzY2FwZTpleHBvcnQtZmlsZW5hbWU9Im5ldy5wbmciIGlua3NjYXBlOmNvbm5lY3Rvci1jdXJ2YXR1cmU9IjAiIGlkPSJwYXRoMzA1NSIgZD0ibSAtNi44NDkyMDE1LDQuMjcyNDY2OCBhIDEuMTE5MTI1NSwxLjEwOTk2NzEgMCAwIDAgLTAuNDI4ODgxOCwwLjEwODUzMDMgbCAtNS44NTI0MDM3LDIuNzk2MzM5NCBhIDEuMTE5MTI1NSwxLjEwOTk2NzEgMCAwIDAgLTAuNjA1NTI0LDAuNzUyOTc1OSBsIC0xLjQ0MzgyOCw2LjI4MTI4NDYgYSAxLjExOTEyNTUsMS4xMDk5NjcxIDAgMCAwIDAuMTUxOTQzLDAuODUxMDI4IDEuMTE5MTI1NSwxLjEwOTk2NzEgMCAwIDAgMC4wNjM2MiwwLjA4ODMyIGwgNC4wNTA4LDUuMDM2NTU1IGEgMS4xMTkxMjU1LDEuMTA5OTY3MSAwIDAgMCAwLjg3NDk3OSwwLjQxNzY1NCBsIDYuNDk2MTAxMSwtMC4wMDE1IGEgMS4xMTkxMjU1LDEuMTA5OTY3MSAwIDAgMCAwLjg3NDk3ODgsLTAuNDE2OTA2IEwgMS4zODE4ODcyLDE1LjE0OTQ1MyBBIDEuMTE5MTI1NSwxLjEwOTk2NzEgMCAwIDAgMS41OTgxOTg2LDE0LjIxMDEwNCBMIDAuMTUyMTI2NTcsNy45Mjg4MTU0IEEgMS4xMTkxMjU1LDEuMTA5OTY3MSAwIDAgMCAtMC40NTMzOTc5NCw3LjE3NTgzOTYgTCAtNi4zMDY1NDk2LDQuMzgwOTk3MSBBIDEuMTE5MTI1NSwxLjEwOTk2NzEgMCAwIDAgLTYuODQ5MjAxNSw0LjI3MjQ2NjggWiIgc3R5bGU9ImZpbGw6IzMyNmNlNTtmaWxsLW9wYWNpdHk6MTtzdHJva2U6bm9uZTtzdHJva2Utd2lkdGg6MDtzdHJva2UtbWl0ZXJsaW1pdDo0O3N0cm9rZS1kYXNoYXJyYXk6bm9uZTtzdHJva2Utb3BhY2l0eToxIi8+JiN4YTsgICAgICA8cGF0aCBpZD0icGF0aDMwNTQtMi05IiBkPSJNIC02Ljg1MjM0MzUsMy44MTc2MzcyIEEgMS4xODE0MzA0LDEuMTcxNzYyIDAgMCAwIC03LjMwNDQyODQsMy45MzI5MDQgbCAtNi4xNzg3NDI2LDIuOTUxMjc1OCBhIDEuMTgxNDMwNCwxLjE3MTc2MiAwIDAgMCAtMC42MzkyMDYsMC43OTQ4OTEgbCAtMS41MjM5MTUsNi42MzA4MjgyIGEgMS4xODE0MzA0LDEuMTcxNzYyIDAgMCAwIDAuMTYwMTc1LDAuODk4OTMgMS4xODE0MzA0LDEuMTcxNzYyIDAgMCAwIDAuMDY3MzYsMC4wOTI4MSBsIDQuMjc2MDk0LDUuMzE3MjM2IGEgMS4xODE0MzA0LDEuMTcxNzYyIDAgMCAwIDAuOTIzNjMsMC40NDA4NTggbCA2Ljg1NzYxODgsLTAuMDAxNSBhIDEuMTgxNDMwNCwxLjE3MTc2MiAwIDAgMCAwLjkyMzYzMDgsLTAuNDQwMTEgbCA0LjI3NDU5NjYsLTUuMzE3OTg1IGEgMS4xODE0MzA0LDEuMTcxNzYyIDAgMCAwIDAuMjI4Mjg4LC0wLjk5MDk5MyBMIDAuNTM4OTQ0MzksNy42Nzc1NzM4IEEgMS4xODE0MzA0LDEuMTcxNzYyIDAgMCAwIC0wLjEwMDI2MTAxLDYuODgzNDMxMyBMIC02LjI3OTAwMzcsMy45MzIxNTU1IEEgMS4xODE0MzA0LDEuMTcxNzYyIDAgMCAwIC02Ljg1MjM0MzUsMy44MTc2MzcyIFogbSAwLjAwMjk5LDAuNDU1MDc4OSBhIDEuMTE5MTI1NSwxLjEwOTk2NzEgMCAwIDEgMC41NDI2NTE3LDAuMTA4NTMwMyBsIDUuODUzMTUxNjksMi43OTQ4NDI1IEEgMS4xMTkxMjU1LDEuMTA5OTY3MSAwIDAgMSAwLjE1MTk3ODExLDcuOTI5MDY0OCBMIDEuNTk4MDUxLDE0LjIxMDM1IGEgMS4xMTkxMjU1LDEuMTA5OTY3MSAwIDAgMSAtMC4yMTYzMTIzLDAuOTM5MzQ4IGwgLTQuMDQ5MzAzMiw1LjAzNzMwNCBhIDEuMTE5MTI1NSwxLjEwOTk2NzEgMCAwIDEgLTAuODc0OTc4OSwwLjQxNjkwNiBsIC02LjQ5NjEwMDYsMC4wMDE1IGEgMS4xMTkxMjU1LDEuMTA5OTY3MSAwIDAgMSAtMC44NzQ5NzksLTAuNDE3NjUyIGwgLTQuMDUwOCwtNS4wMzY1NTQgYSAxLjExOTEyNTUsMS4xMDk5NjcxIDAgMCAxIC0wLjA2MzYyLC0wLjA4ODMyIDEuMTE5MTI1NSwxLjEwOTk2NzEgMCAwIDEgLTAuMTUxOTQyLC0wLjg1MTAyOCBsIDEuNDQzODI3LC02LjI4MTI4NTMgYSAxLjExOTEyNTUsMS4xMDk5NjcxIDAgMCAxIDAuNjA1NTI0LC0wLjc1Mjk3NTggbCA1Ljg1MjQwMzYsLTIuNzk2MzM5NSBhIDEuMTE5MTI1NSwxLjEwOTk2NzEgMCAwIDEgMC40Mjg4ODE5LC0wLjEwODUzMDMgeiIgc3R5bGU9ImNvbG9yOiMwMDAwMDA7Zm9udC1zdHlsZTpub3JtYWw7Zm9udC12YXJpYW50Om5vcm1hbDtmb250LXdlaWdodDpub3JtYWw7Zm9udC1zdHJldGNoOm5vcm1hbDtmb250LXNpemU6bWVkaXVtO2xpbmUtaGVpZ2h0Om5vcm1hbDtmb250LWZhbWlseTpTYW5zOy1pbmtzY2FwZS1mb250LXNwZWNpZmljYXRpb246U2Fuczt0ZXh0LWluZGVudDowO3RleHQtYWxpZ246c3RhcnQ7dGV4dC1kZWNvcmF0aW9uOm5vbmU7dGV4dC1kZWNvcmF0aW9uLWxpbmU6bm9uZTtsZXR0ZXItc3BhY2luZzpub3JtYWw7d29yZC1zcGFjaW5nOm5vcm1hbDt0ZXh0LXRyYW5zZm9ybTpub25lO3dyaXRpbmctbW9kZTpsci10YjtkaXJlY3Rpb246bHRyO2Jhc2VsaW5lLXNoaWZ0OmJhc2VsaW5lO3RleHQtYW5jaG9yOnN0YXJ0O2Rpc3BsYXk6aW5saW5lO292ZXJmbG93OnZpc2libGU7dmlzaWJpbGl0eTp2aXNpYmxlO2ZpbGw6I2ZmZmZmZjtmaWxsLW9wYWNpdHk6MTtmaWxsLXJ1bGU6bm9uemVybztzdHJva2U6bm9uZTtzdHJva2Utd2lkdGg6MDtzdHJva2UtbWl0ZXJsaW1pdDo0O3N0cm9rZS1kYXNoYXJyYXk6bm9uZTttYXJrZXI6bm9uZTtlbmFibGUtYmFja2dyb3VuZDphY2N1bXVsYXRlIiBpbmtzY2FwZTpjb25uZWN0b3ItY3VydmF0dXJlPSIwIi8+JiN4YTsgICAgPC9nPiYjeGE7ICAgIDx0ZXh0IGlkPSJ0ZXh0MjA2NiIgeT0iMTYuODExNzc1IiB4PSI5Ljk3MTcwODMiIHN0eWxlPSJmb250LXN0eWxlOm5vcm1hbDtmb250LXdlaWdodDpub3JtYWw7Zm9udC1zaXplOjEwLjU4MzMzMzAycHg7bGluZS1oZWlnaHQ6Ni42MTQ1ODM0OXB4O2ZvbnQtZmFtaWx5OlNhbnM7bGV0dGVyLXNwYWNpbmc6MHB4O3dvcmQtc3BhY2luZzowcHg7ZmlsbDojZmZmZmZmO2ZpbGwtb3BhY2l0eToxO3N0cm9rZTpub25lO3N0cm9rZS13aWR0aDowLjI2NDU4MzMycHg7c3Ryb2tlLWxpbmVjYXA6YnV0dDtzdHJva2UtbGluZWpvaW46bWl0ZXI7c3Ryb2tlLW9wYWNpdHk6MSIgeG1sOnNwYWNlPSJwcmVzZXJ2ZSI+PHRzcGFuIHN0eWxlPSJmb250LXN0eWxlOm5vcm1hbDtmb250LXZhcmlhbnQ6bm9ybWFsO2ZvbnQtd2VpZ2h0Om5vcm1hbDtmb250LXN0cmV0Y2g6bm9ybWFsO2ZvbnQtc2l6ZToyLjgyMjIyMjIzcHg7Zm9udC1mYW1pbHk6QXJpYWw7LWlua3NjYXBlLWZvbnQtc3BlY2lmaWNhdGlvbjonQXJpYWwsIE5vcm1hbCc7dGV4dC1hbGlnbjpjZW50ZXI7d3JpdGluZy1tb2RlOmxyLXRiO3RleHQtYW5jaG9yOm1pZGRsZTtmaWxsOiNmZmZmZmY7ZmlsbC1vcGFjaXR5OjE7c3Ryb2tlLXdpZHRoOjAuMjY0NTgzMzJweCIgeT0iMTYuODExNzc1IiB4PSI5Ljk3MTcwODMiIGlkPSJ0c3BhbjIwNjQiIHNvZGlwb2RpOnJvbGU9ImxpbmUiPm5zPC90c3Bhbj48L3RleHQ+JiN4YTsgICAgPHJlY3QgeT0iNi4zNjg5NjI4IiB4PSI2LjE3MzQ5ODYiIGhlaWdodD0iNi42OTAwNzkyIiB3aWR0aD0iNy42NzM1ODkyIiBpZD0icmVjdDg3OTAiIHN0eWxlPSJvcGFjaXR5OjE7ZmlsbDpub25lO2ZpbGwtb3BhY2l0eToxO2ZpbGwtcnVsZTpub256ZXJvO3N0cm9rZTojZmZmZmZmO3N0cm9rZS13aWR0aDowLjQwMDAwMDAxO3N0cm9rZS1saW5lY2FwOmJ1dHQ7c3Ryb2tlLWxpbmVqb2luOnJvdW5kO3N0cm9rZS1taXRlcmxpbWl0OjEwO3N0cm9rZS1kYXNoYXJyYXk6MC44MDAwMDAwMSwgMC40O3N0cm9rZS1kYXNob2Zmc2V0OjMuNDQwMDAwMDY7c3Ryb2tlLW9wYWNpdHk6MSIvPiYjeGE7ICA8L2c+JiN4YTs8L3N2Zz4=;" vertex="1" parent="1">
          <mxGeometry x="180" y="350" width="48" height="48" as="geometry" />
        </mxCell>
        <mxCell id="8zcdvciyAg1Ix1c_pIfZ-33" value="app1 svc" style="shape=image;verticalLabelPosition=bottom;verticalAlign=top;imageAspect=0;aspect=fixed;image=data:image/svg+xml,PHN2ZyB4bWxuczpkYz0iaHR0cDovL3B1cmwub3JnL2RjL2VsZW1lbnRzLzEuMS8iIHhtbG5zOmNjPSJodHRwOi8vY3JlYXRpdmVjb21tb25zLm9yZy9ucyMiIHhtbG5zOnJkZj0iaHR0cDovL3d3dy53My5vcmcvMTk5OS8wMi8yMi1yZGYtc3ludGF4LW5zIyIgeG1sbnM6c3ZnPSJodHRwOi8vd3d3LnczLm9yZy8yMDAwL3N2ZyIgeG1sbnM9Imh0dHA6Ly93d3cudzMub3JnLzIwMDAvc3ZnIiB4bWxuczpzb2RpcG9kaT0iaHR0cDovL3NvZGlwb2RpLnNvdXJjZWZvcmdlLm5ldC9EVEQvc29kaXBvZGktMC5kdGQiIHhtbG5zOmlua3NjYXBlPSJodHRwOi8vd3d3Lmlua3NjYXBlLm9yZy9uYW1lc3BhY2VzL2lua3NjYXBlIiB3aWR0aD0iMTguMDM1MzM0bW0iIGhlaWdodD0iMTcuNTAwMzc4bW0iIHZpZXdCb3g9IjAgMCAxOC4wMzUzMzQgMTcuNTAwMzc4IiB2ZXJzaW9uPSIxLjEiIGlkPSJzdmcxMzgyNiIgaW5rc2NhcGU6dmVyc2lvbj0iMC45MSByMTM3MjUiIHNvZGlwb2RpOmRvY25hbWU9InN2Yy5zdmciPiYjeGE7ICA8ZGVmcyBpZD0iZGVmczEzODIwIi8+JiN4YTsgIDxzb2RpcG9kaTpuYW1lZHZpZXcgaWQ9ImJhc2UiIHBhZ2Vjb2xvcj0iI2ZmZmZmZiIgYm9yZGVyY29sb3I9IiM2NjY2NjYiIGJvcmRlcm9wYWNpdHk9IjEuMCIgaW5rc2NhcGU6cGFnZW9wYWNpdHk9IjAuMCIgaW5rc2NhcGU6cGFnZXNoYWRvdz0iMiIgaW5rc2NhcGU6em9vbT0iOCIgaW5rc2NhcGU6Y3g9IjE2Ljg0NzQ5NiIgaW5rc2NhcGU6Y3k9IjI4Ljc1MjIzOSIgaW5rc2NhcGU6ZG9jdW1lbnQtdW5pdHM9Im1tIiBpbmtzY2FwZTpjdXJyZW50LWxheWVyPSJsYXllcjEiIHNob3dncmlkPSJmYWxzZSIgaW5rc2NhcGU6d2luZG93LXdpZHRoPSIxNDQwIiBpbmtzY2FwZTp3aW5kb3ctaGVpZ2h0PSI3NzUiIGlua3NjYXBlOndpbmRvdy14PSIwIiBpbmtzY2FwZTp3aW5kb3cteT0iMSIgaW5rc2NhcGU6d2luZG93LW1heGltaXplZD0iMSIgZml0LW1hcmdpbi10b3A9IjAiIGZpdC1tYXJnaW4tbGVmdD0iMCIgZml0LW1hcmdpbi1yaWdodD0iMCIgZml0LW1hcmdpbi1ib3R0b209IjAiLz4mI3hhOyAgJiN4YTsgIDxnIGlua3NjYXBlOmxhYmVsPSJDYWxxdWUgMSIgaW5rc2NhcGU6Z3JvdXBtb2RlPSJsYXllciIgaWQ9ImxheWVyMSIgdHJhbnNmb3JtPSJ0cmFuc2xhdGUoLTAuOTkyNjI2MzgsLTEuMTc0MTgxKSI+JiN4YTsgICAgPGcgaWQ9Imc3MCIgdHJhbnNmb3JtPSJtYXRyaXgoMS4wMTQ4ODg3LDAsMCwxLjAxNDg4ODcsMTYuOTAyMTQ2LC0yLjY5ODcyNikiPiYjeGE7ICAgICAgPHBhdGggaW5rc2NhcGU6ZXhwb3J0LXlkcGk9IjI1MC41NSIgaW5rc2NhcGU6ZXhwb3J0LXhkcGk9IjI1MC41NSIgaW5rc2NhcGU6ZXhwb3J0LWZpbGVuYW1lPSJuZXcucG5nIiBpbmtzY2FwZTpjb25uZWN0b3ItY3VydmF0dXJlPSIwIiBpZD0icGF0aDMwNTUiIGQ9Im0gLTYuODQ5MjAxNSw0LjI3MjQ2NjggYSAxLjExOTEyNTUsMS4xMDk5NjcxIDAgMCAwIC0wLjQyODg4MTgsMC4xMDg1MzAzIGwgLTUuODUyNDAzNywyLjc5NjMzOTQgYSAxLjExOTEyNTUsMS4xMDk5NjcxIDAgMCAwIC0wLjYwNTUyNCwwLjc1Mjk3NTkgbCAtMS40NDM4MjgsNi4yODEyODQ2IGEgMS4xMTkxMjU1LDEuMTA5OTY3MSAwIDAgMCAwLjE1MTk0MywwLjg1MTAyOCAxLjExOTEyNTUsMS4xMDk5NjcxIDAgMCAwIDAuMDYzNjIsMC4wODgzMiBsIDQuMDUwOCw1LjAzNjU1NSBhIDEuMTE5MTI1NSwxLjEwOTk2NzEgMCAwIDAgMC44NzQ5NzksMC40MTc2NTQgbCA2LjQ5NjEwMTEsLTAuMDAxNSBhIDEuMTE5MTI1NSwxLjEwOTk2NzEgMCAwIDAgMC44NzQ5Nzg4LC0wLjQxNjkwNiBMIDEuMzgxODg3MiwxNS4xNDk0NTMgQSAxLjExOTEyNTUsMS4xMDk5NjcxIDAgMCAwIDEuNTk4MTk4NiwxNC4yMTAxMDQgTCAwLjE1MjEyNjU3LDcuOTI4ODE1NCBBIDEuMTE5MTI1NSwxLjEwOTk2NzEgMCAwIDAgLTAuNDUzMzk3OTQsNy4xNzU4Mzk2IEwgLTYuMzA2NTQ5Niw0LjM4MDk5NzEgQSAxLjExOTEyNTUsMS4xMDk5NjcxIDAgMCAwIC02Ljg0OTIwMTUsNC4yNzI0NjY4IFoiIHN0eWxlPSJmaWxsOiMzMjZjZTU7ZmlsbC1vcGFjaXR5OjE7c3Ryb2tlOm5vbmU7c3Ryb2tlLXdpZHRoOjA7c3Ryb2tlLW1pdGVybGltaXQ6NDtzdHJva2UtZGFzaGFycmF5Om5vbmU7c3Ryb2tlLW9wYWNpdHk6MSIvPiYjeGE7ICAgICAgPHBhdGggaWQ9InBhdGgzMDU0LTItOSIgZD0iTSAtNi44NTIzNDM1LDMuODE3NjM3MiBBIDEuMTgxNDMwNCwxLjE3MTc2MiAwIDAgMCAtNy4zMDQ0Mjg0LDMuOTMyOTA0IGwgLTYuMTc4NzQyNiwyLjk1MTI3NTggYSAxLjE4MTQzMDQsMS4xNzE3NjIgMCAwIDAgLTAuNjM5MjA2LDAuNzk0ODkxIGwgLTEuNTIzOTE1LDYuNjMwODI4MiBhIDEuMTgxNDMwNCwxLjE3MTc2MiAwIDAgMCAwLjE2MDE3NSwwLjg5ODkzIDEuMTgxNDMwNCwxLjE3MTc2MiAwIDAgMCAwLjA2NzM2LDAuMDkyODEgbCA0LjI3NjA5NCw1LjMxNzIzNiBhIDEuMTgxNDMwNCwxLjE3MTc2MiAwIDAgMCAwLjkyMzYzLDAuNDQwODU4IGwgNi44NTc2MTg4LC0wLjAwMTUgYSAxLjE4MTQzMDQsMS4xNzE3NjIgMCAwIDAgMC45MjM2MzA4LC0wLjQ0MDExIGwgNC4yNzQ1OTY2LC01LjMxNzk4NSBhIDEuMTgxNDMwNCwxLjE3MTc2MiAwIDAgMCAwLjIyODI4OCwtMC45OTA5OTMgTCAwLjUzODk0NDM5LDcuNjc3NTczOCBBIDEuMTgxNDMwNCwxLjE3MTc2MiAwIDAgMCAtMC4xMDAyNjEwMSw2Ljg4MzQzMTMgTCAtNi4yNzkwMDM3LDMuOTMyMTU1NSBBIDEuMTgxNDMwNCwxLjE3MTc2MiAwIDAgMCAtNi44NTIzNDM1LDMuODE3NjM3MiBaIG0gMC4wMDI5OSwwLjQ1NTA3ODkgYSAxLjExOTEyNTUsMS4xMDk5NjcxIDAgMCAxIDAuNTQyNjUxNywwLjEwODUzMDMgbCA1Ljg1MzE1MTY5LDIuNzk0ODQyNSBBIDEuMTE5MTI1NSwxLjEwOTk2NzEgMCAwIDEgMC4xNTE5NzgxMSw3LjkyOTA2NDggTCAxLjU5ODA1MSwxNC4yMTAzNSBhIDEuMTE5MTI1NSwxLjEwOTk2NzEgMCAwIDEgLTAuMjE2MzEyMywwLjkzOTM0OCBsIC00LjA0OTMwMzIsNS4wMzczMDQgYSAxLjExOTEyNTUsMS4xMDk5NjcxIDAgMCAxIC0wLjg3NDk3ODksMC40MTY5MDYgbCAtNi40OTYxMDA2LDAuMDAxNSBhIDEuMTE5MTI1NSwxLjEwOTk2NzEgMCAwIDEgLTAuODc0OTc5LC0wLjQxNzY1MiBsIC00LjA1MDgsLTUuMDM2NTU0IGEgMS4xMTkxMjU1LDEuMTA5OTY3MSAwIDAgMSAtMC4wNjM2MiwtMC4wODgzMiAxLjExOTEyNTUsMS4xMDk5NjcxIDAgMCAxIC0wLjE1MTk0MiwtMC44NTEwMjggbCAxLjQ0MzgyNywtNi4yODEyODUzIGEgMS4xMTkxMjU1LDEuMTA5OTY3MSAwIDAgMSAwLjYwNTUyNCwtMC43NTI5NzU4IGwgNS44NTI0MDM2LC0yLjc5NjMzOTUgYSAxLjExOTEyNTUsMS4xMDk5NjcxIDAgMCAxIDAuNDI4ODgxOSwtMC4xMDg1MzAzIHoiIHN0eWxlPSJjb2xvcjojMDAwMDAwO2ZvbnQtc3R5bGU6bm9ybWFsO2ZvbnQtdmFyaWFudDpub3JtYWw7Zm9udC13ZWlnaHQ6bm9ybWFsO2ZvbnQtc3RyZXRjaDpub3JtYWw7Zm9udC1zaXplOm1lZGl1bTtsaW5lLWhlaWdodDpub3JtYWw7Zm9udC1mYW1pbHk6U2FuczstaW5rc2NhcGUtZm9udC1zcGVjaWZpY2F0aW9uOlNhbnM7dGV4dC1pbmRlbnQ6MDt0ZXh0LWFsaWduOnN0YXJ0O3RleHQtZGVjb3JhdGlvbjpub25lO3RleHQtZGVjb3JhdGlvbi1saW5lOm5vbmU7bGV0dGVyLXNwYWNpbmc6bm9ybWFsO3dvcmQtc3BhY2luZzpub3JtYWw7dGV4dC10cmFuc2Zvcm06bm9uZTt3cml0aW5nLW1vZGU6bHItdGI7ZGlyZWN0aW9uOmx0cjtiYXNlbGluZS1zaGlmdDpiYXNlbGluZTt0ZXh0LWFuY2hvcjpzdGFydDtkaXNwbGF5OmlubGluZTtvdmVyZmxvdzp2aXNpYmxlO3Zpc2liaWxpdHk6dmlzaWJsZTtmaWxsOiNmZmZmZmY7ZmlsbC1vcGFjaXR5OjE7ZmlsbC1ydWxlOm5vbnplcm87c3Ryb2tlOm5vbmU7c3Ryb2tlLXdpZHRoOjA7c3Ryb2tlLW1pdGVybGltaXQ6NDtzdHJva2UtZGFzaGFycmF5Om5vbmU7bWFya2VyOm5vbmU7ZW5hYmxlLWJhY2tncm91bmQ6YWNjdW11bGF0ZSIgaW5rc2NhcGU6Y29ubmVjdG9yLWN1cnZhdHVyZT0iMCIvPiYjeGE7ICAgIDwvZz4mI3hhOyAgICA8dGV4dCBpZD0idGV4dDIwNjYiIHk9IjE2LjgxMTc3NSIgeD0iOS45Nzk5NzY3IiBzdHlsZT0iZm9udC1zdHlsZTpub3JtYWw7Zm9udC13ZWlnaHQ6bm9ybWFsO2ZvbnQtc2l6ZToxMC41ODMzMzMwMnB4O2xpbmUtaGVpZ2h0OjYuNjE0NTgzNDlweDtmb250LWZhbWlseTpTYW5zO2xldHRlci1zcGFjaW5nOjBweDt3b3JkLXNwYWNpbmc6MHB4O2ZpbGw6I2ZmZmZmZjtmaWxsLW9wYWNpdHk6MTtzdHJva2U6bm9uZTtzdHJva2Utd2lkdGg6MC4yNjQ1ODMzMnB4O3N0cm9rZS1saW5lY2FwOmJ1dHQ7c3Ryb2tlLWxpbmVqb2luOm1pdGVyO3N0cm9rZS1vcGFjaXR5OjEiIHhtbDpzcGFjZT0icHJlc2VydmUiPjx0c3BhbiBzdHlsZT0iZm9udC1zdHlsZTpub3JtYWw7Zm9udC12YXJpYW50Om5vcm1hbDtmb250LXdlaWdodDpub3JtYWw7Zm9udC1zdHJldGNoOm5vcm1hbDtmb250LXNpemU6Mi44MjIyMjIyM3B4O2ZvbnQtZmFtaWx5OkFyaWFsOy1pbmtzY2FwZS1mb250LXNwZWNpZmljYXRpb246J0FyaWFsLCBOb3JtYWwnO3RleHQtYWxpZ246Y2VudGVyO3dyaXRpbmctbW9kZTpsci10Yjt0ZXh0LWFuY2hvcjptaWRkbGU7ZmlsbDojZmZmZmZmO2ZpbGwtb3BhY2l0eToxO3N0cm9rZS13aWR0aDowLjI2NDU4MzMycHgiIHk9IjE2LjgxMTc3NSIgeD0iOS45Nzk5NzY3IiBpZD0idHNwYW4yMDY0IiBzb2RpcG9kaTpyb2xlPSJsaW5lIj5zdmM8L3RzcGFuPjwvdGV4dD4mI3hhOyAgICA8ZyBpZD0iZzMzNDUiIHRyYW5zZm9ybT0idHJhbnNsYXRlKDAuMDkyMzg4MDEsMCkiPiYjeGE7ICAgICAgPHBhdGggc3R5bGU9ImZpbGw6I2ZmZmZmZjtmaWxsLXJ1bGU6ZXZlbm9kZDtzdHJva2U6bm9uZTtzdHJva2Utd2lkdGg6MC4yNjQ1ODMzMjtzdHJva2UtbGluZWNhcDpzcXVhcmU7c3Ryb2tlLW1pdGVybGltaXQ6MTAiIGlua3NjYXBlOmNvbm5lY3Rvci1jdXJ2YXR1cmU9IjAiIGQ9Im0gNC40OTQ5ODk2LDExLjI2MDgyNiAyLjkwODMzMTEsMCAwLDIuMDQxNjY3IC0yLjkwODMzMTEsMCB6IiBpZD0icGF0aDk2NCIvPiYjeGE7ICAgICAgPHBhdGggc3R5bGU9ImZpbGw6I2ZmZmZmZjtmaWxsLXJ1bGU6ZXZlbm9kZDtzdHJva2U6bm9uZTtzdHJva2Utd2lkdGg6MC4yNjQ1ODMzMjtzdHJva2UtbGluZWNhcDpzcXVhcmU7c3Ryb2tlLW1pdGVybGltaXQ6MTAiIGlua3NjYXBlOmNvbm5lY3Rvci1jdXJ2YXR1cmU9IjAiIGQ9Im0gOC40NjM3NDA3LDExLjI2MDgyNiAyLjkwODMzMDMsMCAwLDIuMDQxNjY3IC0yLjkwODMzMDMsMCB6IiBpZD0icGF0aDk2NiIvPiYjeGE7ICAgICAgPHBhdGggc3R5bGU9ImZpbGw6I2ZmZmZmZjtmaWxsLXJ1bGU6ZXZlbm9kZDtzdHJva2U6bm9uZTtzdHJva2Utd2lkdGg6MC4yNjQ1ODMzMjtzdHJva2UtbGluZWNhcDpzcXVhcmU7c3Ryb2tlLW1pdGVybGltaXQ6MTAiIGlua3NjYXBlOmNvbm5lY3Rvci1jdXJ2YXR1cmU9IjAiIGQ9Im0gMTIuNDMyNDkxLDExLjI2MDgyNiAyLjkwODMzLDAgMCwyLjA0MTY2NyAtMi45MDgzMywwIHoiIGlkPSJwYXRoOTY4Ii8+JiN4YTsgICAgICA8cGF0aCBzdHlsZT0iZmlsbDojZmZmZmZmO2ZpbGwtcnVsZTpldmVub2RkO3N0cm9rZTpub25lO3N0cm9rZS13aWR0aDowLjI2NDU4MzMyO3N0cm9rZS1saW5lY2FwOnNxdWFyZTtzdHJva2UtbWl0ZXJsaW1pdDoxMCIgaW5rc2NhcGU6Y29ubmVjdG9yLWN1cnZhdHVyZT0iMCIgZD0ibSA3LjYxMzc0MDcsNS4yMDgyOTIxIDQuNjA4MzMwMywwIDAsMi4wNDE2NjcgLTQuNjA4MzMwMywwIHoiIGlkPSJwYXRoOTcwIi8+JiN4YTsgICAgICA8cGF0aCBzdHlsZT0iZmlsbDpub25lO2ZpbGwtcnVsZTpldmVub2RkO3N0cm9rZTojZmZmZmZmO3N0cm9rZS13aWR0aDowLjUyOTE2NjY0O3N0cm9rZS1saW5lY2FwOmJ1dHQ7c3Ryb2tlLWxpbmVqb2luOnJvdW5kO3N0cm9rZS1taXRlcmxpbWl0OjEwO3N0cm9rZS1vcGFjaXR5OjEiIGlua3NjYXBlOmNvbm5lY3Rvci1jdXJ2YXR1cmU9IjAiIGQ9Im0gOS45MTc5MDA1LDcuMjQ5OTYwMSAwLDIuMDA1NDQ5IC0zLjk2NjY3MSwwIDAsMi4wMDI4ODU5IiBpZD0icGF0aDk3OCIvPiYjeGE7ICAgICAgPHBhdGggc3R5bGU9ImZpbGw6bm9uZTtmaWxsLXJ1bGU6ZXZlbm9kZDtzdHJva2U6I2ZmZmZmZjtzdHJva2Utd2lkdGg6MC41Mjg5OTk5ODtzdHJva2UtbGluZWNhcDpidXR0O3N0cm9rZS1saW5lam9pbjpyb3VuZDtzdHJva2UtbWl0ZXJsaW1pdDoxMDtzdHJva2UtZGFzaGFycmF5Om5vbmU7c3Ryb2tlLW9wYWNpdHk6MSIgaW5rc2NhcGU6Y29ubmVjdG9yLWN1cnZhdHVyZT0iMCIgZD0ibSA5LjkxNzkwMDUsNy4yNDk5NjAxIDAsMi4wMDU0NDkgMy45NjY2NzA1LDAgMCwyLjAwMjg4NTkiIGlkPSJwYXRoOTg2Ii8+JiN4YTsgICAgICA8cGF0aCBzdHlsZT0iZmlsbDpub25lO2ZpbGwtcnVsZTpldmVub2RkO3N0cm9rZTojZmZmZmZmO3N0cm9rZS13aWR0aDowLjUyOTE2NjY0O3N0cm9rZS1saW5lY2FwOmJ1dHQ7c3Ryb2tlLWxpbmVqb2luOnJvdW5kO3N0cm9rZS1taXRlcmxpbWl0OjEwO3N0cm9rZS1vcGFjaXR5OjEiIGlua3NjYXBlOmNvbm5lY3Rvci1jdXJ2YXR1cmU9IjAiIGQ9Im0gOS45MDk1NTM4LDcuMjUxMjI1MSAwLDIuMDA1NDQ5IDAuMDE2NywwIDAsMi4wMDI4ODU5IiBpZD0icGF0aDk4MiIvPiYjeGE7ICAgIDwvZz4mI3hhOyAgPC9nPiYjeGE7PC9zdmc+;" vertex="1" parent="1">
          <mxGeometry x="264" y="550" width="44" height="44" as="geometry" />
        </mxCell>
        <mxCell id="8zcdvciyAg1Ix1c_pIfZ-35" style="edgeStyle=orthogonalEdgeStyle;rounded=0;orthogonalLoop=1;jettySize=auto;html=1;curved=1;dashed=1;exitX=0.5;exitY=0;exitDx=0;exitDy=0;" edge="1" parent="1" source="8zcdvciyAg1Ix1c_pIfZ-28" target="8zcdvciyAg1Ix1c_pIfZ-22">
          <mxGeometry relative="1" as="geometry">
            <mxPoint x="516" y="300" as="sourcePoint" />
            <mxPoint x="400" y="380" as="targetPoint" />
          </mxGeometry>
        </mxCell>
        <mxCell id="8zcdvciyAg1Ix1c_pIfZ-36" value="references" style="edgeLabel;html=1;align=center;verticalAlign=middle;resizable=0;points=[];" vertex="1" connectable="0" parent="8zcdvciyAg1Ix1c_pIfZ-35">
          <mxGeometry x="0.5612" y="1" relative="1" as="geometry">
            <mxPoint x="-23" y="26" as="offset" />
          </mxGeometry>
        </mxCell>
        <mxCell id="8zcdvciyAg1Ix1c_pIfZ-39" style="edgeStyle=orthogonalEdgeStyle;rounded=0;orthogonalLoop=1;jettySize=auto;html=1;dashed=1;curved=1;" edge="1" parent="1" source="8zcdvciyAg1Ix1c_pIfZ-37" target="8zcdvciyAg1Ix1c_pIfZ-38">
          <mxGeometry relative="1" as="geometry" />
        </mxCell>
        <mxCell id="8zcdvciyAg1Ix1c_pIfZ-42" style="edgeStyle=orthogonalEdgeStyle;rounded=0;orthogonalLoop=1;jettySize=auto;html=1;entryX=0.5;entryY=0;entryDx=0;entryDy=0;" edge="1" parent="1" source="8zcdvciyAg1Ix1c_pIfZ-37" target="8zcdvciyAg1Ix1c_pIfZ-41">
          <mxGeometry relative="1" as="geometry" />
        </mxCell>
        <mxCell id="8zcdvciyAg1Ix1c_pIfZ-37" value="app.example.com/app2" style="shape=image;verticalLabelPosition=bottom;verticalAlign=top;imageAspect=0;aspect=fixed;image=data:image/svg+xml,PHN2ZyB4bWxuczpkYz0iaHR0cDovL3B1cmwub3JnL2RjL2VsZW1lbnRzLzEuMS8iIHhtbG5zOmNjPSJodHRwOi8vY3JlYXRpdmVjb21tb25zLm9yZy9ucyMiIHhtbG5zOnJkZj0iaHR0cDovL3d3dy53My5vcmcvMTk5OS8wMi8yMi1yZGYtc3ludGF4LW5zIyIgeG1sbnM6c3ZnPSJodHRwOi8vd3d3LnczLm9yZy8yMDAwL3N2ZyIgeG1sbnM9Imh0dHA6Ly93d3cudzMub3JnLzIwMDAvc3ZnIiB4bWxuczpzb2RpcG9kaT0iaHR0cDovL3NvZGlwb2RpLnNvdXJjZWZvcmdlLm5ldC9EVEQvc29kaXBvZGktMC5kdGQiIHhtbG5zOmlua3NjYXBlPSJodHRwOi8vd3d3Lmlua3NjYXBlLm9yZy9uYW1lc3BhY2VzL2lua3NjYXBlIiB3aWR0aD0iMTguMDM1MzM0bW0iIGhlaWdodD0iMTcuNTAwMzc4bW0iIHZpZXdCb3g9IjAgMCAxOC4wMzUzMzQgMTcuNTAwMzc4IiB2ZXJzaW9uPSIxLjEiIGlkPSJzdmcxMzgyNiIgaW5rc2NhcGU6dmVyc2lvbj0iMC45MSByMTM3MjUiIHNvZGlwb2RpOmRvY25hbWU9ImluZy5zdmciPiYjeGE7ICA8ZGVmcyBpZD0iZGVmczEzODIwIi8+JiN4YTsgIDxzb2RpcG9kaTpuYW1lZHZpZXcgaWQ9ImJhc2UiIHBhZ2Vjb2xvcj0iI2ZmZmZmZiIgYm9yZGVyY29sb3I9IiM2NjY2NjYiIGJvcmRlcm9wYWNpdHk9IjEuMCIgaW5rc2NhcGU6cGFnZW9wYWNpdHk9IjAuMCIgaW5rc2NhcGU6cGFnZXNoYWRvdz0iMiIgaW5rc2NhcGU6em9vbT0iOCIgaW5rc2NhcGU6Y3g9IjE2Ljg0NzQ5NiIgaW5rc2NhcGU6Y3k9IjI4Ljc1MjIzOSIgaW5rc2NhcGU6ZG9jdW1lbnQtdW5pdHM9Im1tIiBpbmtzY2FwZTpjdXJyZW50LWxheWVyPSJsYXllcjEiIHNob3dncmlkPSJmYWxzZSIgaW5rc2NhcGU6d2luZG93LXdpZHRoPSIxNDQwIiBpbmtzY2FwZTp3aW5kb3ctaGVpZ2h0PSI3NzUiIGlua3NjYXBlOndpbmRvdy14PSIwIiBpbmtzY2FwZTp3aW5kb3cteT0iMSIgaW5rc2NhcGU6d2luZG93LW1heGltaXplZD0iMSIgZml0LW1hcmdpbi10b3A9IjAiIGZpdC1tYXJnaW4tbGVmdD0iMCIgZml0LW1hcmdpbi1yaWdodD0iMCIgZml0LW1hcmdpbi1ib3R0b209IjAiLz4mI3hhOyAgJiN4YTsgIDxnIGlua3NjYXBlOmxhYmVsPSJDYWxxdWUgMSIgaW5rc2NhcGU6Z3JvdXBtb2RlPSJsYXllciIgaWQ9ImxheWVyMSIgdHJhbnNmb3JtPSJ0cmFuc2xhdGUoLTAuOTkyNjI2MzgsLTEuMTc0MTgxKSI+JiN4YTsgICAgPGcgaWQ9Imc3MCIgdHJhbnNmb3JtPSJtYXRyaXgoMS4wMTQ4ODg3LDAsMCwxLjAxNDg4ODcsMTYuOTAyMTQ2LC0yLjY5ODcyNikiPiYjeGE7ICAgICAgPHBhdGggaW5rc2NhcGU6ZXhwb3J0LXlkcGk9IjI1MC41NSIgaW5rc2NhcGU6ZXhwb3J0LXhkcGk9IjI1MC41NSIgaW5rc2NhcGU6ZXhwb3J0LWZpbGVuYW1lPSJuZXcucG5nIiBpbmtzY2FwZTpjb25uZWN0b3ItY3VydmF0dXJlPSIwIiBpZD0icGF0aDMwNTUiIGQ9Im0gLTYuODQ5MjAxNSw0LjI3MjQ2NjggYSAxLjExOTEyNTUsMS4xMDk5NjcxIDAgMCAwIC0wLjQyODg4MTgsMC4xMDg1MzAzIGwgLTUuODUyNDAzNywyLjc5NjMzOTQgYSAxLjExOTEyNTUsMS4xMDk5NjcxIDAgMCAwIC0wLjYwNTUyNCwwLjc1Mjk3NTkgbCAtMS40NDM4MjgsNi4yODEyODQ2IGEgMS4xMTkxMjU1LDEuMTA5OTY3MSAwIDAgMCAwLjE1MTk0MywwLjg1MTAyOCAxLjExOTEyNTUsMS4xMDk5NjcxIDAgMCAwIDAuMDYzNjIsMC4wODgzMiBsIDQuMDUwOCw1LjAzNjU1NSBhIDEuMTE5MTI1NSwxLjEwOTk2NzEgMCAwIDAgMC44NzQ5NzksMC40MTc2NTQgbCA2LjQ5NjEwMTEsLTAuMDAxNSBhIDEuMTE5MTI1NSwxLjEwOTk2NzEgMCAwIDAgMC44NzQ5Nzg4LC0wLjQxNjkwNiBMIDEuMzgxODg3MiwxNS4xNDk0NTMgQSAxLjExOTEyNTUsMS4xMDk5NjcxIDAgMCAwIDEuNTk4MTk4NiwxNC4yMTAxMDQgTCAwLjE1MjEyNjU3LDcuOTI4ODE1NCBBIDEuMTE5MTI1NSwxLjEwOTk2NzEgMCAwIDAgLTAuNDUzMzk3OTQsNy4xNzU4Mzk2IEwgLTYuMzA2NTQ5Niw0LjM4MDk5NzEgQSAxLjExOTEyNTUsMS4xMDk5NjcxIDAgMCAwIC02Ljg0OTIwMTUsNC4yNzI0NjY4IFoiIHN0eWxlPSJmaWxsOiMzMjZjZTU7ZmlsbC1vcGFjaXR5OjE7c3Ryb2tlOm5vbmU7c3Ryb2tlLXdpZHRoOjA7c3Ryb2tlLW1pdGVybGltaXQ6NDtzdHJva2UtZGFzaGFycmF5Om5vbmU7c3Ryb2tlLW9wYWNpdHk6MSIvPiYjeGE7ICAgICAgPHBhdGggaWQ9InBhdGgzMDU0LTItOSIgZD0iTSAtNi44NTIzNDM1LDMuODE3NjM3MiBBIDEuMTgxNDMwNCwxLjE3MTc2MiAwIDAgMCAtNy4zMDQ0Mjg0LDMuOTMyOTA0IGwgLTYuMTc4NzQyNiwyLjk1MTI3NTggYSAxLjE4MTQzMDQsMS4xNzE3NjIgMCAwIDAgLTAuNjM5MjA2LDAuNzk0ODkxIGwgLTEuNTIzOTE1LDYuNjMwODI4MiBhIDEuMTgxNDMwNCwxLjE3MTc2MiAwIDAgMCAwLjE2MDE3NSwwLjg5ODkzIDEuMTgxNDMwNCwxLjE3MTc2MiAwIDAgMCAwLjA2NzM2LDAuMDkyODEgbCA0LjI3NjA5NCw1LjMxNzIzNiBhIDEuMTgxNDMwNCwxLjE3MTc2MiAwIDAgMCAwLjkyMzYzLDAuNDQwODU4IGwgNi44NTc2MTg4LC0wLjAwMTUgYSAxLjE4MTQzMDQsMS4xNzE3NjIgMCAwIDAgMC45MjM2MzA4LC0wLjQ0MDExIGwgNC4yNzQ1OTY2LC01LjMxNzk4NSBhIDEuMTgxNDMwNCwxLjE3MTc2MiAwIDAgMCAwLjIyODI4OCwtMC45OTA5OTMgTCAwLjUzODk0NDM5LDcuNjc3NTczOCBBIDEuMTgxNDMwNCwxLjE3MTc2MiAwIDAgMCAtMC4xMDAyNjEwMSw2Ljg4MzQzMTMgTCAtNi4yNzkwMDM3LDMuOTMyMTU1NSBBIDEuMTgxNDMwNCwxLjE3MTc2MiAwIDAgMCAtNi44NTIzNDM1LDMuODE3NjM3MiBaIG0gMC4wMDI5OSwwLjQ1NTA3ODkgYSAxLjExOTEyNTUsMS4xMDk5NjcxIDAgMCAxIDAuNTQyNjUxNywwLjEwODUzMDMgbCA1Ljg1MzE1MTY5LDIuNzk0ODQyNSBBIDEuMTE5MTI1NSwxLjEwOTk2NzEgMCAwIDEgMC4xNTE5NzgxMSw3LjkyOTA2NDggTCAxLjU5ODA1MSwxNC4yMTAzNSBhIDEuMTE5MTI1NSwxLjEwOTk2NzEgMCAwIDEgLTAuMjE2MzEyMywwLjkzOTM0OCBsIC00LjA0OTMwMzIsNS4wMzczMDQgYSAxLjExOTEyNTUsMS4xMDk5NjcxIDAgMCAxIC0wLjg3NDk3ODksMC40MTY5MDYgbCAtNi40OTYxMDA2LDAuMDAxNSBhIDEuMTE5MTI1NSwxLjEwOTk2NzEgMCAwIDEgLTAuODc0OTc5LC0wLjQxNzY1MiBsIC00LjA1MDgsLTUuMDM2NTU0IGEgMS4xMTkxMjU1LDEuMTA5OTY3MSAwIDAgMSAtMC4wNjM2MiwtMC4wODgzMiAxLjExOTEyNTUsMS4xMDk5NjcxIDAgMCAxIC0wLjE1MTk0MiwtMC44NTEwMjggbCAxLjQ0MzgyNywtNi4yODEyODUzIGEgMS4xMTkxMjU1LDEuMTA5OTY3MSAwIDAgMSAwLjYwNTUyNCwtMC43NTI5NzU4IGwgNS44NTI0MDM2LC0yLjc5NjMzOTUgYSAxLjExOTEyNTUsMS4xMDk5NjcxIDAgMCAxIDAuNDI4ODgxOSwtMC4xMDg1MzAzIHoiIHN0eWxlPSJjb2xvcjojMDAwMDAwO2ZvbnQtc3R5bGU6bm9ybWFsO2ZvbnQtdmFyaWFudDpub3JtYWw7Zm9udC13ZWlnaHQ6bm9ybWFsO2ZvbnQtc3RyZXRjaDpub3JtYWw7Zm9udC1zaXplOm1lZGl1bTtsaW5lLWhlaWdodDpub3JtYWw7Zm9udC1mYW1pbHk6U2FuczstaW5rc2NhcGUtZm9udC1zcGVjaWZpY2F0aW9uOlNhbnM7dGV4dC1pbmRlbnQ6MDt0ZXh0LWFsaWduOnN0YXJ0O3RleHQtZGVjb3JhdGlvbjpub25lO3RleHQtZGVjb3JhdGlvbi1saW5lOm5vbmU7bGV0dGVyLXNwYWNpbmc6bm9ybWFsO3dvcmQtc3BhY2luZzpub3JtYWw7dGV4dC10cmFuc2Zvcm06bm9uZTt3cml0aW5nLW1vZGU6bHItdGI7ZGlyZWN0aW9uOmx0cjtiYXNlbGluZS1zaGlmdDpiYXNlbGluZTt0ZXh0LWFuY2hvcjpzdGFydDtkaXNwbGF5OmlubGluZTtvdmVyZmxvdzp2aXNpYmxlO3Zpc2liaWxpdHk6dmlzaWJsZTtmaWxsOiNmZmZmZmY7ZmlsbC1vcGFjaXR5OjE7ZmlsbC1ydWxlOm5vbnplcm87c3Ryb2tlOm5vbmU7c3Ryb2tlLXdpZHRoOjA7c3Ryb2tlLW1pdGVybGltaXQ6NDtzdHJva2UtZGFzaGFycmF5Om5vbmU7bWFya2VyOm5vbmU7ZW5hYmxlLWJhY2tncm91bmQ6YWNjdW11bGF0ZSIgaW5rc2NhcGU6Y29ubmVjdG9yLWN1cnZhdHVyZT0iMCIvPiYjeGE7ICAgIDwvZz4mI3hhOyAgICA8dGV4dCBpZD0idGV4dDIwNjYiIHk9IjE2LjgxMTc3NSIgeD0iMTAuMDA4OTE1IiBzdHlsZT0iZm9udC1zdHlsZTpub3JtYWw7Zm9udC13ZWlnaHQ6bm9ybWFsO2ZvbnQtc2l6ZToxMC41ODMzMzMwMnB4O2xpbmUtaGVpZ2h0OjYuNjE0NTgzNDlweDtmb250LWZhbWlseTpTYW5zO2xldHRlci1zcGFjaW5nOjBweDt3b3JkLXNwYWNpbmc6MHB4O2ZpbGw6I2ZmZmZmZjtmaWxsLW9wYWNpdHk6MTtzdHJva2U6bm9uZTtzdHJva2Utd2lkdGg6MC4yNjQ1ODMzMnB4O3N0cm9rZS1saW5lY2FwOmJ1dHQ7c3Ryb2tlLWxpbmVqb2luOm1pdGVyO3N0cm9rZS1vcGFjaXR5OjEiIHhtbDpzcGFjZT0icHJlc2VydmUiPjx0c3BhbiBzdHlsZT0iZm9udC1zdHlsZTpub3JtYWw7Zm9udC12YXJpYW50Om5vcm1hbDtmb250LXdlaWdodDpub3JtYWw7Zm9udC1zdHJldGNoOm5vcm1hbDtmb250LXNpemU6Mi44MjIyMjIyM3B4O2ZvbnQtZmFtaWx5OkFyaWFsOy1pbmtzY2FwZS1mb250LXNwZWNpZmljYXRpb246J0FyaWFsLCBOb3JtYWwnO3RleHQtYWxpZ246Y2VudGVyO3dyaXRpbmctbW9kZTpsci10Yjt0ZXh0LWFuY2hvcjptaWRkbGU7ZmlsbDojZmZmZmZmO2ZpbGwtb3BhY2l0eToxO3N0cm9rZS13aWR0aDowLjI2NDU4MzMycHgiIHk9IjE2LjgxMTc3NSIgeD0iMTAuMDA4OTE1IiBpZD0idHNwYW4yMDY0IiBzb2RpcG9kaTpyb2xlPSJsaW5lIj5pbmc8L3RzcGFuPjwvdGV4dD4mI3hhOyAgICA8cGF0aCBpZD0icGF0aDc3MDkiIHBvaW50ZXItZXZlbnRzPSJub25lIiBkPSJtIDEyLjc1Nzk5LDEzLjcxNjI1NiAtMi4yNzA3MDEsMCAtNC45MjA5MDA5LC02LjE1NTg2MTQgLTEuNDIzNjYsMCAwLC0yLjAxNDkwNjkgMi4zMTQ3MywwIDQuOTIzMDExOSw2LjE1NTg1MzMgMS4zNzc1MiwwIDAsLTEuNTkzNDc0IDMuMTE5ODY5LDIuNTk5ODgyIC0zLjExOTg2OSwyLjYwMTk4MyB6IG0gLTIuNDc2MTYsLTQuNzU1Mjc0OCAxLjA5ODY0LC0xLjM3NTQyNTYgMS4zNzc1MiwwIDAsMS41OTM0NzUgMy4xMTk4NjksLTIuNTk5ODgyOSAtMy4xMTk4NjksLTIuNjAxOTgzIDAsMS41OTM0ODMgLTIuMjcwNzAxLDAgLTEuNDU3MTkwNCwxLjgyNDExMDIgeiBtIC0zLjU5NzkyMTksMS4zNjQ5NDI4IC0xLjExNzUyLDEuNDAwNTc4IC0xLjQyMzY2LDAgMCwyLjAxNDkxNSAyLjMxNDczLDAgMS40NzgxNjk5LC0xLjg0OTI3OCB6IiBpbmtzY2FwZTpjb25uZWN0b3ItY3VydmF0dXJlPSIwIiBzdHlsZT0iZmlsbDojZmZmZmZmO2ZpbGwtb3BhY2l0eToxO3N0cm9rZTpub25lO3N0cm9rZS13aWR0aDowLjIwOTY2ODE3Ii8+JiN4YTsgIDwvZz4mI3hhOzwvc3ZnPg==;" vertex="1" parent="1">
          <mxGeometry x="578" y="440" width="48" height="48" as="geometry" />
        </mxCell>
        <mxCell id="8zcdvciyAg1Ix1c_pIfZ-38" value="IngressClass&#xa;nginx" style="shape=image;verticalLabelPosition=bottom;verticalAlign=top;imageAspect=0;aspect=fixed;image=data:image/svg+xml,PHN2ZyB4bWxuczpkYz0iaHR0cDovL3B1cmwub3JnL2RjL2VsZW1lbnRzLzEuMS8iIHhtbG5zOmNjPSJodHRwOi8vY3JlYXRpdmVjb21tb25zLm9yZy9ucyMiIHhtbG5zOnJkZj0iaHR0cDovL3d3dy53My5vcmcvMTk5OS8wMi8yMi1yZGYtc3ludGF4LW5zIyIgeG1sbnM6c3ZnPSJodHRwOi8vd3d3LnczLm9yZy8yMDAwL3N2ZyIgeG1sbnM9Imh0dHA6Ly93d3cudzMub3JnLzIwMDAvc3ZnIiB4bWxuczpzb2RpcG9kaT0iaHR0cDovL3NvZGlwb2RpLnNvdXJjZWZvcmdlLm5ldC9EVEQvc29kaXBvZGktMC5kdGQiIHhtbG5zOmlua3NjYXBlPSJodHRwOi8vd3d3Lmlua3NjYXBlLm9yZy9uYW1lc3BhY2VzL2lua3NjYXBlIiB3aWR0aD0iMTguMDM1MzM0bW0iIGhlaWdodD0iMTcuNTAwMzc4bW0iIHZpZXdCb3g9IjAgMCAxOC4wMzUzMzQgMTcuNTAwMzc4IiB2ZXJzaW9uPSIxLjEiIGlkPSJzdmcxMzgyNiIgaW5rc2NhcGU6dmVyc2lvbj0iMC45MSByMTM3MjUiIHNvZGlwb2RpOmRvY25hbWU9ImNyZC5zdmciPiYjeGE7ICA8ZGVmcyBpZD0iZGVmczEzODIwIi8+JiN4YTsgIDxzb2RpcG9kaTpuYW1lZHZpZXcgaWQ9ImJhc2UiIHBhZ2Vjb2xvcj0iI2ZmZmZmZiIgYm9yZGVyY29sb3I9IiM2NjY2NjYiIGJvcmRlcm9wYWNpdHk9IjEuMCIgaW5rc2NhcGU6cGFnZW9wYWNpdHk9IjAuMCIgaW5rc2NhcGU6cGFnZXNoYWRvdz0iMiIgaW5rc2NhcGU6em9vbT0iOCIgaW5rc2NhcGU6Y3g9Ii0yLjA5MDAwNCIgaW5rc2NhcGU6Y3k9IjMzLjc1MjIzOSIgaW5rc2NhcGU6ZG9jdW1lbnQtdW5pdHM9Im1tIiBpbmtzY2FwZTpjdXJyZW50LWxheWVyPSJsYXllcjEiIHNob3dncmlkPSJmYWxzZSIgaW5rc2NhcGU6d2luZG93LXdpZHRoPSIxNDQwIiBpbmtzY2FwZTp3aW5kb3ctaGVpZ2h0PSI3NzUiIGlua3NjYXBlOndpbmRvdy14PSIwIiBpbmtzY2FwZTp3aW5kb3cteT0iMSIgaW5rc2NhcGU6d2luZG93LW1heGltaXplZD0iMSIgZml0LW1hcmdpbi10b3A9IjAiIGZpdC1tYXJnaW4tbGVmdD0iMCIgZml0LW1hcmdpbi1yaWdodD0iMCIgZml0LW1hcmdpbi1ib3R0b209IjAiLz4mI3hhOyAgJiN4YTsgIDxnIGlua3NjYXBlOmxhYmVsPSJDYWxxdWUgMSIgaW5rc2NhcGU6Z3JvdXBtb2RlPSJsYXllciIgaWQ9ImxheWVyMSIgdHJhbnNmb3JtPSJ0cmFuc2xhdGUoLTAuOTkyNjI2MzgsLTEuMTc0MTgxKSI+JiN4YTsgICAgPGcgaWQ9Imc3MCIgdHJhbnNmb3JtPSJtYXRyaXgoMS4wMTQ4ODg3LDAsMCwxLjAxNDg4ODcsMTYuOTAyMTQ2LC0yLjY5ODcyNikiPiYjeGE7ICAgICAgPHBhdGggaW5rc2NhcGU6ZXhwb3J0LXlkcGk9IjI1MC41NSIgaW5rc2NhcGU6ZXhwb3J0LXhkcGk9IjI1MC41NSIgaW5rc2NhcGU6ZXhwb3J0LWZpbGVuYW1lPSJuZXcucG5nIiBpbmtzY2FwZTpjb25uZWN0b3ItY3VydmF0dXJlPSIwIiBpZD0icGF0aDMwNTUiIGQ9Im0gLTYuODQ5MjAxNSw0LjI3MjQ2NjggYSAxLjExOTEyNTUsMS4xMDk5NjcxIDAgMCAwIC0wLjQyODg4MTgsMC4xMDg1MzAzIGwgLTUuODUyNDAzNywyLjc5NjMzOTQgYSAxLjExOTEyNTUsMS4xMDk5NjcxIDAgMCAwIC0wLjYwNTUyNCwwLjc1Mjk3NTkgbCAtMS40NDM4MjgsNi4yODEyODQ2IGEgMS4xMTkxMjU1LDEuMTA5OTY3MSAwIDAgMCAwLjE1MTk0MywwLjg1MTAyOCAxLjExOTEyNTUsMS4xMDk5NjcxIDAgMCAwIDAuMDYzNjIsMC4wODgzMiBsIDQuMDUwOCw1LjAzNjU1NSBhIDEuMTE5MTI1NSwxLjEwOTk2NzEgMCAwIDAgMC44NzQ5NzksMC40MTc2NTQgbCA2LjQ5NjEwMTEsLTAuMDAxNSBhIDEuMTE5MTI1NSwxLjEwOTk2NzEgMCAwIDAgMC44NzQ5Nzg4LC0wLjQxNjkwNiBMIDEuMzgxODg3MiwxNS4xNDk0NTMgQSAxLjExOTEyNTUsMS4xMDk5NjcxIDAgMCAwIDEuNTk4MTk4NiwxNC4yMTAxMDQgTCAwLjE1MjEyNjU3LDcuOTI4ODE1NCBBIDEuMTE5MTI1NSwxLjEwOTk2NzEgMCAwIDAgLTAuNDUzMzk3OTQsNy4xNzU4Mzk2IEwgLTYuMzA2NTQ5Niw0LjM4MDk5NzEgQSAxLjExOTEyNTUsMS4xMDk5NjcxIDAgMCAwIC02Ljg0OTIwMTUsNC4yNzI0NjY4IFoiIHN0eWxlPSJmaWxsOiMzMjZjZTU7ZmlsbC1vcGFjaXR5OjE7c3Ryb2tlOm5vbmU7c3Ryb2tlLXdpZHRoOjA7c3Ryb2tlLW1pdGVybGltaXQ6NDtzdHJva2UtZGFzaGFycmF5Om5vbmU7c3Ryb2tlLW9wYWNpdHk6MSIvPiYjeGE7ICAgICAgPHBhdGggaWQ9InBhdGgzMDU0LTItOSIgZD0iTSAtNi44NTIzNDM1LDMuODE3NjM3MiBBIDEuMTgxNDMwNCwxLjE3MTc2MiAwIDAgMCAtNy4zMDQ0Mjg0LDMuOTMyOTA0IGwgLTYuMTc4NzQyNiwyLjk1MTI3NTggYSAxLjE4MTQzMDQsMS4xNzE3NjIgMCAwIDAgLTAuNjM5MjA2LDAuNzk0ODkxIGwgLTEuNTIzOTE1LDYuNjMwODI4MiBhIDEuMTgxNDMwNCwxLjE3MTc2MiAwIDAgMCAwLjE2MDE3NSwwLjg5ODkzIDEuMTgxNDMwNCwxLjE3MTc2MiAwIDAgMCAwLjA2NzM2LDAuMDkyODEgbCA0LjI3NjA5NCw1LjMxNzIzNiBhIDEuMTgxNDMwNCwxLjE3MTc2MiAwIDAgMCAwLjkyMzYzLDAuNDQwODU4IGwgNi44NTc2MTg4LC0wLjAwMTUgYSAxLjE4MTQzMDQsMS4xNzE3NjIgMCAwIDAgMC45MjM2MzA4LC0wLjQ0MDExIGwgNC4yNzQ1OTY2LC01LjMxNzk4NSBhIDEuMTgxNDMwNCwxLjE3MTc2MiAwIDAgMCAwLjIyODI4OCwtMC45OTA5OTMgTCAwLjUzODk0NDM5LDcuNjc3NTczOCBBIDEuMTgxNDMwNCwxLjE3MTc2MiAwIDAgMCAtMC4xMDAyNjEwMSw2Ljg4MzQzMTMgTCAtNi4yNzkwMDM3LDMuOTMyMTU1NSBBIDEuMTgxNDMwNCwxLjE3MTc2MiAwIDAgMCAtNi44NTIzNDM1LDMuODE3NjM3MiBaIG0gMC4wMDI5OSwwLjQ1NTA3ODkgYSAxLjExOTEyNTUsMS4xMDk5NjcxIDAgMCAxIDAuNTQyNjUxNywwLjEwODUzMDMgbCA1Ljg1MzE1MTY5LDIuNzk0ODQyNSBBIDEuMTE5MTI1NSwxLjEwOTk2NzEgMCAwIDEgMC4xNTE5NzgxMSw3LjkyOTA2NDggTCAxLjU5ODA1MSwxNC4yMTAzNSBhIDEuMTE5MTI1NSwxLjEwOTk2NzEgMCAwIDEgLTAuMjE2MzEyMywwLjkzOTM0OCBsIC00LjA0OTMwMzIsNS4wMzczMDQgYSAxLjExOTEyNTUsMS4xMDk5NjcxIDAgMCAxIC0wLjg3NDk3ODksMC40MTY5MDYgbCAtNi40OTYxMDA2LDAuMDAxNSBhIDEuMTE5MTI1NSwxLjEwOTk2NzEgMCAwIDEgLTAuODc0OTc5LC0wLjQxNzY1MiBsIC00LjA1MDgsLTUuMDM2NTU0IGEgMS4xMTkxMjU1LDEuMTA5OTY3MSAwIDAgMSAtMC4wNjM2MiwtMC4wODgzMiAxLjExOTEyNTUsMS4xMDk5NjcxIDAgMCAxIC0wLjE1MTk0MiwtMC44NTEwMjggbCAxLjQ0MzgyNywtNi4yODEyODUzIGEgMS4xMTkxMjU1LDEuMTA5OTY3MSAwIDAgMSAwLjYwNTUyNCwtMC43NTI5NzU4IGwgNS44NTI0MDM2LC0yLjc5NjMzOTUgYSAxLjExOTEyNTUsMS4xMDk5NjcxIDAgMCAxIDAuNDI4ODgxOSwtMC4xMDg1MzAzIHoiIHN0eWxlPSJjb2xvcjojMDAwMDAwO2ZvbnQtc3R5bGU6bm9ybWFsO2ZvbnQtdmFyaWFudDpub3JtYWw7Zm9udC13ZWlnaHQ6bm9ybWFsO2ZvbnQtc3RyZXRjaDpub3JtYWw7Zm9udC1zaXplOm1lZGl1bTtsaW5lLWhlaWdodDpub3JtYWw7Zm9udC1mYW1pbHk6U2FuczstaW5rc2NhcGUtZm9udC1zcGVjaWZpY2F0aW9uOlNhbnM7dGV4dC1pbmRlbnQ6MDt0ZXh0LWFsaWduOnN0YXJ0O3RleHQtZGVjb3JhdGlvbjpub25lO3RleHQtZGVjb3JhdGlvbi1saW5lOm5vbmU7bGV0dGVyLXNwYWNpbmc6bm9ybWFsO3dvcmQtc3BhY2luZzpub3JtYWw7dGV4dC10cmFuc2Zvcm06bm9uZTt3cml0aW5nLW1vZGU6bHItdGI7ZGlyZWN0aW9uOmx0cjtiYXNlbGluZS1zaGlmdDpiYXNlbGluZTt0ZXh0LWFuY2hvcjpzdGFydDtkaXNwbGF5OmlubGluZTtvdmVyZmxvdzp2aXNpYmxlO3Zpc2liaWxpdHk6dmlzaWJsZTtmaWxsOiNmZmZmZmY7ZmlsbC1vcGFjaXR5OjE7ZmlsbC1ydWxlOm5vbnplcm87c3Ryb2tlOm5vbmU7c3Ryb2tlLXdpZHRoOjA7c3Ryb2tlLW1pdGVybGltaXQ6NDtzdHJva2UtZGFzaGFycmF5Om5vbmU7bWFya2VyOm5vbmU7ZW5hYmxlLWJhY2tncm91bmQ6YWNjdW11bGF0ZSIgaW5rc2NhcGU6Y29ubmVjdG9yLWN1cnZhdHVyZT0iMCIvPiYjeGE7ICAgIDwvZz4mI3hhOyAgICA8dGV4dCBpZD0idGV4dDIwNjYiIHk9IjE2LjgxMTc3NSIgeD0iMTAuMDU1MDc5IiBzdHlsZT0iZm9udC1zdHlsZTpub3JtYWw7Zm9udC13ZWlnaHQ6bm9ybWFsO2ZvbnQtc2l6ZToxMC41ODMzMzMwMnB4O2xpbmUtaGVpZ2h0OjYuNjE0NTgzNDlweDtmb250LWZhbWlseTpTYW5zO2xldHRlci1zcGFjaW5nOjBweDt3b3JkLXNwYWNpbmc6MHB4O2ZpbGw6I2ZmZmZmZjtmaWxsLW9wYWNpdHk6MTtzdHJva2U6bm9uZTtzdHJva2Utd2lkdGg6MC4yNjQ1ODMzMnB4O3N0cm9rZS1saW5lY2FwOmJ1dHQ7c3Ryb2tlLWxpbmVqb2luOm1pdGVyO3N0cm9rZS1vcGFjaXR5OjEiIHhtbDpzcGFjZT0icHJlc2VydmUiPjx0c3BhbiBzdHlsZT0iZm9udC1zdHlsZTpub3JtYWw7Zm9udC12YXJpYW50Om5vcm1hbDtmb250LXdlaWdodDpub3JtYWw7Zm9udC1zdHJldGNoOm5vcm1hbDtmb250LXNpemU6Mi44MjIyMjIyM3B4O2ZvbnQtZmFtaWx5OkFyaWFsOy1pbmtzY2FwZS1mb250LXNwZWNpZmljYXRpb246J0FyaWFsLCBOb3JtYWwnO3RleHQtYWxpZ246Y2VudGVyO3dyaXRpbmctbW9kZTpsci10Yjt0ZXh0LWFuY2hvcjptaWRkbGU7ZmlsbDojZmZmZmZmO2ZpbGwtb3BhY2l0eToxO3N0cm9rZS13aWR0aDowLjI2NDU4MzMycHgiIHk9IjE2LjgxMTc3NSIgeD0iMTAuMDU1MDc5IiBpZD0idHNwYW4yMDY0IiBzb2RpcG9kaTpyb2xlPSJsaW5lIj5jcmQ8L3RzcGFuPjwvdGV4dD4mI3hhOyAgICA8cGF0aCBzdHlsZT0iZmlsbDojZmZmZmZmO2ZpbGwtb3BhY2l0eToxO3N0cm9rZS13aWR0aDowLjQ2MTg1MzY4IiBpbmtzY2FwZTpjb25uZWN0b3ItY3VydmF0dXJlPSIwIiBkPSJtIDE0LjI2OTU2Niw4Ljc3NzUyMTkgLTAuNjkyNzgxLDAgMCwtMS44NDc0MTYgYyAwLC0wLjUwODAzODMgLTAuNDE1NjY4LC0wLjkyMzcwNjMgLTAuOTIzNzA2LC0wLjkyMzcwNjMgbCAtMS44NDc0MTYsMCAwLC0wLjY5Mjc4IGMgMCwtMC42MzczNTkgLTAuNTE3Mjc1LC0xLjE1NDYzNiAtMS4xNTQ2MzM0LC0xLjE1NDYzNiAtMC42MzczNTc4LDAgLTEuMTU0NjMzOCwwLjUxNzI3NyAtMS4xNTQ2MzM4LDEuMTU0NjM2IGwgMCwwLjY5Mjc4IC0xLjg0NzQxNiwwIGMgLTAuNTA4MDM4LDAgLTAuOTE5MDg5LDAuNDE1NjY4IC0wLjkxOTA4OSwwLjkyMzcwNjMgbCAwLDEuNzU1MDQ1IDAuNjg4MTY0LDAgYyAwLjY4ODE2MSwwIDEuMjQ3MDA1LDAuNTU4ODQzIDEuMjQ3MDA1LDEuMjQ3MDA1IDAsMC42ODgxNjIxIC0wLjU1ODg0NCwxLjI0NzAwNTEgLTEuMjQ3MDA1LDEuMjQ3MDA1MSBsIC0wLjY5Mjc4MSwwIDAsMS43NTUwNDUgYyAwLDAuNTA4MDM4IDAuNDE1NjY4LDAuOTIzNzA2IDAuOTIzNzA2LDAuOTIzNzA2IGwgMS43NTUwNDUsMCAwLC0wLjY5Mjc4MSBjIDAsLTAuNjg4MTYxIDAuNTU4ODQzLC0xLjI0NzAwNSAxLjI0NzAwNDgsLTEuMjQ3MDA1IDAuNjg4MTYyNCwwIDEuMjQ3MDA0NCwwLjU1ODg0NCAxLjI0NzAwNDQsMS4yNDcwMDUgbCAwLDAuNjkyNzgxIDEuNzU1MDQ1LDAgYyAwLjUwODAzOCwwIDAuOTIzNzA2LC0wLjQxNTY2OCAwLjkyMzcwNiwtMC45MjM3MDYgbCAwLC0xLjg0NzQxNiAwLjY5Mjc4MSwwIGMgMC42MzczNTgsMCAxLjE1NDYzNSwtMC41MTcyNzYgMS4xNTQ2MzUsLTEuMTU0NjM0MSAwLC0wLjYzNzM1OCAtMC41MTcyNzcsLTEuMTU0NjM0IC0xLjE1NDYzNSwtMS4xNTQ2MzQgeiIgaWQ9InBhdGg3NDE1Ii8+JiN4YTsgIDwvZz4mI3hhOzwvc3ZnPg==;" vertex="1" parent="1">
          <mxGeometry x="520" y="282" width="48" height="48" as="geometry" />
        </mxCell>
        <mxCell id="8zcdvciyAg1Ix1c_pIfZ-40" value="references" style="edgeLabel;html=1;align=center;verticalAlign=middle;resizable=0;points=[];" vertex="1" connectable="0" parent="1">
          <mxGeometry x="544" y="374" as="geometry" />
        </mxCell>
        <mxCell id="8zcdvciyAg1Ix1c_pIfZ-41" value="app2 svc" style="shape=image;verticalLabelPosition=bottom;verticalAlign=top;imageAspect=0;aspect=fixed;image=data:image/svg+xml,PHN2ZyB4bWxuczpkYz0iaHR0cDovL3B1cmwub3JnL2RjL2VsZW1lbnRzLzEuMS8iIHhtbG5zOmNjPSJodHRwOi8vY3JlYXRpdmVjb21tb25zLm9yZy9ucyMiIHhtbG5zOnJkZj0iaHR0cDovL3d3dy53My5vcmcvMTk5OS8wMi8yMi1yZGYtc3ludGF4LW5zIyIgeG1sbnM6c3ZnPSJodHRwOi8vd3d3LnczLm9yZy8yMDAwL3N2ZyIgeG1sbnM9Imh0dHA6Ly93d3cudzMub3JnLzIwMDAvc3ZnIiB4bWxuczpzb2RpcG9kaT0iaHR0cDovL3NvZGlwb2RpLnNvdXJjZWZvcmdlLm5ldC9EVEQvc29kaXBvZGktMC5kdGQiIHhtbG5zOmlua3NjYXBlPSJodHRwOi8vd3d3Lmlua3NjYXBlLm9yZy9uYW1lc3BhY2VzL2lua3NjYXBlIiB3aWR0aD0iMTguMDM1MzM0bW0iIGhlaWdodD0iMTcuNTAwMzc4bW0iIHZpZXdCb3g9IjAgMCAxOC4wMzUzMzQgMTcuNTAwMzc4IiB2ZXJzaW9uPSIxLjEiIGlkPSJzdmcxMzgyNiIgaW5rc2NhcGU6dmVyc2lvbj0iMC45MSByMTM3MjUiIHNvZGlwb2RpOmRvY25hbWU9InN2Yy5zdmciPiYjeGE7ICA8ZGVmcyBpZD0iZGVmczEzODIwIi8+JiN4YTsgIDxzb2RpcG9kaTpuYW1lZHZpZXcgaWQ9ImJhc2UiIHBhZ2Vjb2xvcj0iI2ZmZmZmZiIgYm9yZGVyY29sb3I9IiM2NjY2NjYiIGJvcmRlcm9wYWNpdHk9IjEuMCIgaW5rc2NhcGU6cGFnZW9wYWNpdHk9IjAuMCIgaW5rc2NhcGU6cGFnZXNoYWRvdz0iMiIgaW5rc2NhcGU6em9vbT0iOCIgaW5rc2NhcGU6Y3g9IjE2Ljg0NzQ5NiIgaW5rc2NhcGU6Y3k9IjI4Ljc1MjIzOSIgaW5rc2NhcGU6ZG9jdW1lbnQtdW5pdHM9Im1tIiBpbmtzY2FwZTpjdXJyZW50LWxheWVyPSJsYXllcjEiIHNob3dncmlkPSJmYWxzZSIgaW5rc2NhcGU6d2luZG93LXdpZHRoPSIxNDQwIiBpbmtzY2FwZTp3aW5kb3ctaGVpZ2h0PSI3NzUiIGlua3NjYXBlOndpbmRvdy14PSIwIiBpbmtzY2FwZTp3aW5kb3cteT0iMSIgaW5rc2NhcGU6d2luZG93LW1heGltaXplZD0iMSIgZml0LW1hcmdpbi10b3A9IjAiIGZpdC1tYXJnaW4tbGVmdD0iMCIgZml0LW1hcmdpbi1yaWdodD0iMCIgZml0LW1hcmdpbi1ib3R0b209IjAiLz4mI3hhOyAgJiN4YTsgIDxnIGlua3NjYXBlOmxhYmVsPSJDYWxxdWUgMSIgaW5rc2NhcGU6Z3JvdXBtb2RlPSJsYXllciIgaWQ9ImxheWVyMSIgdHJhbnNmb3JtPSJ0cmFuc2xhdGUoLTAuOTkyNjI2MzgsLTEuMTc0MTgxKSI+JiN4YTsgICAgPGcgaWQ9Imc3MCIgdHJhbnNmb3JtPSJtYXRyaXgoMS4wMTQ4ODg3LDAsMCwxLjAxNDg4ODcsMTYuOTAyMTQ2LC0yLjY5ODcyNikiPiYjeGE7ICAgICAgPHBhdGggaW5rc2NhcGU6ZXhwb3J0LXlkcGk9IjI1MC41NSIgaW5rc2NhcGU6ZXhwb3J0LXhkcGk9IjI1MC41NSIgaW5rc2NhcGU6ZXhwb3J0LWZpbGVuYW1lPSJuZXcucG5nIiBpbmtzY2FwZTpjb25uZWN0b3ItY3VydmF0dXJlPSIwIiBpZD0icGF0aDMwNTUiIGQ9Im0gLTYuODQ5MjAxNSw0LjI3MjQ2NjggYSAxLjExOTEyNTUsMS4xMDk5NjcxIDAgMCAwIC0wLjQyODg4MTgsMC4xMDg1MzAzIGwgLTUuODUyNDAzNywyLjc5NjMzOTQgYSAxLjExOTEyNTUsMS4xMDk5NjcxIDAgMCAwIC0wLjYwNTUyNCwwLjc1Mjk3NTkgbCAtMS40NDM4MjgsNi4yODEyODQ2IGEgMS4xMTkxMjU1LDEuMTA5OTY3MSAwIDAgMCAwLjE1MTk0MywwLjg1MTAyOCAxLjExOTEyNTUsMS4xMDk5NjcxIDAgMCAwIDAuMDYzNjIsMC4wODgzMiBsIDQuMDUwOCw1LjAzNjU1NSBhIDEuMTE5MTI1NSwxLjEwOTk2NzEgMCAwIDAgMC44NzQ5NzksMC40MTc2NTQgbCA2LjQ5NjEwMTEsLTAuMDAxNSBhIDEuMTE5MTI1NSwxLjEwOTk2NzEgMCAwIDAgMC44NzQ5Nzg4LC0wLjQxNjkwNiBMIDEuMzgxODg3MiwxNS4xNDk0NTMgQSAxLjExOTEyNTUsMS4xMDk5NjcxIDAgMCAwIDEuNTk4MTk4NiwxNC4yMTAxMDQgTCAwLjE1MjEyNjU3LDcuOTI4ODE1NCBBIDEuMTE5MTI1NSwxLjEwOTk2NzEgMCAwIDAgLTAuNDUzMzk3OTQsNy4xNzU4Mzk2IEwgLTYuMzA2NTQ5Niw0LjM4MDk5NzEgQSAxLjExOTEyNTUsMS4xMDk5NjcxIDAgMCAwIC02Ljg0OTIwMTUsNC4yNzI0NjY4IFoiIHN0eWxlPSJmaWxsOiMzMjZjZTU7ZmlsbC1vcGFjaXR5OjE7c3Ryb2tlOm5vbmU7c3Ryb2tlLXdpZHRoOjA7c3Ryb2tlLW1pdGVybGltaXQ6NDtzdHJva2UtZGFzaGFycmF5Om5vbmU7c3Ryb2tlLW9wYWNpdHk6MSIvPiYjeGE7ICAgICAgPHBhdGggaWQ9InBhdGgzMDU0LTItOSIgZD0iTSAtNi44NTIzNDM1LDMuODE3NjM3MiBBIDEuMTgxNDMwNCwxLjE3MTc2MiAwIDAgMCAtNy4zMDQ0Mjg0LDMuOTMyOTA0IGwgLTYuMTc4NzQyNiwyLjk1MTI3NTggYSAxLjE4MTQzMDQsMS4xNzE3NjIgMCAwIDAgLTAuNjM5MjA2LDAuNzk0ODkxIGwgLTEuNTIzOTE1LDYuNjMwODI4MiBhIDEuMTgxNDMwNCwxLjE3MTc2MiAwIDAgMCAwLjE2MDE3NSwwLjg5ODkzIDEuMTgxNDMwNCwxLjE3MTc2MiAwIDAgMCAwLjA2NzM2LDAuMDkyODEgbCA0LjI3NjA5NCw1LjMxNzIzNiBhIDEuMTgxNDMwNCwxLjE3MTc2MiAwIDAgMCAwLjkyMzYzLDAuNDQwODU4IGwgNi44NTc2MTg4LC0wLjAwMTUgYSAxLjE4MTQzMDQsMS4xNzE3NjIgMCAwIDAgMC45MjM2MzA4LC0wLjQ0MDExIGwgNC4yNzQ1OTY2LC01LjMxNzk4NSBhIDEuMTgxNDMwNCwxLjE3MTc2MiAwIDAgMCAwLjIyODI4OCwtMC45OTA5OTMgTCAwLjUzODk0NDM5LDcuNjc3NTczOCBBIDEuMTgxNDMwNCwxLjE3MTc2MiAwIDAgMCAtMC4xMDAyNjEwMSw2Ljg4MzQzMTMgTCAtNi4yNzkwMDM3LDMuOTMyMTU1NSBBIDEuMTgxNDMwNCwxLjE3MTc2MiAwIDAgMCAtNi44NTIzNDM1LDMuODE3NjM3MiBaIG0gMC4wMDI5OSwwLjQ1NTA3ODkgYSAxLjExOTEyNTUsMS4xMDk5NjcxIDAgMCAxIDAuNTQyNjUxNywwLjEwODUzMDMgbCA1Ljg1MzE1MTY5LDIuNzk0ODQyNSBBIDEuMTE5MTI1NSwxLjEwOTk2NzEgMCAwIDEgMC4xNTE5NzgxMSw3LjkyOTA2NDggTCAxLjU5ODA1MSwxNC4yMTAzNSBhIDEuMTE5MTI1NSwxLjEwOTk2NzEgMCAwIDEgLTAuMjE2MzEyMywwLjkzOTM0OCBsIC00LjA0OTMwMzIsNS4wMzczMDQgYSAxLjExOTEyNTUsMS4xMDk5NjcxIDAgMCAxIC0wLjg3NDk3ODksMC40MTY5MDYgbCAtNi40OTYxMDA2LDAuMDAxNSBhIDEuMTE5MTI1NSwxLjEwOTk2NzEgMCAwIDEgLTAuODc0OTc5LC0wLjQxNzY1MiBsIC00LjA1MDgsLTUuMDM2NTU0IGEgMS4xMTkxMjU1LDEuMTA5OTY3MSAwIDAgMSAtMC4wNjM2MiwtMC4wODgzMiAxLjExOTEyNTUsMS4xMDk5NjcxIDAgMCAxIC0wLjE1MTk0MiwtMC44NTEwMjggbCAxLjQ0MzgyNywtNi4yODEyODUzIGEgMS4xMTkxMjU1LDEuMTA5OTY3MSAwIDAgMSAwLjYwNTUyNCwtMC43NTI5NzU4IGwgNS44NTI0MDM2LC0yLjc5NjMzOTUgYSAxLjExOTEyNTUsMS4xMDk5NjcxIDAgMCAxIDAuNDI4ODgxOSwtMC4xMDg1MzAzIHoiIHN0eWxlPSJjb2xvcjojMDAwMDAwO2ZvbnQtc3R5bGU6bm9ybWFsO2ZvbnQtdmFyaWFudDpub3JtYWw7Zm9udC13ZWlnaHQ6bm9ybWFsO2ZvbnQtc3RyZXRjaDpub3JtYWw7Zm9udC1zaXplOm1lZGl1bTtsaW5lLWhlaWdodDpub3JtYWw7Zm9udC1mYW1pbHk6U2FuczstaW5rc2NhcGUtZm9udC1zcGVjaWZpY2F0aW9uOlNhbnM7dGV4dC1pbmRlbnQ6MDt0ZXh0LWFsaWduOnN0YXJ0O3RleHQtZGVjb3JhdGlvbjpub25lO3RleHQtZGVjb3JhdGlvbi1saW5lOm5vbmU7bGV0dGVyLXNwYWNpbmc6bm9ybWFsO3dvcmQtc3BhY2luZzpub3JtYWw7dGV4dC10cmFuc2Zvcm06bm9uZTt3cml0aW5nLW1vZGU6bHItdGI7ZGlyZWN0aW9uOmx0cjtiYXNlbGluZS1zaGlmdDpiYXNlbGluZTt0ZXh0LWFuY2hvcjpzdGFydDtkaXNwbGF5OmlubGluZTtvdmVyZmxvdzp2aXNpYmxlO3Zpc2liaWxpdHk6dmlzaWJsZTtmaWxsOiNmZmZmZmY7ZmlsbC1vcGFjaXR5OjE7ZmlsbC1ydWxlOm5vbnplcm87c3Ryb2tlOm5vbmU7c3Ryb2tlLXdpZHRoOjA7c3Ryb2tlLW1pdGVybGltaXQ6NDtzdHJva2UtZGFzaGFycmF5Om5vbmU7bWFya2VyOm5vbmU7ZW5hYmxlLWJhY2tncm91bmQ6YWNjdW11bGF0ZSIgaW5rc2NhcGU6Y29ubmVjdG9yLWN1cnZhdHVyZT0iMCIvPiYjeGE7ICAgIDwvZz4mI3hhOyAgICA8dGV4dCBpZD0idGV4dDIwNjYiIHk9IjE2LjgxMTc3NSIgeD0iOS45Nzk5NzY3IiBzdHlsZT0iZm9udC1zdHlsZTpub3JtYWw7Zm9udC13ZWlnaHQ6bm9ybWFsO2ZvbnQtc2l6ZToxMC41ODMzMzMwMnB4O2xpbmUtaGVpZ2h0OjYuNjE0NTgzNDlweDtmb250LWZhbWlseTpTYW5zO2xldHRlci1zcGFjaW5nOjBweDt3b3JkLXNwYWNpbmc6MHB4O2ZpbGw6I2ZmZmZmZjtmaWxsLW9wYWNpdHk6MTtzdHJva2U6bm9uZTtzdHJva2Utd2lkdGg6MC4yNjQ1ODMzMnB4O3N0cm9rZS1saW5lY2FwOmJ1dHQ7c3Ryb2tlLWxpbmVqb2luOm1pdGVyO3N0cm9rZS1vcGFjaXR5OjEiIHhtbDpzcGFjZT0icHJlc2VydmUiPjx0c3BhbiBzdHlsZT0iZm9udC1zdHlsZTpub3JtYWw7Zm9udC12YXJpYW50Om5vcm1hbDtmb250LXdlaWdodDpub3JtYWw7Zm9udC1zdHJldGNoOm5vcm1hbDtmb250LXNpemU6Mi44MjIyMjIyM3B4O2ZvbnQtZmFtaWx5OkFyaWFsOy1pbmtzY2FwZS1mb250LXNwZWNpZmljYXRpb246J0FyaWFsLCBOb3JtYWwnO3RleHQtYWxpZ246Y2VudGVyO3dyaXRpbmctbW9kZTpsci10Yjt0ZXh0LWFuY2hvcjptaWRkbGU7ZmlsbDojZmZmZmZmO2ZpbGwtb3BhY2l0eToxO3N0cm9rZS13aWR0aDowLjI2NDU4MzMycHgiIHk9IjE2LjgxMTc3NSIgeD0iOS45Nzk5NzY3IiBpZD0idHNwYW4yMDY0IiBzb2RpcG9kaTpyb2xlPSJsaW5lIj5zdmM8L3RzcGFuPjwvdGV4dD4mI3hhOyAgICA8ZyBpZD0iZzMzNDUiIHRyYW5zZm9ybT0idHJhbnNsYXRlKDAuMDkyMzg4MDEsMCkiPiYjeGE7ICAgICAgPHBhdGggc3R5bGU9ImZpbGw6I2ZmZmZmZjtmaWxsLXJ1bGU6ZXZlbm9kZDtzdHJva2U6bm9uZTtzdHJva2Utd2lkdGg6MC4yNjQ1ODMzMjtzdHJva2UtbGluZWNhcDpzcXVhcmU7c3Ryb2tlLW1pdGVybGltaXQ6MTAiIGlua3NjYXBlOmNvbm5lY3Rvci1jdXJ2YXR1cmU9IjAiIGQ9Im0gNC40OTQ5ODk2LDExLjI2MDgyNiAyLjkwODMzMTEsMCAwLDIuMDQxNjY3IC0yLjkwODMzMTEsMCB6IiBpZD0icGF0aDk2NCIvPiYjeGE7ICAgICAgPHBhdGggc3R5bGU9ImZpbGw6I2ZmZmZmZjtmaWxsLXJ1bGU6ZXZlbm9kZDtzdHJva2U6bm9uZTtzdHJva2Utd2lkdGg6MC4yNjQ1ODMzMjtzdHJva2UtbGluZWNhcDpzcXVhcmU7c3Ryb2tlLW1pdGVybGltaXQ6MTAiIGlua3NjYXBlOmNvbm5lY3Rvci1jdXJ2YXR1cmU9IjAiIGQ9Im0gOC40NjM3NDA3LDExLjI2MDgyNiAyLjkwODMzMDMsMCAwLDIuMDQxNjY3IC0yLjkwODMzMDMsMCB6IiBpZD0icGF0aDk2NiIvPiYjeGE7ICAgICAgPHBhdGggc3R5bGU9ImZpbGw6I2ZmZmZmZjtmaWxsLXJ1bGU6ZXZlbm9kZDtzdHJva2U6bm9uZTtzdHJva2Utd2lkdGg6MC4yNjQ1ODMzMjtzdHJva2UtbGluZWNhcDpzcXVhcmU7c3Ryb2tlLW1pdGVybGltaXQ6MTAiIGlua3NjYXBlOmNvbm5lY3Rvci1jdXJ2YXR1cmU9IjAiIGQ9Im0gMTIuNDMyNDkxLDExLjI2MDgyNiAyLjkwODMzLDAgMCwyLjA0MTY2NyAtMi45MDgzMywwIHoiIGlkPSJwYXRoOTY4Ii8+JiN4YTsgICAgICA8cGF0aCBzdHlsZT0iZmlsbDojZmZmZmZmO2ZpbGwtcnVsZTpldmVub2RkO3N0cm9rZTpub25lO3N0cm9rZS13aWR0aDowLjI2NDU4MzMyO3N0cm9rZS1saW5lY2FwOnNxdWFyZTtzdHJva2UtbWl0ZXJsaW1pdDoxMCIgaW5rc2NhcGU6Y29ubmVjdG9yLWN1cnZhdHVyZT0iMCIgZD0ibSA3LjYxMzc0MDcsNS4yMDgyOTIxIDQuNjA4MzMwMywwIDAsMi4wNDE2NjcgLTQuNjA4MzMwMywwIHoiIGlkPSJwYXRoOTcwIi8+JiN4YTsgICAgICA8cGF0aCBzdHlsZT0iZmlsbDpub25lO2ZpbGwtcnVsZTpldmVub2RkO3N0cm9rZTojZmZmZmZmO3N0cm9rZS13aWR0aDowLjUyOTE2NjY0O3N0cm9rZS1saW5lY2FwOmJ1dHQ7c3Ryb2tlLWxpbmVqb2luOnJvdW5kO3N0cm9rZS1taXRlcmxpbWl0OjEwO3N0cm9rZS1vcGFjaXR5OjEiIGlua3NjYXBlOmNvbm5lY3Rvci1jdXJ2YXR1cmU9IjAiIGQ9Im0gOS45MTc5MDA1LDcuMjQ5OTYwMSAwLDIuMDA1NDQ5IC0zLjk2NjY3MSwwIDAsMi4wMDI4ODU5IiBpZD0icGF0aDk3OCIvPiYjeGE7ICAgICAgPHBhdGggc3R5bGU9ImZpbGw6bm9uZTtmaWxsLXJ1bGU6ZXZlbm9kZDtzdHJva2U6I2ZmZmZmZjtzdHJva2Utd2lkdGg6MC41Mjg5OTk5ODtzdHJva2UtbGluZWNhcDpidXR0O3N0cm9rZS1saW5lam9pbjpyb3VuZDtzdHJva2UtbWl0ZXJsaW1pdDoxMDtzdHJva2UtZGFzaGFycmF5Om5vbmU7c3Ryb2tlLW9wYWNpdHk6MSIgaW5rc2NhcGU6Y29ubmVjdG9yLWN1cnZhdHVyZT0iMCIgZD0ibSA5LjkxNzkwMDUsNy4yNDk5NjAxIDAsMi4wMDU0NDkgMy45NjY2NzA1LDAgMCwyLjAwMjg4NTkiIGlkPSJwYXRoOTg2Ii8+JiN4YTsgICAgICA8cGF0aCBzdHlsZT0iZmlsbDpub25lO2ZpbGwtcnVsZTpldmVub2RkO3N0cm9rZTojZmZmZmZmO3N0cm9rZS13aWR0aDowLjUyOTE2NjY0O3N0cm9rZS1saW5lY2FwOmJ1dHQ7c3Ryb2tlLWxpbmVqb2luOnJvdW5kO3N0cm9rZS1taXRlcmxpbWl0OjEwO3N0cm9rZS1vcGFjaXR5OjEiIGlua3NjYXBlOmNvbm5lY3Rvci1jdXJ2YXR1cmU9IjAiIGQ9Im0gOS45MDk1NTM4LDcuMjUxMjI1MSAwLDIuMDA1NDQ5IDAuMDE2NywwIDAsMi4wMDI4ODU5IiBpZD0icGF0aDk4MiIvPiYjeGE7ICAgIDwvZz4mI3hhOyAgPC9nPiYjeGE7PC9zdmc+;" vertex="1" parent="1">
          <mxGeometry x="580" y="550" width="44" height="44" as="geometry" />
        </mxCell>
      </root>
    </mxGraphModel>
  </diagram>
</mxfile>
